<svg width="17" height="17" viewBox="0 0 17 17" fill="none" xmlns="http://www.w3.org/2000/svg">
<path d="M11.8535 8.14643L6.85355 3.14643C6.78362 3.07651 6.69452 3.02889 6.59753 3.0096C6.50054 2.99032 6.40001 3.00022 6.30865 3.03807C6.21729 3.07591 6.1392 3.14 6.08426 3.22222C6.02932 3.30445 6 3.40112 6 3.50001V13.5C6 13.5989 6.02933 13.6956 6.08427 13.7778C6.13921 13.86 6.21729 13.9241 6.30865 13.9619C6.40001 13.9998 6.50054 14.0097 6.59753 13.9904C6.69452 13.9711 6.78362 13.9235 6.85355 13.8536L11.8535 8.85358C11.9 8.80715 11.9368 8.75203 11.9619 8.69136C11.9871 8.6307 12 8.56567 12 8.50001C12 8.43434 11.9871 8.36932 11.9619 8.30865C11.9368 8.24799 11.9 8.19286 11.8535 8.14643Z" fill="#454849"/>
</svg>
