<svg width="17" height="17" viewBox="0 0 17 17" fill="none" xmlns="http://www.w3.org/2000/svg">
<path d="M8.50004 15.1666C12.1819 15.1666 15.1667 12.1818 15.1667 8.49992C15.1667 4.81802 12.1819 1.83325 8.50004 1.83325C4.81814 1.83325 1.83337 4.81802 1.83337 8.49992C1.83337 12.1818 4.81814 15.1666 8.50004 15.1666Z" stroke="#959899" stroke-width="1.2" stroke-linecap="round" stroke-linejoin="round"/>
<path d="M6.56006 6.49989C6.71679 6.05434 7.02616 5.67863 7.43336 5.43931C7.84056 5.2 8.31932 5.11252 8.78484 5.19237C9.25036 5.27222 9.6726 5.51424 9.97678 5.87558C10.281 6.23691 10.4474 6.69424 10.4467 7.16656C10.4467 8.49989 8.44673 9.16656 8.44673 9.16656" stroke="#959899" stroke-width="1.2" stroke-linecap="round" stroke-linejoin="round"/>
<path d="M8.5 11.8333H8.50667" stroke="#959899" stroke-width="1.5" stroke-linecap="round" stroke-linejoin="round"/>
</svg>
