<svg width="192" height="192" viewBox="0 0 192 192" fill="none" xmlns="http://www.w3.org/2000/svg">
<circle cx="96" cy="96" r="95.5" fill="#06C755" stroke="url(#paint0_linear_21_296)"/>
<g clip-path="url(#clip0_21_296)">
<path d="M137.789 111.1H120.004C119.334 111.1 118.794 110.56 118.794 109.889V109.871V82.2827V82.253C118.794 81.5884 119.34 81.0483 120.004 81.0483H137.789C138.454 81.0483 139 81.5943 139 82.2589V86.7512C139 87.4218 138.46 87.9618 137.789 87.9618H125.701V92.6262H137.789C138.454 92.6262 139 93.1721 139 93.8368V98.329C139 98.9996 138.46 99.5396 137.789 99.5396H125.701V104.204H137.789C138.454 104.204 139 104.75 139 105.415V109.907C139 110.577 138.46 111.117 137.789 111.117V111.1Z" fill="white"/>
<path d="M71.9957 111.1C72.6604 111.1 73.2063 110.56 73.2063 109.889V105.397C73.2063 104.732 72.6604 104.186 71.9957 104.186H59.9075V82.2589C59.9075 81.5943 59.3616 81.0483 58.6969 81.0483H54.2106C53.54 81.0483 53 81.5884 53 82.2589V109.871V109.895C53 110.566 53.54 111.106 54.2106 111.106H71.9957V111.1Z" fill="white"/>
<path d="M82.7014 81.0483H78.2151C77.5465 81.0483 77.0045 81.5903 77.0045 82.2589V109.889C77.0045 110.558 77.5465 111.1 78.2151 111.1H82.7014C83.37 111.1 83.912 110.558 83.912 109.889V82.2589C83.912 81.5903 83.37 81.0483 82.7014 81.0483Z" fill="white"/>
<path d="M113.269 81.0483H108.776C108.106 81.0483 107.566 81.5884 107.566 82.2589V98.6673L94.9317 81.5943C94.9021 81.5528 94.8664 81.5112 94.8368 81.4697C94.8368 81.4697 94.8368 81.4697 94.8308 81.4637C94.8071 81.44 94.7834 81.4103 94.7596 81.3866C94.7537 81.3807 94.7418 81.3747 94.7359 81.3688C94.7122 81.351 94.6944 81.3332 94.6706 81.3154C94.6587 81.3094 94.6469 81.2976 94.635 81.2916C94.6172 81.2738 94.5935 81.262 94.5697 81.2501C94.5579 81.2442 94.546 81.2323 94.5341 81.2264C94.5104 81.2145 94.4926 81.2026 94.4688 81.1908C94.457 81.1848 94.4451 81.1789 94.4332 81.173C94.4095 81.1611 94.3858 81.1492 94.362 81.1433C94.3502 81.1433 94.3383 81.1314 94.3205 81.1314C94.2968 81.1255 94.273 81.1136 94.2493 81.1077C94.2374 81.1077 94.2196 81.1017 94.2077 81.0958C94.184 81.0958 94.1603 81.0839 94.1365 81.078C94.1187 81.078 94.1009 81.078 94.0831 81.0721C94.0594 81.0721 94.0416 81.0661 94.0178 81.0661C93.9941 81.0661 93.9763 81.0661 93.9526 81.0661C93.9407 81.0661 93.9229 81.0661 93.911 81.0661H89.4484C88.7838 81.0661 88.2378 81.6062 88.2378 82.2767V109.907C88.2378 110.572 88.7778 111.117 89.4484 111.117H93.9407C94.6113 111.117 95.1513 110.577 95.1513 109.907V93.4985L107.809 110.595C107.898 110.72 108.005 110.821 108.124 110.898C108.124 110.898 108.136 110.904 108.136 110.91C108.159 110.928 108.183 110.939 108.213 110.957C108.225 110.963 108.236 110.969 108.248 110.975C108.266 110.987 108.29 110.993 108.308 111.005C108.325 111.017 108.349 111.023 108.367 111.028C108.379 111.028 108.391 111.04 108.403 111.04C108.432 111.052 108.456 111.058 108.486 111.064C108.486 111.064 108.498 111.064 108.503 111.064C108.604 111.088 108.711 111.106 108.818 111.106H113.281C113.945 111.106 114.491 110.566 114.491 109.895V82.2589C114.491 81.5943 113.951 81.0483 113.281 81.0483H113.269Z" fill="white"/>
</g>
<defs>
<linearGradient id="paint0_linear_21_296" x1="177.5" y1="173.5" x2="23.5" y2="19" gradientUnits="userSpaceOnUse">
<stop stop-color="white"/>
<stop offset="1" stop-color="white" stop-opacity="0"/>
</linearGradient>
<clipPath id="clip0_21_296">
<rect width="86" height="30.0513" fill="white" transform="translate(53 81.0483)"/>
</clipPath>
</defs>
</svg>
