<svg width="192" height="192" viewBox="0 0 192 192" fill="none" xmlns="http://www.w3.org/2000/svg">
<circle cx="96" cy="96" r="95.5" fill="#326CFE" stroke="url(#paint0_linear_21_246)"/>
<g clip-path="url(#clip0_21_246)">
<path d="M101.797 87.6643C100.904 85.9513 99.1163 84.0149 95.3179 84.0149C92.8601 84.0149 91.147 85.0576 90.1043 86.1003V84.6852C90.1043 84.5362 89.9554 84.4618 89.8809 84.4618H86.5294C86.3804 84.4618 86.3059 84.6107 86.3059 84.6852V112.987C86.3059 113.136 86.4549 113.211 86.5294 113.211H90.1788C90.3278 113.211 90.4023 113.062 90.4023 112.987V103.379C91.5194 104.348 93.0835 105.241 95.3923 105.241C99.1907 105.241 100.978 103.305 101.872 101.592C102.766 99.8044 102.84 97.9424 102.84 97.57V91.8352C102.766 91.3883 102.691 89.4518 101.797 87.6643ZM98.5204 97.719C98.5204 98.6127 97.9246 101.592 94.4241 101.592C90.9236 101.592 90.3278 98.5382 90.3278 97.719V91.6117C90.3278 90.718 90.9236 87.7388 94.4241 87.7388C97.9246 87.7388 98.5204 90.7925 98.5204 91.6117V97.719Z" fill="white"/>
<path d="M46.981 91.7607C46.981 91.3883 47.0555 89.5263 48.0237 87.7388C48.9919 86.0258 51.0773 84.0894 55.2481 84.0894C59.4189 84.0894 61.5043 86.0258 62.4725 87.7388C63.5152 89.5263 63.5152 91.3883 63.5152 91.7607V97.4955C63.5152 97.8679 63.4408 99.7299 62.4725 101.517C61.5043 103.23 59.4934 105.167 55.2481 105.167C51.0773 105.167 48.9919 103.23 48.0237 101.517C46.981 99.7299 46.981 97.8679 46.981 97.4955V91.7607ZM51.1518 97.6445C51.1518 98.5382 51.7476 101.517 55.2481 101.517C58.7486 101.517 59.4189 98.4637 59.4189 97.6445V91.5372C59.4189 90.6435 58.8231 87.6643 55.2481 87.6643C51.6731 87.6643 51.1518 90.718 51.1518 91.5372V97.6445Z" fill="white"/>
<path d="M82.9543 84.6851C82.9543 84.5361 82.8798 84.4617 82.7309 84.4617H79.0814C78.9325 84.4617 78.858 84.6106 78.858 84.6851V97.6444C78.858 98.5381 78.2622 101.517 74.7617 101.517C71.2612 101.517 70.5909 98.4637 70.5909 97.6444V84.6851C70.5909 84.5361 70.4419 84.4617 70.3674 84.4617H66.718C66.569 84.4617 66.4945 84.6106 66.4945 84.6851V97.4954C66.4945 97.8678 66.4945 99.7298 67.4628 101.517C68.3565 103.23 70.144 105.167 73.9424 105.167C75.2085 105.167 76.2512 104.943 77.0705 104.496C77.8898 104.124 78.6346 103.603 79.1559 103.081V104.496C79.1559 104.645 79.3049 104.72 79.3793 104.72H82.7309C82.8798 104.72 82.9543 104.571 82.9543 104.496V84.6851Z" fill="white"/>
<path d="M120.939 91.5372C120.939 89.8986 120.119 86.1002 116.47 84.6106C112.895 83.1211 108.203 84.7596 106.713 85.3554L106.415 85.5044C106.266 85.5789 106.192 85.7278 106.266 85.8768L107.309 88.8559C107.383 89.0049 107.458 89.0794 107.607 89.0049C107.681 89.0049 107.681 88.9304 107.756 88.9304C109.171 88.1856 112.82 86.994 115.055 88.0367C117.289 89.0794 117.066 91.3882 117.066 91.6861V92.282C116.023 91.5372 114.533 90.7924 112.373 90.7179C108.575 90.7179 106.788 92.5799 105.894 94.1439C105 95.8569 104.926 97.6444 104.926 97.9423C104.926 98.3147 105 100.102 105.894 101.741C106.788 103.379 108.575 105.167 112.373 105.167C114.608 105.167 116.097 104.347 117.215 103.528V104.496C117.215 104.645 117.364 104.72 117.438 104.72H120.641C120.79 104.72 120.864 104.571 120.864 104.496V91.6116C120.914 91.6116 120.939 91.5868 120.939 91.5372ZM117.066 98.0168C117.066 98.8361 116.47 101.666 113.044 101.666C109.618 101.666 109.022 98.8361 109.022 98.0168V97.7189C109.022 96.8996 109.618 94.0694 113.044 94.0694C116.47 94.0694 117.066 96.8996 117.066 97.7189V98.0168Z" fill="white"/>
<path d="M162.125 84.1638C159.965 84.0894 158.625 84.9831 157.731 85.9513C156.539 84.9086 154.677 84.0894 151.847 84.0894C147.676 84.0894 145.591 85.9513 144.623 87.5899C143.58 89.3029 143.58 91.0903 143.58 91.4627V91.6862C143.58 92.0586 143.654 93.8461 144.623 95.5591C145.07 96.3039 145.74 97.0486 146.708 97.7189C145.144 98.6127 143.729 100.251 143.729 103.156V104.72C143.729 104.869 143.878 105.018 143.952 105.018H155.943C157.359 105.018 158.103 105.986 158.327 106.88C158.55 107.997 158.178 109.487 156.241 110.529L156.092 110.604C155.943 110.678 155.943 110.827 156.018 110.976L157.656 113.881C157.731 114.03 157.88 114.03 158.029 113.955C158.029 113.955 158.848 113.434 159.146 113.285C159.444 113.136 159.667 112.913 159.891 112.689C161.976 110.753 162.349 108.146 161.902 106.061C161.306 103.23 158.923 101.592 155.943 101.592H147.676C148.123 99.0596 151.028 99.134 151.4 99.134H151.847C156.018 99.134 158.103 97.2721 159.072 95.6335C160.114 93.9205 160.114 92.133 160.114 91.7607V91.3883C160.114 91.0903 160.114 89.7497 159.444 88.3346C159.965 87.9622 160.859 87.5899 162.125 87.6643C162.274 87.6643 162.423 87.5154 162.423 87.4409V84.5362C162.423 84.3128 162.274 84.1638 162.125 84.1638ZM155.943 91.6117C155.943 92.431 155.348 95.2612 151.847 95.3356C148.272 95.3356 147.751 92.431 147.751 91.6117V91.3883C147.751 90.569 148.347 87.7388 151.847 87.6643C155.422 87.6643 155.943 90.569 155.943 91.3883V91.6117Z" fill="white"/>
<path d="M45.6405 100.847L42.4379 99.2085C42.289 99.134 42.14 99.2085 42.0655 99.3574V99.4319C41.5442 100.475 40.5015 101.592 38.3416 101.666C34.7666 101.666 34.2453 98.6127 34.2453 97.7934V91.6861C34.2453 90.7924 34.8411 87.8133 38.3416 87.8133C40.5015 87.8133 41.6187 89.0049 42.0655 90.0476C42.14 90.1221 42.2145 90.2711 42.3635 90.2711H42.5124L45.6405 88.6325C45.7895 88.558 45.7895 88.4091 45.715 88.2601C45.6405 88.1112 45.566 88.0367 45.566 87.8877C44.5978 86.1747 42.5869 84.2383 38.3416 84.2383C34.1708 84.2383 32.0854 86.1747 31.1172 87.8877C30.0745 89.4518 30 91.3882 30 91.7606V97.4955C30 97.8679 30.0745 99.7298 31.0427 101.517C32.0109 103.23 34.0218 105.167 38.2671 105.167H38.3416C42.5124 105.167 44.5978 103.23 45.566 101.517L45.7895 101.145C45.7895 101.07 45.715 100.921 45.6405 100.847Z" fill="white"/>
<path d="M139.782 87.6643C138.888 85.9513 137.026 84.0149 133.302 84.0149C130.844 84.0149 129.206 85.0576 128.088 86.1003V84.6852C128.088 84.5362 127.939 84.4618 127.865 84.4618H124.513C124.365 84.4618 124.29 84.6107 124.29 84.6852V104.571C124.29 104.72 124.439 104.794 124.513 104.794H128.163C128.312 104.794 128.386 104.645 128.386 104.571V91.3883C128.461 90.3456 129.206 87.7388 132.483 87.6643C136.058 87.6643 136.654 90.718 136.654 91.5372V104.571C136.654 104.72 136.802 104.794 136.877 104.794H140.526C140.675 104.794 140.75 104.645 140.75 104.571V91.7607C140.75 91.3883 140.75 89.4518 139.782 87.6643Z" fill="white"/>
</g>
<defs>
<linearGradient id="paint0_linear_21_246" x1="177.5" y1="173.5" x2="23.5" y2="19" gradientUnits="userSpaceOnUse">
<stop stop-color="white"/>
<stop offset="1" stop-color="white" stop-opacity="0"/>
</linearGradient>
<clipPath id="clip0_21_246">
<rect width="132.423" height="30" fill="white" transform="translate(30 84)"/>
</clipPath>
</defs>
</svg>
