<svg width="192" height="192" viewBox="0 0 192 192" fill="none" xmlns="http://www.w3.org/2000/svg">
<circle cx="96" cy="96" r="95.5" fill="#004098" stroke="url(#paint0_linear_21_216)"/>
<g clip-path="url(#clip0_21_216)">
<path d="M38.098 90.3895C37.3822 90.3895 36.7576 90.7684 36.4032 91.3298V87.4807H32.4594V103.365H19.2944V100.488H15.3506V103.298L15.3576 103.393C15.3576 105.042 16.6944 106.382 18.3471 106.382H36.4032V103.575V93.4597C36.7576 94.0246 37.3822 94.4 38.098 94.4C39.2067 94.4 40.105 93.5018 40.105 92.393C40.105 91.2842 39.2067 90.386 38.098 90.386V90.3895Z" fill="white"/>
<path d="M64.656 91.1684L64.649 91.0737C64.649 89.4211 63.3122 88.0842 61.6595 88.0842H43.8385V91.0983H60.7122V93.5509H42.5894V96.5684H52.6665C52.4069 96.9053 52.2455 97.3263 52.2455 97.786C52.2455 98.2456 52.4174 98.6912 52.6946 99.0351H43.8385V102.049H60.7122V106.386H64.656V102.116L64.649 102.021C64.649 100.372 63.3122 99.0316 61.6595 99.0316H55.8104C56.0876 98.6877 56.2595 98.2562 56.2595 97.7825C56.2595 97.3088 56.0981 96.9053 55.8385 96.5649H65.9157V93.5474H64.6525V91.1649L64.656 91.1684Z" fill="white"/>
<path d="M147.506 91.1684L147.499 91.0737C147.499 89.4211 146.158 88.0842 144.509 88.0842H126.688V91.0983H143.562V94.5825H137.52C137.748 94.2667 137.888 93.8842 137.888 93.4667C137.888 92.4141 137.035 91.5614 135.983 91.5614C134.93 91.5614 134.077 92.4141 134.077 93.4667C134.077 93.8842 134.214 94.2702 134.446 94.5825H125.442V97.6H133.27C132.274 98.5895 131.656 99.9579 131.656 101.47C131.656 104.481 134.099 106.923 137.109 106.923C140.12 106.923 142.562 104.481 142.562 101.47C142.562 99.9579 141.944 98.5895 140.948 97.6H148.772V94.5825H147.509V91.1684H147.506ZM137.109 103.4C136.042 103.4 135.179 102.537 135.179 101.47C135.179 100.404 136.042 99.5404 137.109 99.5404C138.176 99.5404 139.039 100.404 139.039 101.47C139.039 102.537 138.176 103.4 137.109 103.4Z" fill="white"/>
<path d="M73.5859 98.4071L77.9753 91.0913L82.3367 98.4H86.2771L81.9192 91.0913H85.849V88.0737H70.0806V91.0913H74.035L69.6455 98.4071H73.5859Z" fill="white"/>
<path d="M92.4876 87.4807H88.5437V92.6456C88.1894 92.0807 87.5648 91.7053 86.849 91.7053C85.7402 91.7053 84.8455 92.6035 84.8455 93.7123C84.8455 94.8211 85.7437 95.7158 86.849 95.7158C87.5648 95.7158 88.1894 95.3369 88.5437 94.7754V103.368H75.3788V100.081H71.4385V103.298L71.4455 103.393C71.4455 105.042 72.7823 106.382 74.435 106.382H88.5437V106.389H92.4876V106.382V103.365V87.4807Z" fill="white"/>
<path d="M116.645 90.0105C116.305 89.4912 115.719 89.1474 115.052 89.1474C114 89.1474 113.147 90 113.147 91.0526C113.147 92.1053 114 92.9579 115.052 92.9579C115.719 92.9579 116.305 92.614 116.645 92.0947V94.6667C116.305 94.1474 115.719 93.8035 115.052 93.8035C114 93.8035 113.147 94.6562 113.147 95.7088C113.147 96.7614 114 97.614 115.052 97.614C115.719 97.614 116.305 97.2702 116.645 96.7509V99.5298H99.561V102.544H116.645V106.389H120.589V87.4807H116.645V90.0105Z" fill="white"/>
<path d="M175.993 91.6877C175.277 91.6877 174.653 92.0667 174.298 92.6281V87.4807H170.358V106.389H174.298V94.7579C174.653 95.3228 175.277 95.6983 175.993 95.6983C177.102 95.6983 178 94.8 178 93.6912C178 92.5825 177.102 91.6842 175.993 91.6842V91.6877Z" fill="white"/>
<path d="M17.0526 95.6632C17.0526 98.3298 19.214 100.491 21.8807 100.491C24.5474 100.491 26.7088 98.3298 26.7088 95.6632C26.7088 94.4632 26.2702 93.3684 25.5439 92.5228H29.7614V89.4982H22.9193C23.4386 89.1579 23.786 88.5719 23.786 87.9053C23.786 86.8526 22.9333 86 21.8807 86C20.8281 86 19.9754 86.8526 19.9754 87.9053C19.9754 88.5719 20.3193 89.1579 20.8421 89.4982H14V92.5228H18.2175C17.4947 93.3684 17.0526 94.4632 17.0526 95.6632ZM21.8807 97.3719C20.9368 97.3719 20.1719 96.607 20.1719 95.6632C20.1719 94.7193 20.9368 93.9544 21.8807 93.9544C22.8246 93.9544 23.5895 94.7193 23.5895 95.6632C23.5895 96.607 22.8246 97.3719 21.8807 97.3719Z" fill="white"/>
<path d="M161.979 88.0771H159.621H158.035L152.46 97.6035H156.404L160.793 90.0982L165.151 97.5964H169.095L163.562 88.0771H161.979Z" fill="white"/>
<path d="M101.207 98.3964H112.481V95.6104H102.155V94.6279H112.474V93.9753H112.481V91.1648L112.474 91.07L112.467 90.8665C112.467 89.3262 111.221 88.0806 109.681 88.0806H109.484H108.105H98.2107V90.8665H108.537V91.8455H98.2002V94.6279H98.2072V95.3121L98.2142 95.4069L98.2212 95.6104C98.2212 97.1507 99.4669 98.3964 101.007 98.3964H101.204H101.207Z" fill="white"/>
</g>
<defs>
<linearGradient id="paint0_linear_21_216" x1="177.5" y1="173.5" x2="23.5" y2="19" gradientUnits="userSpaceOnUse">
<stop stop-color="white"/>
<stop offset="1" stop-color="white" stop-opacity="0"/>
</linearGradient>
<clipPath id="clip0_21_216">
<rect width="164" height="22" fill="white" transform="translate(14 85)"/>
</clipPath>
</defs>
</svg>
