<svg width="124" height="121" viewBox="0 0 124 121" fill="none" xmlns="http://www.w3.org/2000/svg">
<circle cx="53.4753" cy="53.4753" r="53.4753" transform="matrix(-0.990288 0.139032 0.139032 0.990288 108.912 0.0306845)" fill="#1774FF"/>
<path d="M41.896 80.8764L36.1477 84.5763L43.0909 89.3872L43.8875 95.061L48.4748 96.8277L50.1087 91.2948L48.9138 82.784L41.896 80.8764Z" fill="#8CFF00"/>
<path fill-rule="evenodd" clip-rule="evenodd" d="M75.6689 35.3726L60.4726 34.7119L58.3652 31.6547L50.6852 32.733L44.5639 36.9454L40.1753 37.5616L36.1714 40.9179L35.7667 46.0043L31.522 51.6299L32.7531 60.3985L38.4597 65.1858L54.917 62.8753L60.5467 67.1145L62.0856 78.0753L67.5514 85.1318L68.1669 89.5161L73.7966 93.7553L80.9281 92.7541L87.1363 85.1764L84.2595 76.6387L87.3301 70.6192L87.5808 64.4367L93.9529 54.0417L84.734 44.1591L87.8815 38.6876L97.592 40.1185L103.626 39.2713L108.871 40.7703L114.558 53.3842L116.64 53.5046C116.62 53.3477 116.598 53.1908 116.576 53.0338C112.557 24.4072 86.5684 4.2748 58.0425 7.28442L50.5042 11.5223L50.0226 16.0606L53.7757 18.8868L62.409 12.6451L64.9111 14.5292L64.1787 25.2501L74.4378 26.604L75.6689 35.3726Z" fill="#8CFF00"/>
<g filter="url(#filter0_b_1865_16937)">
<rect y="43.6656" width="107.544" height="23.9907" transform="rotate(-14.0478 0 43.6656)" fill="url(#paint0_linear_1865_16937)" fill-opacity="0.6"/>
</g>
<path d="M14.7714 47.0632C14.8046 46.9371 14.9639 46.8973 15.0526 46.9929L17.509 49.6388C17.5303 49.6618 17.5577 49.6782 17.588 49.6862L21.079 50.607C21.2051 50.6403 21.2449 50.7995 21.1493 50.8883L18.5034 53.3446C18.4804 53.3659 18.464 53.3934 18.456 53.4237L17.5352 56.9146C17.5019 57.0407 17.3427 57.0806 17.2539 56.985L14.7976 54.3391C14.7763 54.3161 14.7488 54.2996 14.7185 54.2916L11.2276 53.3708C11.1015 53.3376 11.0616 53.1783 11.1572 53.0896L13.8031 50.6332C13.8261 50.6119 13.8426 50.5845 13.8506 50.5542L14.7714 47.0632Z" fill="white"/>
<path d="M76.7311 38.4585C76.7029 38.3457 76.6491 38.2509 76.57 38.1741C76.49 38.0941 76.3607 38.0366 76.182 38.0013C76.0064 37.9653 75.7572 37.9544 75.4343 37.9686C75.1498 37.9765 74.8845 37.9679 74.6384 37.9429C74.3946 37.9139 74.1779 37.8599 73.9882 37.7807C73.7985 37.7016 73.6394 37.5915 73.5108 37.4505C73.3823 37.3094 73.2913 37.1323 73.238 36.9192C73.1862 36.7123 73.1826 36.505 73.2273 36.2973C73.2719 36.0896 73.3612 35.894 73.4952 35.7106C73.6292 35.5271 73.8067 35.3645 74.0277 35.2226C74.2518 35.0799 74.5143 34.9709 74.8153 34.8956C75.2416 34.7889 75.6249 34.7696 75.965 34.8377C76.3075 34.9019 76.5909 35.0359 76.8151 35.2396C77.0385 35.4402 77.1882 35.6926 77.2643 35.9967L76.1311 36.2802C76.0973 36.1454 76.0315 36.0286 75.9335 35.9299C75.8379 35.8273 75.7136 35.7567 75.5608 35.7184C75.4072 35.6769 75.2285 35.6816 75.0247 35.7326C74.8303 35.7812 74.6767 35.853 74.5639 35.9478C74.4534 36.0388 74.379 36.1407 74.3406 36.2535C74.3053 36.3656 74.3022 36.4797 74.3313 36.5956C74.3524 36.6803 74.3873 36.7532 74.4359 36.8143C74.4869 36.8715 74.5586 36.9185 74.6511 36.9553C74.7428 36.989 74.8619 37.0125 75.0085 37.0258C75.1582 37.0383 75.342 37.0406 75.5599 37.0327C75.969 37.017 76.3291 37.0385 76.6403 37.0972C76.9538 37.152 77.2109 37.2609 77.4116 37.4238C77.6115 37.5837 77.7494 37.8156 77.8255 38.1197C77.882 38.3454 77.8852 38.5645 77.8351 38.7769C77.7873 38.9854 77.6898 39.1814 77.5425 39.3648C77.3944 39.5451 77.2028 39.7046 76.9677 39.8434C76.7357 39.9814 76.463 40.0896 76.1495 40.168C75.6887 40.2833 75.278 40.2995 74.9174 40.2165C74.5561 40.1303 74.2602 39.9795 74.0298 39.764C73.8016 39.5446 73.6527 39.2954 73.5829 39.0164L74.6785 38.7423C74.7436 38.9492 74.8435 39.1024 74.9784 39.2019C75.1156 39.2975 75.2696 39.3539 75.4404 39.3711C75.6136 39.3844 75.7849 39.3698 75.9542 39.3275C76.1579 39.2765 76.3221 39.2071 76.4467 39.1193C76.5705 39.0284 76.6567 38.9268 76.7053 38.8148C76.7531 38.6995 76.7617 38.5808 76.7311 38.4585ZM78.4897 31.8076L80.2969 39.0303L79.1683 39.3127L77.3611 32.09L78.4897 31.8076ZM79.4158 36.3477L79.0479 36.4348C78.9631 36.0829 78.9305 35.7463 78.9501 35.425C78.9727 35.1028 79.0428 34.8105 79.1603 34.5479C79.2802 34.2814 79.4475 34.058 79.6622 33.8777C79.8761 33.6942 80.132 33.5653 80.4298 33.4907C80.6806 33.428 80.9149 33.406 81.1328 33.4248C81.3538 33.4427 81.5572 33.5101 81.743 33.6269C81.928 33.7405 82.0887 33.9101 82.2251 34.1358C82.3639 34.3576 82.4768 34.6424 82.5639 34.9904L83.3816 38.2585L82.2436 38.5432L81.4236 35.2657C81.3624 35.0212 81.2777 34.8359 81.1695 34.7097C81.0645 34.5828 80.9367 34.5048 80.7862 34.4759C80.6349 34.4437 80.4621 34.452 80.2678 34.5006C80.064 34.5516 79.8939 34.6375 79.7576 34.7582C79.6244 34.8782 79.5237 35.0216 79.4555 35.1886C79.3874 35.3555 79.3498 35.5381 79.3428 35.7364C79.3389 35.9339 79.3633 36.1377 79.4158 36.3477ZM83.6902 35.538L83.6632 35.4299C83.5714 35.0631 83.5396 34.7096 83.5677 34.3695C83.5951 34.0262 83.6801 33.7135 83.8227 33.4313C83.9676 33.1452 84.1698 32.9014 84.4291 32.6999C84.6909 32.4945 85.0067 32.3455 85.3766 32.253C85.7497 32.1596 86.0984 32.1423 86.4229 32.201C86.7497 32.2558 87.0445 32.3753 87.3071 32.5594C87.5689 32.7404 87.7927 32.9759 87.9785 33.2658C88.1635 33.5527 88.3019 33.8795 88.3937 34.2462L88.4207 34.3544C88.5125 34.7212 88.5443 35.0746 88.5162 35.4148C88.488 35.7549 88.4015 36.0681 88.2566 36.3542C88.1108 36.6371 87.9087 36.8809 87.6501 37.0855C87.3907 37.287 87.076 37.434 86.7061 37.5266C86.3331 37.6199 85.9831 37.6392 85.6563 37.5844C85.3318 37.5257 85.0387 37.4058 84.7769 37.2248C84.5143 37.0407 84.2905 36.8052 84.1054 36.5184C83.9204 36.2316 83.782 35.9048 83.6902 35.538ZM84.7964 35.1463L84.8235 35.2545C84.8807 35.4833 84.9584 35.6937 85.0564 35.8857C85.1544 36.0777 85.2728 36.238 85.4115 36.3665C85.5503 36.495 85.709 36.5835 85.8877 36.6321C86.0664 36.6807 86.2639 36.6779 86.4802 36.6238C86.6903 36.5712 86.8611 36.4818 86.9927 36.3556C87.1275 36.2286 87.2259 36.0758 87.2877 35.897C87.3496 35.7183 87.3786 35.5212 87.3746 35.3057C87.3738 35.0894 87.3447 34.8668 87.2875 34.6379L87.2604 34.5298C87.2039 34.3041 87.1255 34.0972 87.0252 33.9091C86.9272 33.7171 86.8068 33.5557 86.6642 33.4248C86.5246 33.2932 86.3655 33.2031 86.1868 33.1545C86.0104 33.102 85.8157 33.1025 85.6025 33.1558C85.3893 33.2092 85.2158 33.3009 85.0818 33.431C84.9501 33.5572 84.8537 33.7113 84.7926 33.8931C84.7316 34.0749 84.703 34.2736 84.7069 34.4892C84.7101 34.7016 84.74 34.9206 84.7964 35.1463ZM90.1003 32.2003L91.131 36.3195L89.9977 36.6031L88.7247 31.5152L89.8062 31.2446L90.1003 32.2003ZM91.4061 30.8093L91.6603 31.8649C91.5882 31.8696 91.5106 31.8791 91.4275 31.8932C91.3476 31.9065 91.2684 31.923 91.19 31.9426C90.9957 31.9912 90.8319 32.0622 90.6987 32.1555C90.5647 32.2457 90.4604 32.355 90.386 32.4836C90.3139 32.6082 90.2693 32.7493 90.2521 32.9068C90.2349 33.0644 90.2439 33.2336 90.2792 33.4147L90.0253 33.4982C89.9453 33.1785 89.9025 32.8744 89.897 32.5859C89.8914 32.2975 89.9255 32.0342 89.9991 31.7959C90.0759 31.5568 90.1953 31.3554 90.3575 31.1916C90.5229 31.0269 90.7325 30.9129 90.9864 30.8493C91.0554 30.8321 91.1306 30.8199 91.2121 30.8128C91.2968 30.805 91.3614 30.8038 91.4061 30.8093ZM94.6919 30.0221L94.8989 30.8497L92.0305 31.5674L91.8235 30.7398L94.6919 30.0221ZM92.3393 29.2866L93.4725 29.0031L94.7056 33.9311C94.7448 34.0878 94.7969 34.203 94.862 34.2767C94.9294 34.3464 95.0074 34.3852 95.096 34.393C95.1845 34.4008 95.2837 34.391 95.3934 34.3636C95.4718 34.344 95.5458 34.3204 95.6156 34.293C95.6853 34.2655 95.741 34.2416 95.7825 34.2212L96.0037 35.0853C95.9167 35.137 95.8133 35.1896 95.6934 35.2429C95.5766 35.2954 95.4383 35.3417 95.2784 35.3817C95.0182 35.4468 94.7764 35.459 94.553 35.4183C94.3289 35.3744 94.1341 35.2616 93.9687 35.0798C93.8033 34.898 93.677 34.6331 93.59 34.2852L92.3393 29.2866ZM99.3491 32.7992C99.3209 32.6863 99.2671 32.5915 99.188 32.5147C99.108 32.4348 98.9787 32.3772 98.8 32.342C98.6244 32.3059 98.3752 32.295 98.0523 32.3092C97.7678 32.3171 97.5025 32.3085 97.2564 32.2835C97.0126 32.2545 96.7959 32.2005 96.6062 32.1214C96.4165 32.0423 96.2574 31.9322 96.1288 31.7911C96.0003 31.6501 95.9093 31.473 95.856 31.2598C95.8042 31.0529 95.8006 30.8456 95.8453 30.6379C95.8899 30.4302 95.9792 30.2346 96.1132 30.0512C96.2472 29.8678 96.4247 29.7051 96.6457 29.5632C96.8698 29.4205 97.1323 29.3115 97.4333 29.2362C97.8596 29.1295 98.2429 29.1103 98.583 29.1784C98.9255 29.2426 99.2089 29.3765 99.4331 29.5803C99.6565 29.7809 99.8062 30.0332 99.8823 30.3373L98.7491 30.6209C98.7153 30.4861 98.6495 30.3693 98.5515 30.2706C98.4559 30.1679 98.3316 30.0974 98.1788 30.059C98.0252 30.0175 97.8465 30.0222 97.6427 30.0732C97.4483 30.1219 97.2947 30.1936 97.1819 30.2885C97.0714 30.3794 96.997 30.4813 96.9586 30.5942C96.9233 30.7063 96.9202 30.8203 96.9492 30.9363C96.9704 31.0209 97.0053 31.0938 97.0539 31.1549C97.1049 31.2121 97.1766 31.2591 97.2691 31.296C97.3608 31.3296 97.4799 31.3531 97.6265 31.3664C97.7762 31.3789 97.96 31.3813 98.1779 31.3734C98.587 31.3576 98.9471 31.3791 99.2583 31.4378C99.5718 31.4926 99.8289 31.6015 100.03 31.7645C100.229 31.9243 100.367 32.1563 100.444 32.4604C100.5 32.6861 100.503 32.9051 100.453 33.1175C100.405 33.326 100.308 33.522 100.16 33.7054C100.012 33.8857 99.8208 34.0452 99.5857 34.184C99.3537 34.322 99.081 34.4302 98.7675 34.5087C98.3067 34.624 97.896 34.6401 97.5354 34.5571C97.1741 34.471 96.8782 34.3202 96.6478 34.1047C96.4196 33.8853 96.2707 33.6361 96.2009 33.3571L97.2965 33.0829C97.3616 33.2898 97.4615 33.443 97.5964 33.5425C97.7335 33.6381 97.8876 33.6945 98.0584 33.7117C98.2316 33.725 98.4029 33.7105 98.5722 33.6681C98.7759 33.6171 98.9401 33.5477 99.0647 33.4599C99.1885 33.369 99.2747 33.2675 99.3233 33.1554C99.3711 33.0402 99.3797 32.9214 99.3491 32.7992Z" fill="white"/>
<defs>
<filter id="filter0_b_1865_16937" x="-3.30906" y="14.2521" width="116.769" height="55.9957" filterUnits="userSpaceOnUse" color-interpolation-filters="sRGB">
<feFlood flood-opacity="0" result="BackgroundImageFix"/>
<feGaussianBlur in="BackgroundImageFix" stdDeviation="1.65453"/>
<feComposite in2="SourceAlpha" operator="in" result="effect1_backgroundBlur_1865_16937"/>
<feBlend mode="normal" in="SourceGraphic" in2="effect1_backgroundBlur_1865_16937" result="shape"/>
</filter>
<linearGradient id="paint0_linear_1865_16937" x1="110.745" y1="55.3684" x2="-2.71303" y2="47.0005" gradientUnits="userSpaceOnUse">
<stop stop-color="white"/>
<stop offset="0.0001" stop-color="white" stop-opacity="0.81"/>
<stop offset="1" stop-color="white" stop-opacity="0.1"/>
</linearGradient>
</defs>
</svg>
