<svg width="192" height="192" viewBox="0 0 192 192" fill="none" xmlns="http://www.w3.org/2000/svg">
<circle cx="96" cy="96" r="95.5" fill="url(#paint0_linear_21_200)" stroke="url(#paint1_linear_21_200)"/>
<g clip-path="url(#clip0_21_200)">
<path d="M40.08 85.1299C33.68 85.1299 29 90.1899 29 96.5999C29 103.01 33.68 107.91 40.08 107.91C43.64 107.91 47.01 106.31 49.23 103.53C48.99 103.3 48.38 101.99 46.31 101.99C44.36 101.99 43.93 103.94 40.08 103.94C36.23 103.94 33.19 100.74 33.19 96.5899C33.19 92.4399 36.31 89.0899 40.08 89.0899C43.52 89.0899 44.34 91.1299 46.11 91.1299C47.88 91.1299 48.91 89.7199 49.15 89.4899C46.93 86.7299 43.64 85.1299 40.08 85.1299Z" fill="white"/>
<path d="M62.67 85.7H53.67C52.15 85.7 51.08 86.62 51.08 88.07V89.4H55.1C55.1 89.4 55.25 102.96 55.08 104.43C55.02 105.56 54.54 108.23 51.96 109.44C49.84 110.43 49.82 111.38 49.71 112.85C49.74 112.96 49.79 113.02 49.84 113.02H49.85C49.85 113.02 49.87 113.02 49.88 113.02C49.96 113 51.98 112.5 52.28 112.38C54.18 111.78 57.09 110.48 58.49 107.78C58.49 107.78 59.79 105.78 59.76 101.48V89.39H59.95C61.47 89.39 62.69 88.48 62.69 87.03V85.7" fill="white"/>
<path d="M107.4 91.02C107.4 87.7 104.38 85 100.67 85C96.96 85 93.93 87.69 93.93 91.02C93.93 94.35 96.95 97.04 100.67 97.04C104.39 97.04 107.4 94.34 107.4 91.02ZM97.41 91.02C97.41 88.83 98.86 87.05 100.67 87.05C102.48 87.05 103.93 88.83 103.93 91.02C103.93 93.21 102.47 94.99 100.67 94.99C98.87 94.99 97.41 93.21 97.41 91.02Z" fill="white"/>
<path d="M153.27 97.27C149.66 97.27 146.74 99.88 146.74 103.09C146.74 106.3 149.66 108.91 153.27 108.91C156.88 108.91 159.79 106.31 159.79 103.09C159.79 99.87 156.87 97.27 153.27 97.27ZM153.27 106.83C151.51 106.83 150.1 105.16 150.1 103.09C150.1 101.02 151.51 99.36 153.27 99.36C155.03 99.36 156.43 101.03 156.43 103.09C156.43 105.15 155.02 106.83 153.27 106.83Z" fill="white"/>
<path d="M113.85 94.5699V85.4099H112.41C111.14 85.4099 110.45 86.1899 110.45 87.6099V96.7699H111.89C113.16 96.7699 113.85 95.9899 113.85 94.5699Z" fill="white"/>
<path d="M87.68 87.6099V107.59H89.13C90.4 107.59 91.09 106.81 91.09 105.39V85.4099H89.64C88.38 85.4099 87.68 86.1899 87.68 87.6099Z" fill="white"/>
<path d="M77.39 90.6699V88.5999H79.93C80.16 88.5999 81.07 88.5199 81.07 87.4599V86.3999H71.45C71.22 86.3999 70.32 86.4799 70.32 87.5399V88.5999H73.98V90.6699C73.9 93.2699 73.33 97.6599 69.14 100.96C69.14 100.96 69.7 101.43 70.15 101.74C70.6 102.05 71.62 102.28 72.22 101.74C73.17 100.88 74.6 99.3599 75.69 97.2399C76.78 99.3599 78.22 100.88 79.16 101.74C79.76 102.28 80.77 102.05 81.23 101.74C81.69 101.43 82.24 100.96 82.24 100.96C78.05 97.6599 77.47 93.2699 77.39 90.6699Z" fill="white"/>
<path d="M82.64 87.6099V92.0699H80.89C80.66 92.0699 79.75 92.1499 79.75 93.2199V94.2799H82.63V107.59H84.07C85.34 107.59 86.03 106.81 86.03 105.39V85.4099H84.58C83.31 85.4099 82.62 86.1899 82.62 87.6099" fill="white"/>
<path d="M135.18 87.6099V107.59H136.62C137.89 107.59 138.59 106.81 138.59 105.39V85.4099H137.14C135.87 85.4099 135.18 86.1899 135.18 87.6099Z" fill="white"/>
<path d="M124.89 90.6699V88.5999H127.43C127.66 88.5999 128.57 88.5199 128.57 87.4599V86.3999H118.96C118.72 86.3999 117.82 86.4799 117.82 87.5399V88.5999H121.49V90.6699C121.41 93.2699 120.84 97.6599 116.65 100.96C116.65 100.96 117.2 101.43 117.66 101.74C118.11 102.05 119.13 102.28 119.73 101.74C120.68 100.88 122.11 99.3599 123.2 97.2399C124.29 99.3599 125.72 100.88 126.67 101.74C127.27 102.28 128.28 102.05 128.74 101.74C129.2 101.43 129.75 100.96 129.75 100.96C125.56 97.6599 124.98 93.2699 124.9 90.6699" fill="white"/>
<path d="M130.14 87.6099V92.0699H128.39C128.16 92.0699 127.25 92.1499 127.25 93.2199V94.2799H130.14V107.59H131.58C132.85 107.59 133.54 106.81 133.54 105.39V85.4099H132.1C130.83 85.4099 130.14 86.1899 130.14 87.6099Z" fill="white"/>
<path d="M101.19 103.71H111.6C112.84 103.71 113.85 102.81 113.85 101.7V97.8501H98.92C98.69 97.8501 97.78 97.9301 97.78 98.9901V100.04H110.45V101.5H99.74C98.47 101.5 97.78 102.28 97.78 103.7V107.56H112.93C113.17 107.56 114.07 107.48 114.07 106.42V105.37H101.19V103.7V103.71Z" fill="white"/>
<path d="M162.07 92.5899C162.3 92.5899 163.21 92.5099 163.21 91.4499V90.3999H159.72V85.4099H158.27C157 85.4099 156.31 86.1899 156.31 87.6099V93.6399C153.87 94.1799 151.04 94.3399 149.7 94.3699H145.59V88.5199H152.3C152.53 88.5199 153.44 88.4299 153.44 87.3699V86.3199H142.19V94.5699C142.19 95.6799 143.2 96.5799 144.44 96.5799H147.1C151.55 96.5799 154.34 96.1099 156.3 95.5499V97.4499H157.75C159.02 97.4499 159.71 96.6699 159.71 95.2499V92.6199L162.06 92.6099L162.07 92.5899Z" fill="white"/>
</g>
<defs>
<linearGradient id="paint0_linear_21_200" x1="96" y1="0" x2="96" y2="192" gradientUnits="userSpaceOnUse">
<stop stop-color="#EA8B00"/>
<stop offset="1" stop-color="#E07F25"/>
</linearGradient>
<linearGradient id="paint1_linear_21_200" x1="177.5" y1="173.5" x2="23.5" y2="19" gradientUnits="userSpaceOnUse">
<stop stop-color="white"/>
<stop offset="1" stop-color="white" stop-opacity="0"/>
</linearGradient>
<clipPath id="clip0_21_200">
<rect width="134" height="28" fill="white" transform="translate(29 85)"/>
</clipPath>
</defs>
</svg>
