<svg width="20" height="21" viewBox="0 0 20 21" fill="none" xmlns="http://www.w3.org/2000/svg">
<g id="icon / outlined / editor / action / edit">
<path id="Vector" d="M14.1667 3.00005C14.3856 2.78118 14.6455 2.60756 14.9314 2.48911C15.2174 2.37066 15.5239 2.30969 15.8334 2.30969C16.1429 2.30969 16.4494 2.37066 16.7354 2.48911C17.0214 2.60756 17.2812 2.78118 17.5001 3.00005C17.719 3.21892 17.8926 3.47875 18.011 3.76472C18.1295 4.05069 18.1904 4.35719 18.1904 4.66671C18.1904 4.97624 18.1295 5.28274 18.011 5.56871C17.8926 5.85468 17.719 6.11451 17.5001 6.33338L6.25008 17.5834L1.66675 18.8334L2.91675 14.25L14.1667 3.00005Z" stroke="#252829" stroke-width="1.5" stroke-linecap="round" stroke-linejoin="round"/>
</g>
</svg>
