<svg width="9" height="16" viewBox="0 0 9 16" fill="none" xmlns="http://www.w3.org/2000/svg">
<path d="M0.0107422 7.99707C0.0107422 8.15527 0.0400391 8.30176 0.0986328 8.43652C0.157227 8.57129 0.250977 8.7002 0.379883 8.82324L6.81348 15.125C7.0127 15.3242 7.25879 15.4238 7.55176 15.4238C7.75098 15.4238 7.92969 15.377 8.08789 15.2832C8.24609 15.1895 8.37207 15.0605 8.46582 14.8965C8.56543 14.7383 8.61523 14.5625 8.61523 14.3691C8.61523 14.082 8.50391 13.8271 8.28125 13.6045L2.52441 7.99707L8.28125 2.38965C8.50391 2.16699 8.61523 1.91211 8.61523 1.625C8.61523 1.42578 8.56543 1.24707 8.46582 1.08887C8.37207 0.930664 8.24609 0.807617 8.08789 0.719727C7.92969 0.625977 7.75098 0.579102 7.55176 0.579102C7.25879 0.579102 7.0127 0.678711 6.81348 0.87793L0.379883 7.1709C0.250977 7.29395 0.157227 7.42285 0.0986328 7.55762C0.0400391 7.69238 0.0107422 7.83887 0.0107422 7.99707Z" fill="#2094FA"/>
</svg>
