<svg width="192" height="192" viewBox="0 0 192 192" fill="none" xmlns="http://www.w3.org/2000/svg">
<circle cx="96" cy="96" r="95.5" fill="url(#paint0_linear_21_33)" stroke="url(#paint1_linear_21_33)"/>
<g clip-path="url(#clip0_21_33)">
<path d="M29.9604 92.5913V89.8644C29.9604 89.8644 29.9604 89.8412 29.9604 89.8273C29.9604 88.9832 29.2508 88.3015 28.379 88.3015C28.3558 88.3015 28.3326 88.3061 28.3094 88.3061H15.3053V86.9612H12.0358V91.2093H13.6961C13.2277 91.9838 12.9494 92.8881 12.9494 93.8621C12.9494 96.691 15.245 98.9867 18.074 98.9867C20.903 98.9867 23.1987 96.691 23.1987 93.8621C23.1987 92.8974 22.9297 92.0023 22.4659 91.2325H26.6816V101.384H15.514V99.4319H12.379V102.706H12.3836C12.3836 103.643 13.019 104.403 13.7981 104.403H29.9511V95.4945H32.2375V92.596H29.9511L29.9604 92.5913ZM18.074 96.2783C16.9053 96.2783 15.9546 95.3322 15.9546 94.1589C15.9546 92.9855 16.9007 92.0394 18.074 92.0394C19.2474 92.0394 20.1935 92.9902 20.1935 94.1589C20.1935 95.3276 19.2427 96.2783 18.074 96.2783Z" fill="white"/>
<path d="M52.9633 100.058C52.9633 99.1955 52.3002 98.4998 51.47 98.4441V98.4302H45.9419V96.2691H52.8381V89.883C52.8381 89.883 52.8474 89.8413 52.8474 89.8181C52.8474 89.0482 52.0915 88.4268 51.1593 88.4268H35.4654V91.316H49.6984V93.4772H35.2149V96.2737H42.2642V98.4349H35.2752V101.231H49.7912V104.251H52.9726V100.067L52.9633 100.058Z" fill="white"/>
<path d="M66.2915 89.5351C66.2915 88.8116 65.6051 88.2273 64.7564 88.2273C64.7564 88.2273 64.7471 88.2273 64.7425 88.2273H56.135V90.9914H63.0869V95.6244C62.2057 100.712 57.6283 100.299 55.8196 100.392V103.281C64.9976 103.819 66.2358 97.6603 66.2915 95.6198V89.5305V89.5351Z" fill="white"/>
<path d="M75.4423 88.1995H71.2916C71.2499 88.1995 71.2128 88.1902 71.171 88.1902C70.3084 88.1902 69.6128 88.8673 69.6128 89.7067C69.6128 89.7113 69.6128 89.716 69.6128 89.7253H69.6035V104.148H72.7154V91.0099H75.4377V88.2041L75.4423 88.1995Z" fill="white"/>
<path d="M77.705 100.461V103.318H95.37V100.461H77.705ZM86.5027 92.3918C87.4859 93.8851 90.6952 94.9657 92.6337 94.9657H95.0778V92.044H92.3787C89.3595 92.0115 88.2187 90.073 88.2187 89.0573C88.2187 88.0417 88.1862 87.6289 88.1862 87.6289H84.7219V89.1222C84.6569 90.9634 82.1155 92.0764 80.4969 92.0764C78.8784 92.0764 77.8303 92.1089 77.8303 92.1089V94.9704H80.3717C82.5329 94.9704 85.4871 93.8573 86.5027 92.3964V92.3918Z" fill="white"/>
<path d="M107.326 88.2318C107.326 88.2318 107.316 88.2318 107.312 88.2318H98.7042V90.9959H105.656V95.629C104.775 100.716 100.198 100.304 98.3889 100.396V103.286C107.571 103.824 108.81 97.6649 108.861 95.6243V89.535C108.861 88.8116 108.174 88.2272 107.33 88.2272L107.326 88.2318ZM112.288 87.833V103.94H115.4V87.833H112.288Z" fill="white"/>
<path d="M128.247 89.9756C129.072 91.149 130.756 91.7565 133.394 91.7565H137.049V89.1177H132.536C130.375 88.9275 129.962 86.7339 129.962 86.7339L126.47 86.7246C126.47 88.0278 124.912 89.113 123.771 89.113H119.389V91.7194C119.389 91.7194 121.995 91.7194 123.739 91.6869C125.487 91.6545 127.518 91.149 128.251 89.971L128.247 89.9756ZM137.457 94.8035V92.6423H118.874V94.8035H126.466V95.5965H119.509V97.6603H133.983V98.611H119.444V102.173C119.444 102.21 119.435 102.247 119.435 102.289C119.435 103.184 120.107 103.907 120.938 103.907V103.916H137.137V101.63H122.663V100.582H137.105V96.9461C137.095 96.1994 136.488 95.5965 135.741 95.5965H129.981V94.8035H137.457Z" fill="white"/>
<path d="M156.833 87.8701H140.74V90.7919H155.609V94.1588H150.313V91.789H146.714V94.1588H140.105V96.742H144.381C143.727 97.6046 143.347 98.6342 143.347 99.7426C143.347 102.757 146.162 105.201 149.64 105.201C153.118 105.201 155.933 102.757 155.933 99.7426C155.933 98.6342 155.553 97.6046 154.895 96.742H158.739V89.5536C158.739 88.3432 157.71 87.8701 156.829 87.8701H156.833ZM149.631 102.428C148.179 102.428 146.997 101.25 146.997 99.7936C146.997 98.3374 148.175 97.1594 149.631 97.1594C151.087 97.1594 152.26 98.3374 152.26 99.7936C152.26 101.25 151.082 102.428 149.631 102.428Z" fill="white"/>
<path d="M181.256 88.2366H176.678C176.678 88.2366 176.66 88.2366 176.651 88.2366C175.858 88.2366 175.218 89.0435 175.213 90.0406V99.3392C172.746 99.3577 169.564 96.9925 169.328 92.1044V88.385H165.965V90.9774C165.965 91.0238 165.961 91.0656 165.956 91.1119C165.645 97.0482 163.605 98.5786 160.238 99.4041L160.618 102.484C164.018 102.006 165.891 100.703 167.672 97.7485C168.985 100.475 171.818 102.609 175.213 102.697V104.264H178.547V90.9032H181.256V88.2227V88.2366Z" fill="white"/>
</g>
<defs>
<linearGradient id="paint0_linear_21_33" x1="96" y1="0" x2="96" y2="192" gradientUnits="userSpaceOnUse">
<stop stop-color="#007FBF"/>
<stop offset="1" stop-color="#004199"/>
</linearGradient>
<linearGradient id="paint1_linear_21_33" x1="177.5" y1="173.5" x2="23.5" y2="19" gradientUnits="userSpaceOnUse">
<stop stop-color="white"/>
<stop offset="1" stop-color="white" stop-opacity="0"/>
</linearGradient>
<clipPath id="clip0_21_33">
<rect width="171" height="32" fill="white" transform="translate(10 80)"/>
</clipPath>
</defs>
</svg>
