<svg width="192" height="192" viewBox="0 0 192 192" fill="none" xmlns="http://www.w3.org/2000/svg">
<circle cx="96" cy="96" r="95.5" fill="#03CF5D" stroke="url(#paint0_linear_21_229)"/>
<g clip-path="url(#clip0_21_229)">
<path d="M68.4224 83.9595L58.6377 108.908H66.9529L68.1355 105.605H77.5135L78.696 108.908H87.0113L77.2266 83.9595H68.4224ZM70.0365 99.6145L72.8257 91.8206L75.6149 99.6145H70.0365Z" fill="white"/>
<path d="M121.622 99.4298H132.993V93.4373H121.622V90.0743H133.116V83.9595H113.671V108.908H133.36V102.793H121.622V99.4298Z" fill="white"/>
<path d="M96.9183 100.363L91.0479 83.9595H82.7302L92.5149 108.908H101.319L111.104 83.9595H102.789L96.9183 100.363Z" fill="white"/>
<path d="M47.9997 97.3117L38.704 83.9595H31V108.908H39.0707V95.5554L48.3664 108.908H56.0704V83.9595H47.9997V97.3117Z" fill="white"/>
<path d="M154.693 100.348L155.449 100.031C158.348 98.8187 159.822 96.1916 159.822 92.8585C159.822 89.7076 158.672 87.3749 156.407 85.9279C154.299 84.5832 151.567 83.957 147.807 83.957H137.277V108.905H145.103V101.935H147.914L152.685 108.905H161L154.693 100.345V100.348ZM149.259 95.5754H144.978V90.3163H149.259C150.711 90.3163 151.889 91.4939 151.889 92.9459C151.889 94.3978 150.711 95.5754 149.259 95.5754Z" fill="white"/>
</g>
<defs>
<linearGradient id="paint0_linear_21_229" x1="177.5" y1="173.5" x2="23.5" y2="19" gradientUnits="userSpaceOnUse">
<stop stop-color="white"/>
<stop offset="1" stop-color="white" stop-opacity="0"/>
</linearGradient>
<clipPath id="clip0_21_229">
<rect width="130" height="24.9482" fill="white" transform="translate(31 83.9595)"/>
</clipPath>
</defs>
</svg>
