<svg width="27" height="26" viewBox="0 0 27 26" fill="none" xmlns="http://www.w3.org/2000/svg">
<path d="M24.0562 21.5299C22.5401 18.9187 20.1122 16.9602 17.2393 16.031C18.6156 15.2121 19.685 13.964 20.2832 12.4785C20.8815 10.9929 20.9755 9.35202 20.5509 7.80784C20.1262 6.26366 19.2064 4.90159 17.9326 3.93084C16.6588 2.96008 15.1016 2.43433 13.5001 2.43433C11.8986 2.43433 10.3414 2.96008 9.06763 3.93084C7.79387 4.90159 6.87402 6.26366 6.44936 7.80784C6.02471 9.35202 6.11873 10.9929 6.71698 12.4785C7.31523 13.964 8.38464 15.2121 9.76094 16.031C6.88815 16.9602 4.46028 18.9186 2.9442 21.5297C2.87274 21.6532 2.83506 21.7934 2.83496 21.936C2.83486 22.0787 2.87234 22.2189 2.94362 22.3425C3.01491 22.4661 3.11749 22.5688 3.24104 22.6402C3.36459 22.7115 3.50477 22.7491 3.64745 22.7491L23.3529 22.7493C23.4956 22.7493 23.6358 22.7117 23.7593 22.6404C23.8829 22.569 23.9855 22.4663 24.0568 22.3427C24.1281 22.2191 24.1655 22.0789 24.1654 21.9362C24.1653 21.7936 24.1276 21.6534 24.0562 21.5299L24.0562 21.5299Z" fill="#E5E8E9"/>
</svg>
