<svg width="23" height="21" viewBox="0 0 23 21" fill="none" xmlns="http://www.w3.org/2000/svg">
<path d="M22.056 19.5299C20.54 16.9187 18.112 14.9602 15.2392 14.031C16.6155 13.2121 17.6849 11.964 18.2831 10.4785C18.8814 8.99291 18.9754 7.35202 18.5507 5.80784C18.1261 4.26366 17.2062 2.90159 15.9325 1.93084C14.6587 0.96008 13.1015 0.434326 11.5 0.434326C9.89848 0.434326 8.34126 0.96008 7.06751 1.93084C5.79375 2.90159 4.8739 4.26366 4.44924 5.80784C4.02458 7.35202 4.1186 8.99291 4.71686 10.4785C5.31511 11.964 6.38452 13.2121 7.76082 14.031C4.88803 14.9602 2.46016 16.9186 0.94408 19.5297C0.872618 19.6532 0.834941 19.7934 0.834839 19.936C0.834737 20.0787 0.872214 20.2189 0.943499 20.3425C1.01478 20.4661 1.11736 20.5688 1.24092 20.6402C1.36447 20.7115 1.50464 20.7491 1.64733 20.7491L21.3528 20.7493C21.4955 20.7493 21.6357 20.7117 21.7592 20.6404C21.8828 20.569 21.9854 20.4663 22.0566 20.3427C22.1279 20.2191 22.1654 20.0789 22.1653 19.9362C22.1652 19.7936 22.1275 19.6534 22.056 19.5299L22.056 19.5299Z" fill="#E1E0E1"/>
</svg>
