<svg width="241" height="341" viewBox="0 0 241 341" fill="none" xmlns="http://www.w3.org/2000/svg">
<g clip-path="url(#clip0_210_114)">
<rect x="0.724609" y="167" width="240" height="174" fill="url(#paint0_linear_210_114)"/>
<rect x="0.724609" y="16" width="240" height="151" fill="url(#paint1_linear_210_114)"/>
</g>
<g filter="url(#filter0_b_210_114)">
<rect x="10.7266" y="33.6465" width="130" height="29" transform="rotate(-15 10.7266 33.6465)" fill="url(#paint2_linear_210_114)" fill-opacity="0.6"/>
</g>
<path d="M28.6481 37.4562C28.6858 37.3032 28.8774 37.2518 28.9866 37.3655L32.0086 40.5141C32.0348 40.5415 32.0683 40.5608 32.1051 40.5699L36.3429 41.6127C36.4959 41.6503 36.5473 41.842 36.4336 41.9512L33.285 44.9732C33.2576 44.9994 33.2383 45.0329 33.2292 45.0697L32.1864 49.3075C32.1488 49.4605 31.9571 49.5119 31.8479 49.3982L28.8259 46.2495C28.7997 46.2222 28.7662 46.2029 28.7294 46.1938L24.4916 45.151C24.3386 45.1133 24.2872 44.9217 24.4009 44.8125L27.5496 41.7905C27.5769 41.7643 27.5962 41.7308 27.6053 41.694L28.6481 37.4562Z" fill="white"/>
<path d="M100.44 27.1445C100.403 27.0087 100.337 26.8952 100.239 26.804C100.141 26.709 99.9836 26.642 99.7669 26.603C99.554 26.563 99.2525 26.5548 98.8626 26.5784C98.5189 26.5937 98.198 26.5886 97.9001 26.5633C97.6049 26.5332 97.3419 26.4723 97.111 26.3805C96.8802 26.2886 96.6856 26.1588 96.5274 25.9909C96.3692 25.823 96.2557 25.6108 96.187 25.3542C96.1202 25.1051 96.1117 24.8547 96.1615 24.6027C96.2113 24.3508 96.3153 24.1126 96.4736 23.8883C96.6318 23.6639 96.8431 23.4637 97.1073 23.2877C97.3753 23.1108 97.6905 22.9738 98.0527 22.8767C98.5658 22.7392 99.0286 22.7082 99.4411 22.7837C99.8564 22.8544 100.202 23.0107 100.477 23.2524C100.751 23.4903 100.937 23.7923 101.035 24.1583L99.6708 24.5238C99.6274 24.3616 99.5454 24.2217 99.425 24.1044C99.3073 23.9822 99.1558 23.8995 98.9703 23.8562C98.7837 23.8091 98.5679 23.8184 98.3226 23.8842C98.0887 23.9468 97.9045 24.0366 97.77 24.1535C97.6383 24.2657 97.5504 24.3903 97.5062 24.5275C97.4659 24.6637 97.4644 24.8016 97.5018 24.9412C97.5291 25.0431 97.5728 25.1305 97.6327 25.2034C97.6955 25.2715 97.7831 25.3269 97.8956 25.3695C98.0071 25.4084 98.1516 25.4344 98.329 25.4475C98.5102 25.4596 98.7324 25.4587 98.9956 25.4448C99.4897 25.4175 99.9254 25.4363 100.303 25.501C100.683 25.5609 100.996 25.6874 101.241 25.8803C101.486 26.0695 101.658 26.3471 101.756 26.7131C101.829 26.9847 101.837 27.2494 101.78 27.5072C101.727 27.7601 101.613 27.9989 101.439 28.2236C101.263 28.4445 101.035 28.6411 100.754 28.8136C100.476 28.985 100.148 29.1213 99.7712 29.2224C99.2165 29.371 98.7205 29.3988 98.2831 29.3057C97.8446 29.2088 97.4839 29.0325 97.2011 28.7767C96.921 28.5161 96.7359 28.2179 96.6459 27.8821L97.9646 27.5287C98.0475 27.7775 98.1714 27.9606 98.3363 28.0782C98.504 28.191 98.6913 28.2561 98.8982 28.2734C99.1078 28.286 99.3145 28.265 99.5182 28.2104C99.7635 28.1447 99.9605 28.0575 100.109 27.9489C100.257 27.8365 100.359 27.7121 100.416 27.5756C100.471 27.4354 100.479 27.2917 100.44 27.1445ZM102.432 19.0707L104.761 27.764L103.403 28.128L101.073 19.4347L102.432 19.0707ZM103.642 24.5394L103.199 24.6521C103.09 24.2285 103.044 23.8223 103.061 23.4335C103.082 23.0437 103.161 22.6889 103.297 22.3692C103.437 22.0447 103.635 21.7713 103.89 21.5491C104.145 21.3231 104.452 21.162 104.81 21.066C105.112 20.9851 105.395 20.9538 105.659 20.9721C105.926 20.9894 106.173 21.0668 106.4 21.2041C106.626 21.3377 106.824 21.5395 106.993 21.8096C107.165 22.0748 107.308 22.4169 107.42 22.8357L108.474 26.7692L107.104 27.1362L106.047 23.1914C105.968 22.8971 105.862 22.6748 105.729 22.5244C105.599 22.3731 105.443 22.2815 105.261 22.2495C105.077 22.2137 104.869 22.2272 104.635 22.2899C104.39 22.3556 104.186 22.4628 104.023 22.6114C103.865 22.759 103.746 22.9344 103.667 23.1376C103.588 23.3408 103.546 23.5622 103.542 23.802C103.541 24.0408 103.574 24.2866 103.642 24.5394ZM108.792 23.4749L108.757 23.3448C108.639 22.9033 108.593 22.4767 108.621 22.065C108.647 21.6496 108.743 21.2699 108.91 20.926C109.079 20.5773 109.319 20.2786 109.628 20.0298C109.94 19.7763 110.319 19.5899 110.764 19.4706C111.213 19.3503 111.635 19.3224 112.028 19.3868C112.424 19.4465 112.783 19.585 113.104 19.8022C113.424 20.0157 113.699 20.2958 113.929 20.6425C114.159 20.9855 114.333 21.3777 114.451 21.8191L114.486 21.9493C114.604 22.3908 114.65 22.8173 114.623 23.229C114.595 23.6407 114.497 24.0209 114.328 24.3696C114.157 24.7146 113.918 25.0133 113.609 25.2658C113.3 25.5145 112.922 25.6985 112.477 25.8178C112.028 25.9381 111.606 25.9684 111.21 25.9088C110.816 25.8443 110.459 25.7053 110.139 25.4918C109.818 25.2746 109.543 24.9945 109.314 24.6515C109.084 24.3086 108.91 23.9164 108.792 23.4749ZM110.121 22.9793L110.156 23.1095C110.23 23.3849 110.328 23.6377 110.45 23.8677C110.573 24.0978 110.719 24.2891 110.889 24.4417C111.06 24.5942 111.253 24.698 111.47 24.7531C111.687 24.8082 111.926 24.8009 112.186 24.7311C112.439 24.6634 112.644 24.5519 112.8 24.3967C112.961 24.2405 113.076 24.0538 113.147 23.8366C113.219 23.6194 113.25 23.3805 113.241 23.1201C113.235 22.8587 113.196 22.5902 113.122 22.3148L113.087 22.1846C113.014 21.913 112.915 21.6645 112.79 21.4392C112.668 21.2091 112.519 21.0164 112.344 20.8611C112.173 20.7048 111.979 20.5991 111.762 20.544C111.548 20.4841 111.312 20.4885 111.056 20.5573C110.799 20.626 110.591 20.7404 110.432 20.9004C110.275 21.0556 110.162 21.2437 110.092 21.4647C110.021 21.6857 109.991 21.9264 110 22.1868C110.008 22.4435 110.049 22.7076 110.121 22.9793ZM116.473 19.3121L117.801 24.27L116.437 24.6355L114.796 18.5116L116.098 18.1628L116.473 19.3121ZM118.023 17.6046L118.351 18.8754C118.264 18.8825 118.171 18.8955 118.071 18.9142C117.974 18.9319 117.879 18.9534 117.785 18.9787C117.551 19.0414 117.354 19.1305 117.195 19.2459C117.035 19.3576 116.911 19.4918 116.824 19.6487C116.739 19.8008 116.688 19.9722 116.67 20.1629C116.653 20.3537 116.667 20.5581 116.713 20.7762L116.408 20.8823C116.305 20.4974 116.247 20.1307 116.235 19.7823C116.222 19.4338 116.258 19.1148 116.342 18.8253C116.43 18.5348 116.57 18.289 116.763 18.0877C116.96 17.8854 117.211 17.7433 117.516 17.6614C117.599 17.6392 117.69 17.623 117.789 17.6128C117.891 17.6016 117.969 17.5988 118.023 17.6046ZM121.978 16.5872L122.245 17.5833L118.793 18.5084L118.526 17.5123L121.978 16.5872ZM119.12 15.7455L120.484 15.38L122.073 21.3114C122.124 21.5001 122.189 21.6383 122.269 21.726C122.352 21.8089 122.447 21.8542 122.555 21.8619C122.662 21.8696 122.781 21.8557 122.913 21.8203C123.008 21.7951 123.097 21.7651 123.181 21.7306C123.264 21.696 123.331 21.666 123.381 21.6405L123.666 22.6804C123.562 22.7447 123.438 22.8102 123.294 22.8771C123.154 22.9429 122.987 23.0016 122.795 23.0532C122.482 23.1371 122.19 23.1567 121.919 23.112C121.647 23.0635 121.409 22.931 121.206 22.7146C121.002 22.4982 120.844 22.1806 120.732 21.7618L119.12 15.7455ZM127.663 19.8501C127.627 19.7143 127.56 19.6007 127.463 19.5095C127.364 19.4145 127.207 19.3475 126.99 19.3085C126.777 19.2685 126.476 19.2603 126.086 19.2839C125.742 19.2992 125.421 19.2942 125.123 19.2689C124.828 19.2388 124.565 19.1778 124.334 19.086C124.103 18.9942 123.909 18.8643 123.751 18.6964C123.592 18.5285 123.479 18.3163 123.41 18.0597C123.343 17.8107 123.335 17.5602 123.385 17.3083C123.435 17.0563 123.539 16.8182 123.697 16.5938C123.855 16.3694 124.066 16.1692 124.331 15.9933C124.599 15.8163 124.914 15.6793 125.276 15.5823C125.789 15.4448 126.252 15.4138 126.664 15.4893C127.08 15.56 127.425 15.7162 127.7 15.9579C127.974 16.1959 128.16 16.4979 128.258 16.8639L126.894 17.2293C126.851 17.0671 126.769 16.9273 126.648 16.8099C126.531 16.6878 126.379 16.6051 126.194 16.5617C126.007 16.5147 125.791 16.524 125.546 16.5897C125.312 16.6524 125.128 16.7422 124.993 16.8591C124.862 16.9712 124.774 17.0959 124.729 17.2331C124.689 17.3692 124.688 17.5071 124.725 17.6467C124.752 17.7486 124.796 17.836 124.856 17.9089C124.919 17.977 125.006 18.0324 125.119 18.075C125.23 18.1139 125.375 18.1399 125.552 18.153C125.733 18.1651 125.956 18.1642 126.219 18.1503C126.713 18.1231 127.149 18.1418 127.526 18.2065C127.906 18.2665 128.219 18.3929 128.465 18.5859C128.71 18.775 128.881 19.0526 128.979 19.4186C129.052 19.6903 129.06 19.955 129.004 20.2127C128.95 20.4657 128.836 20.7045 128.662 20.9291C128.487 21.15 128.258 21.3467 127.977 21.5191C127.699 21.6906 127.372 21.8268 126.994 21.9279C126.44 22.0765 125.944 22.1043 125.506 22.0112C125.068 21.9144 124.707 21.738 124.424 21.4822C124.144 21.2216 123.959 20.9234 123.869 20.5876L125.188 20.2343C125.271 20.483 125.395 20.6662 125.56 20.7837C125.727 20.8965 125.915 20.9616 126.121 20.979C126.331 20.9915 126.538 20.9705 126.741 20.9159C126.987 20.8502 127.184 20.7631 127.333 20.6544C127.48 20.542 127.583 20.4176 127.639 20.2812C127.694 20.1409 127.702 19.9973 127.663 19.8501Z" fill="white"/>
<defs>
<filter id="filter0_b_210_114" x="6.72656" y="-4" width="141.076" height="69.6582" filterUnits="userSpaceOnUse" color-interpolation-filters="sRGB">
<feFlood flood-opacity="0" result="BackgroundImageFix"/>
<feGaussianBlur in="BackgroundImageFix" stdDeviation="2"/>
<feComposite in2="SourceAlpha" operator="in" result="effect1_backgroundBlur_210_114"/>
<feBlend mode="normal" in="SourceGraphic" in2="effect1_backgroundBlur_210_114" result="shape"/>
</filter>
<linearGradient id="paint0_linear_210_114" x1="120.725" y1="167" x2="120.725" y2="341" gradientUnits="userSpaceOnUse">
<stop stop-color="#8776F3"/>
<stop offset="1" stop-color="#7A5DEC"/>
</linearGradient>
<linearGradient id="paint1_linear_210_114" x1="120.725" y1="16" x2="120.725" y2="167" gradientUnits="userSpaceOnUse">
<stop stop-color="#8776F3"/>
<stop offset="1" stop-color="#7A5DEC"/>
</linearGradient>
<linearGradient id="paint2_linear_210_114" x1="144.596" y1="47.7928" x2="7.44704" y2="37.6777" gradientUnits="userSpaceOnUse">
<stop stop-color="white"/>
<stop offset="0.0001" stop-color="white" stop-opacity="0.81"/>
<stop offset="1" stop-color="white" stop-opacity="0.1"/>
</linearGradient>
<clipPath id="clip0_210_114">
<rect x="0.724609" y="16" width="240" height="325" rx="10" fill="white"/>
</clipPath>
</defs>
</svg>
