<svg width="24" height="24" viewBox="0 0 24 24" fill="none" xmlns="http://www.w3.org/2000/svg">
<path d="M4.25 18.875V17.375H6.25V10.125C6.25 8.75832 6.671 7.55399 7.513 6.51199C8.35433 5.47065 9.43333 4.79999 10.75 4.49999V3.79999C10.75 3.44999 10.871 3.15399 11.113 2.91199C11.3543 2.67065 11.65 2.54999 12 2.54999C12.35 2.54999 12.6457 2.67065 12.887 2.91199C13.129 3.15399 13.25 3.44999 13.25 3.79999V4.49999C14.5667 4.79999 15.646 5.47065 16.488 6.51199C17.3293 7.55399 17.75 8.75832 17.75 10.125V17.375H19.75V18.875H4.25ZM12 21.8C11.5 21.8 11.075 21.625 10.725 21.275C10.375 20.925 10.2 20.5 10.2 20H13.8C13.8 20.5 13.625 20.925 13.275 21.275C12.925 21.625 12.5 21.8 12 21.8ZM7.75 17.375H16.25V10.125C16.25 8.94165 15.8373 7.93732 15.012 7.11199C14.1873 6.28732 13.1833 5.87499 12 5.87499C10.8167 5.87499 9.81267 6.28732 8.988 7.11199C8.16267 7.93732 7.75 8.94165 7.75 10.125V17.375Z" fill="black"/>
</svg>
