<svg width="45" height="19" viewBox="0 0 45 19" fill="none" xmlns="http://www.w3.org/2000/svg">
<rect x="0.5" y="0.5" width="44" height="18" rx="9" fill="white" fill-opacity="0.5"/>
<path d="M8.9 14.156V5.18H12.656C14.096 5.18 15.116 6.188 15.116 7.616C15.116 8.192 14.792 8.888 14.336 9.332C14.408 9.368 14.48 9.416 14.54 9.464C15.2 9.896 15.668 10.76 15.668 11.564C15.668 13.076 14.66 14.156 13.208 14.156H8.9ZM10.436 12.824H12.98C13.676 12.824 14.144 12.332 14.144 11.564C14.144 10.748 13.676 10.208 12.98 10.208H10.436V12.824ZM10.436 8.888H12.56C13.184 8.864 13.592 8.42 13.592 7.736C13.592 6.992 13.148 6.512 12.476 6.512H10.436V8.888ZM21.3777 10.388C21.2577 9.728 20.7897 8.996 19.8177 8.996C18.9417 8.996 18.2817 9.644 18.1497 10.4L21.3777 10.388ZM16.7217 10.964C16.7217 9.068 17.9937 7.736 19.8057 7.736C21.8217 7.736 22.4577 9.392 22.4937 9.476C22.8777 10.316 22.7577 11.312 22.7577 11.504H18.1497C18.2817 12.356 19.0497 12.92 19.8177 12.92C20.9097 12.92 21.2457 12.284 21.2697 12.248L22.5177 12.764C22.5177 12.764 21.9177 14.18 19.8057 14.18C17.9937 14.18 16.7217 12.86 16.7217 10.964ZM26.636 14.18C25.448 14.18 24.572 13.316 24.56 12.068V9.152H23.432V7.832H24.56V6.008H26.108V7.832H27.488V9.152H26.108V12.02C26.108 12.38 26.324 12.704 26.636 12.716C26.876 12.728 27.068 12.668 27.32 12.596L27.656 14.048C27.356 14.12 26.96 14.18 26.636 14.18ZM31.9248 12.956C32.8488 12.956 33.6288 12.104 33.6408 10.976C33.6288 9.86 32.8488 8.996 31.9248 8.996C30.9408 8.996 30.2928 9.776 30.2928 10.976C30.2928 12.164 30.9408 12.956 31.9248 12.956ZM28.7568 10.976C28.7568 9.092 30.0048 7.76 31.7808 7.76C32.4528 7.76 33.1488 8.072 33.6288 8.708V7.736H35.1768V14.156H33.6288V13.244C33.1368 13.892 32.4648 14.192 31.7808 14.192C30.0048 14.192 28.7568 12.86 28.7568 10.976Z" fill="url(#paint0_linear_3109_14559)"/>
<rect x="0.5" y="0.5" width="44" height="18" rx="9" stroke="url(#paint1_linear_3109_14559)"/>
<defs>
<linearGradient id="paint0_linear_3109_14559" x1="22.5" y1="2" x2="22.5" y2="17" gradientUnits="userSpaceOnUse">
<stop stop-color="#45B2FF"/>
<stop offset="1" stop-color="#45BBFF"/>
</linearGradient>
<linearGradient id="paint1_linear_3109_14559" x1="43.3142" y1="0.583688" x2="39.5317" y2="24.1119" gradientUnits="userSpaceOnUse">
<stop stop-color="#5CFAFF" stop-opacity="0.79"/>
<stop offset="0.661465" stop-color="#61B3FF" stop-opacity="0.93"/>
<stop offset="1" stop-color="#4F97F7"/>
</linearGradient>
</defs>
</svg>
