<svg width="12" height="13" viewBox="0 0 12 13" fill="none" xmlns="http://www.w3.org/2000/svg">
<path d="M5.82478 0.818403C5.90078 0.680303 6.09922 0.680304 6.17522 0.818403L8.10184 4.31937C8.12011 4.35257 8.14743 4.37989 8.18063 4.39816L11.6816 6.32478C11.8197 6.40078 11.8197 6.59922 11.6816 6.67522L8.18063 8.60184C8.14743 8.62011 8.12011 8.64743 8.10184 8.68063L6.17522 12.1816C6.09922 12.3197 5.90078 12.3197 5.82478 12.1816L3.89816 8.68063C3.87989 8.64743 3.85257 8.62011 3.81937 8.60184L0.318403 6.67522C0.180303 6.59922 0.180304 6.40078 0.318403 6.32478L3.81937 4.39816C3.85257 4.37989 3.87989 4.35257 3.89816 4.31937L5.82478 0.818403Z" fill="#454849"/>
</svg>
