<svg width="375" height="62" viewBox="0 0 375 62" fill="none" xmlns="http://www.w3.org/2000/svg">
<path d="M24.648 52.256H32.784V50.096C29.688 49.496 27.624 47.12 27.624 43.928C27.624 40.232 30.408 37.592 34.344 37.592C38.352 37.592 41.16 40.232 41.16 43.928C41.16 47.096 39.096 49.472 35.976 50.096V52.256H44.184V54.824H24.648V52.256ZM30.792 43.928C30.792 46.04 32.184 47.624 34.344 47.624C36.576 47.624 37.992 46.04 37.992 43.928C37.992 41.792 36.576 40.208 34.344 40.208C32.184 40.208 30.792 41.792 30.792 43.928ZM48.1725 51.872H58.9965V50.72H48.1245V48.344H62.1885V54.128H51.3645V55.424H62.8125V57.824H48.1725V51.872ZM45.4605 47.072V44.576H64.9965V47.072H45.4605ZM48.4125 43.304V36.8H51.5805V40.808H62.5245V43.304H48.4125ZM81.105 36.416H84.273V57.368H81.105V36.416ZM66.537 53.384V50.792H79.761V53.384H66.537ZM67.089 43.352C67.089 40.088 69.489 37.76 72.873 37.76C76.305 37.76 78.705 40.088 78.705 43.352C78.705 46.616 76.305 48.92 72.873 48.92C69.489 48.92 67.089 46.616 67.089 43.352ZM70.137 43.352C70.137 45.128 71.217 46.304 72.873 46.304C74.553 46.304 75.657 45.128 75.657 43.352C75.657 41.552 74.553 40.376 72.873 40.376C71.217 40.376 70.137 41.552 70.137 43.352ZM96.1688 50.96C97.3208 53.12 98.9288 53.864 100.201 53.888C102.457 53.888 103.753 52.856 103.753 51.344C103.753 47.72 94.4408 49.304 94.4408 43.04C94.4408 40.016 97.1288 38.168 100.561 38.168C102.721 38.192 105.409 39.44 106.513 42.416L103.801 43.4C103.057 41.432 101.617 40.808 100.561 40.808C98.7848 40.808 97.5128 41.744 97.5128 43.04C97.5128 46.616 106.801 45.392 106.801 51.344C106.801 54.416 104.161 56.528 100.201 56.504C97.5368 56.504 95.1608 54.944 93.6488 52.376L96.1688 50.96ZM118.818 49.736C118.818 47.6 117.834 46.232 116.274 46.232C114.474 46.232 113.154 47.864 113.154 49.88V56.312H110.082V38.36H113.154V45.248C114.042 44.12 115.434 43.712 116.322 43.712C119.61 43.712 121.914 46.016 121.914 49.304V56.312H118.818V49.736ZM130.698 53.864C132.618 53.864 133.866 52.328 133.866 49.928C133.866 47.552 132.618 45.992 130.698 45.992C128.802 45.992 127.554 47.552 127.554 49.928C127.554 52.328 128.802 53.864 130.698 53.864ZM124.482 49.928C124.482 46.136 127.05 43.472 130.698 43.472C134.37 43.472 136.938 46.136 136.938 49.928C136.938 53.72 134.37 56.384 130.698 56.384C127.05 56.384 124.482 53.72 124.482 49.928ZM142.351 45.728C143.047 44.384 144.607 43.472 146.095 43.472V46.184C143.767 46.184 142.351 48.344 142.351 50.072V56.312H139.303V43.472H142.351V45.728ZM154.272 56.36C151.896 56.36 150.144 54.632 150.12 52.136V46.304H147.864V43.664H150.12V40.016H153.216V43.664H155.976V46.304H153.216V52.04C153.216 52.76 153.648 53.408 154.272 53.432C154.752 53.456 155.136 53.336 155.64 53.192L156.312 56.096C155.712 56.24 154.92 56.36 154.272 56.36ZM180.972 38.36V56.312H177.54L168.324 43.232V56.312H165.252V38.36H168.66L177.876 51.488V38.36H180.972ZM193.185 48.776C192.945 47.456 192.009 45.992 190.065 45.992C188.313 45.992 186.993 47.288 186.729 48.8L193.185 48.776ZM183.873 49.928C183.873 46.136 186.417 43.472 190.041 43.472C194.073 43.472 195.345 46.784 195.417 46.952C196.185 48.632 195.945 50.624 195.945 51.008H186.729C186.993 52.712 188.529 53.84 190.065 53.84C192.249 53.84 192.921 52.568 192.969 52.496L195.465 53.528C195.465 53.528 194.265 56.36 190.041 56.36C186.417 56.36 183.873 53.72 183.873 49.928ZM215.473 43.472L211.705 56.312H208.777L206.281 47.888L203.833 56.312H200.881L197.089 43.472H200.281L202.417 51.896L204.697 43.472H207.841L210.145 51.896L212.257 43.472H215.473ZM219.179 52.088C219.755 53.312 221.003 53.96 221.819 53.96C223.019 53.96 223.787 53.456 223.787 52.64C223.787 50.768 217.331 51.152 217.331 47.12C217.331 44.792 219.347 43.448 222.059 43.448C223.643 43.448 225.779 44.36 226.547 46.496L224.051 47.432C223.547 46.112 222.563 45.968 222.059 45.968C221.003 45.968 220.427 46.448 220.427 47.12C220.427 48.92 226.859 48.608 226.859 52.568C226.859 54.92 224.891 56.48 221.819 56.48C219.875 56.48 217.763 55.208 216.875 53.408L219.179 52.088Z" fill="#454849"/>
<g clip-path="url(#clip0_1488_9787)">
<g filter="url(#filter0_b_1488_9787)">
<path d="M233.385 41.283L244.783 30.7502C245.612 29.9843 246.861 30.8281 246.526 31.9273L244.554 38.4048C244.467 38.6906 244.654 38.9802 244.935 39.0039L249.74 39.4087C250.69 39.488 251.07 40.7225 250.348 41.3888L238.876 51.9938C238.055 52.7529 236.813 51.929 237.127 50.8347L239.003 44.2781C239.084 43.9968 238.899 43.7102 238.623 43.6872L233.988 43.2624C233.042 43.1756 232.669 41.9474 233.388 41.2834L233.385 41.283Z" fill="#FFA800"/>
</g>
</g>
<defs>
<filter id="filter0_b_1488_9787" x="229.012" y="26.4552" width="25.7123" height="29.8331" filterUnits="userSpaceOnUse" color-interpolation-filters="sRGB">
<feFlood flood-opacity="0" result="BackgroundImageFix"/>
<feGaussianBlur in="BackgroundImageFix" stdDeviation="2"/>
<feComposite in2="SourceAlpha" operator="in" result="effect1_backgroundBlur_1488_9787"/>
<feBlend mode="normal" in="SourceGraphic" in2="effect1_backgroundBlur_1488_9787" result="shape"/>
</filter>
<clipPath id="clip0_1488_9787">
<rect width="32" height="32" fill="white" transform="translate(233 30)"/>
</clipPath>
</defs>
</svg>
