<svg width="60" height="74" viewBox="0 0 60 74" fill="none" xmlns="http://www.w3.org/2000/svg">
<rect width="60" height="74" rx="6" fill="#45B3FF"/>
<circle cx="30" cy="30" r="17" fill="#1774FF"/>
<mask id="mask0_1648_550" style="mask-type:alpha" maskUnits="userSpaceOnUse" x="13" y="13" width="34" height="34">
<circle cx="30" cy="30" r="17" fill="url(#paint0_linear_1648_550)"/>
</mask>
<g mask="url(#mask0_1648_550)">
<path d="M15.1968 32.6015V35.2626C15.1968 35.9855 14.6865 36.6079 13.9777 36.7496C13.1034 36.9245 12.2677 36.3111 12.1724 35.4247L11.5986 30.0885C11.5581 29.7111 11.6257 29.3298 11.7938 28.9894L17.3307 17.7736C17.6677 17.091 18.3629 16.6589 19.1241 16.6589H21.4017C21.8604 16.6589 22.3051 16.5013 22.6613 16.2125L24.5695 14.6652C24.9258 14.3764 25.3705 14.2188 25.8292 14.2188H32.5221H36.1882C36.5567 14.2188 36.9181 14.3206 37.2325 14.513L39.0547 15.6287C39.9877 16.1999 40.2886 17.4148 39.7301 18.3555L39.192 19.2618L38.3044 20.46C37.8517 21.0712 37.7848 21.8863 38.1319 22.5631L38.8726 24.0074C39.0676 24.3877 39.0258 24.8463 38.7652 25.185C38.2394 25.8685 37.1682 25.7129 36.8586 24.908L36.7518 24.6302L35.9444 22.7847C35.7385 22.3141 35.3031 21.984 34.7944 21.9127C33.5326 21.7361 32.6528 23.131 33.3557 24.1936L34.0298 25.2125C34.6031 26.0791 34.4173 27.2403 33.6022 27.8848L31.546 29.5106L30.0343 31.0223C29.2661 31.7905 27.9683 31.563 27.5072 30.5793L26.7673 29.0009C26.4771 28.3817 25.5907 28.3986 25.3242 29.0283C25.2006 29.3207 24.914 29.5106 24.5966 29.5106H21.5906C21.1876 29.5106 20.7939 29.3888 20.4613 29.1612L19.0938 28.2256C18.3722 27.7319 17.4135 27.7641 16.7267 28.3052L15.959 28.91C15.4777 29.2893 15.1968 29.8682 15.1968 30.481V32.6015Z" fill="#8CFF00"/>
<path d="M34.8959 37.6457L36.4721 36.4013C36.6571 36.2552 36.8665 36.143 37.0906 36.0698L39.4601 35.2961C40.2326 35.0439 41.0809 35.2841 41.6064 35.904L42.8471 37.3674C43.4647 38.0957 43.4811 39.1591 42.8864 39.9062L41.787 41.2876C41.2546 41.9564 40.2349 41.945 39.7176 41.2645C39.399 40.8452 38.8604 40.6573 38.3502 40.7874L36.659 41.2184C35.7233 41.457 34.7508 40.9929 34.3477 40.1154L34.3178 40.0504C33.9323 39.2115 34.1712 38.2177 34.8959 37.6457Z" fill="#8CFF00"/>
<path d="M43.4324 25.2567L42.7403 25.5824C42.1669 25.8523 41.5373 25.3349 41.6911 24.72C41.706 24.6604 41.7135 24.5991 41.7135 24.5377V23.3288V23.2068C41.7135 22.5554 42.2416 22.0274 42.8929 22.0274C43.5443 22.0274 44.0724 22.5554 44.0724 23.2068V24.2483C44.0724 24.68 43.823 25.0729 43.4324 25.2567Z" fill="#8CFF00"/>
<path d="M32.7957 32.3442C33.5974 32.4874 34.1437 33.238 34.0346 34.045C33.9192 34.8991 33.1176 35.4877 32.2683 35.3408C31.0975 35.1381 30.6022 33.73 31.3865 32.8375C31.7375 32.438 32.2722 32.2507 32.7957 32.3442Z" fill="#8CFF00"/>
</g>
<path d="M19.8906 64L20.2363 61.8789H18.5664L18.2148 64H16.9023L17.2539 61.8789H16.082L16.3047 60.5781H17.4648L17.7344 58.9375H16.5742L16.7852 57.625H17.9512L18.2969 55.5156H19.6094L19.2637 57.625H20.9277L21.2734 55.5156H22.5859L22.2402 57.625H23.4062L23.1836 58.9375H22.0234L21.7539 60.5781H22.9258L22.7031 61.8789H21.543L21.1914 64H19.8906ZM18.7773 60.5781H20.4473L20.7168 58.9375H19.0469L18.7773 60.5781ZM27.2266 57.0977C27.2207 58.8262 27.7012 60.6074 29.1602 61.5391L28.3516 62.6992C27.4258 62.1426 26.8457 61.2168 26.5059 60.127C26.125 61.334 25.4863 62.3477 24.5195 62.9336L23.6055 61.832C25.1875 60.8535 25.7734 58.9727 25.7734 57.168V55.3281H27.2266V57.0977ZM28.0352 59.2305V58.0117H29.418V54.5664H30.8125V64.5859H29.418V59.2305H28.0352ZM31.6211 65.0781V54.4141H33.0508V65.0781H31.6211ZM43.4219 54.4141V65.0781H42.0156V54.4141H43.4219ZM34.0117 61.8086C36.1738 60.5312 37.123 58.9785 37.3281 56.8867H34.6328V55.6797H38.8164C38.8164 56.2129 38.7812 56.7285 38.7168 57.2266H39.7773V54.6484H41.1953V64.6094H39.7773V61.0938H38.2656V59.8867H39.7773V58.4336H38.4707C37.9727 60.1973 36.8828 61.6797 34.8906 62.8633L34.0117 61.8086Z" fill="#F5F8F9"/>
<defs>
<linearGradient id="paint0_linear_1648_550" x1="30.9444" y1="13" x2="30" y2="47" gradientUnits="userSpaceOnUse">
<stop stop-color="#496EFF"/>
<stop offset="1" stop-color="#486CFF"/>
</linearGradient>
</defs>
</svg>
