<svg width="26" height="26" viewBox="0 0 26 26" fill="none" xmlns="http://www.w3.org/2000/svg">
<g clip-path="url(#clip0_1102_252)">
<path d="M13 15.7083C14.4958 15.7083 15.7083 14.4958 15.7083 13C15.7083 11.5042 14.4958 10.2917 13 10.2917C11.5042 10.2917 10.2917 11.5042 10.2917 13C10.2917 14.4958 11.5042 15.7083 13 15.7083Z" stroke="#656869" stroke-width="1.5" stroke-linecap="round" stroke-linejoin="round"/>
<path d="M19.6806 15.7083C19.5604 15.9806 19.5245 16.2827 19.5776 16.5755C19.6307 16.8684 19.7703 17.1386 19.9785 17.3514L20.0326 17.4056C20.2005 17.5732 20.3337 17.7724 20.4245 17.9916C20.5154 18.2108 20.5622 18.4457 20.5622 18.683C20.5622 18.9203 20.5154 19.1552 20.4245 19.3744C20.3337 19.5936 20.2005 19.7927 20.0326 19.9604C19.8649 20.1283 19.6658 20.2615 19.4466 20.3523C19.2274 20.4432 18.9925 20.49 18.7552 20.49C18.5179 20.49 18.283 20.4432 18.0638 20.3523C17.8446 20.2615 17.6455 20.1283 17.4778 19.9604L17.4236 19.9062C17.2108 19.6981 16.9406 19.5585 16.6478 19.5054C16.3549 19.4523 16.0528 19.4882 15.7806 19.6083C15.5135 19.7228 15.2858 19.9128 15.1254 20.155C14.965 20.3972 14.8789 20.681 14.8778 20.9715V21.125C14.8778 21.6039 14.6875 22.0631 14.3489 22.4017C14.0103 22.7403 13.5511 22.9306 13.0722 22.9306C12.5934 22.9306 12.1341 22.7403 11.7955 22.4017C11.4569 22.0631 11.2667 21.6039 11.2667 21.125V21.0437C11.2597 20.7449 11.163 20.4551 10.9891 20.212C10.8152 19.9689 10.5722 19.7837 10.2917 19.6806C10.0194 19.5604 9.71732 19.5245 9.42447 19.5776C9.13161 19.6307 8.86137 19.7703 8.64861 19.9785L8.59444 20.0326C8.42675 20.2005 8.22762 20.3337 8.00843 20.4246C7.78924 20.5154 7.55429 20.5622 7.31701 20.5622C7.07973 20.5622 6.84478 20.5154 6.62559 20.4246C6.4064 20.3337 6.20727 20.2005 6.03958 20.0326C5.87171 19.865 5.73853 19.6658 5.64767 19.4466C5.5568 19.2274 5.51004 18.9925 5.51004 18.7552C5.51004 18.5179 5.5568 18.283 5.64767 18.0638C5.73853 17.8446 5.87171 17.6455 6.03958 17.4778L6.09375 17.4236C6.30187 17.2108 6.44148 16.9406 6.49459 16.6478C6.54769 16.3549 6.51184 16.0528 6.39166 15.7806C6.27723 15.5135 6.08721 15.2858 5.845 15.1254C5.60279 14.965 5.31897 14.8789 5.02847 14.8778H4.875C4.39614 14.8778 3.93688 14.6876 3.59828 14.3489C3.25967 14.0103 3.06944 13.5511 3.06944 13.0722C3.06944 12.5934 3.25967 12.1341 3.59828 11.7955C3.93688 11.4569 4.39614 11.2667 4.875 11.2667H4.95625C5.25506 11.2597 5.54486 11.163 5.78798 10.9891C6.03109 10.8152 6.21627 10.5722 6.31944 10.2917C6.43962 10.0194 6.47546 9.71733 6.42236 9.42447C6.36926 9.13161 6.22965 8.86138 6.02153 8.64861L5.96736 8.59445C5.79948 8.42676 5.66631 8.22763 5.57545 8.00844C5.48458 7.78924 5.43781 7.55429 5.43781 7.31702C5.43781 7.07974 5.48458 6.84479 5.57545 6.6256C5.66631 6.4064 5.79948 6.20727 5.96736 6.03959C6.13505 5.87171 6.33418 5.73854 6.55337 5.64767C6.77256 5.55681 7.00751 5.51004 7.24479 5.51004C7.48207 5.51004 7.71702 5.55681 7.93621 5.64767C8.1554 5.73854 8.35453 5.87171 8.52222 6.03959L8.57639 6.09375C8.78915 6.30188 9.05939 6.44149 9.35224 6.49459C9.6451 6.54769 9.94715 6.51184 10.2194 6.39167H10.2917C10.5587 6.27723 10.7864 6.08721 10.9468 5.84501C11.1072 5.6028 11.1933 5.31898 11.1944 5.02847V4.875C11.1944 4.39614 11.3847 3.93689 11.7233 3.59828C12.0619 3.25967 12.5211 3.06945 13 3.06945C13.4789 3.06945 13.9381 3.25967 14.2767 3.59828C14.6153 3.93689 14.8056 4.39614 14.8056 4.875V4.95625C14.8067 5.24675 14.8928 5.53058 15.0532 5.77278C15.2136 6.01499 15.4413 6.20501 15.7083 6.31945C15.9806 6.43962 16.2827 6.47547 16.5755 6.42237C16.8684 6.36927 17.1386 6.22965 17.3514 6.02153L17.4056 5.96736C17.5732 5.79949 17.7724 5.66631 17.9916 5.57545C18.2108 5.48459 18.4457 5.43782 18.683 5.43782C18.9203 5.43782 19.1552 5.48459 19.3744 5.57545C19.5936 5.66631 19.7927 5.79949 19.9604 5.96736C20.1283 6.13505 20.2615 6.33418 20.3523 6.55337C20.4432 6.77256 20.49 7.00752 20.49 7.24479C20.49 7.48207 20.4432 7.71702 20.3523 7.93621C20.2615 8.1554 20.1283 8.35454 19.9604 8.52222L19.9062 8.57639C19.6981 8.78916 19.5585 9.05939 19.5054 9.35225C19.4523 9.6451 19.4882 9.94715 19.6083 10.2194V10.2917C19.7228 10.5587 19.9128 10.7864 20.155 10.9468C20.3972 11.1072 20.681 11.1933 20.9715 11.1944H21.125C21.6039 11.1944 22.0631 11.3847 22.4017 11.7233C22.7403 12.0619 22.9306 12.5211 22.9306 13C22.9306 13.4789 22.7403 13.9381 22.4017 14.2767C22.0631 14.6153 21.6039 14.8056 21.125 14.8056H21.0437C20.7532 14.8067 20.4694 14.8928 20.2272 15.0532C19.985 15.2136 19.795 15.4413 19.6806 15.7083V15.7083Z" stroke="#656869" stroke-width="1.5" stroke-linecap="round" stroke-linejoin="round"/>
</g>
<defs>
<clipPath id="clip0_1102_252">
<rect width="21.6667" height="21.6667" fill="white" transform="translate(2.16667 2.16667)"/>
</clipPath>
</defs>
</svg>
