<svg width="192" height="192" viewBox="0 0 192 192" fill="none" xmlns="http://www.w3.org/2000/svg">
<circle cx="96" cy="96" r="95.5" fill="#C7004E" stroke="url(#paint0_linear_21_45)"/>
<g clip-path="url(#clip0_21_45)">
<path d="M42.1653 114.867C52.8976 114.867 61.6063 106.173 61.6063 95.4334C61.6063 84.6937 52.8976 76 42.1653 76C31.4331 76 22.7319 84.7012 22.7319 95.4409C22.7319 106.181 31.4331 114.874 42.1653 114.874V114.867Z" fill="white"/>
<path d="M41.3931 86.9045V103.947H46.8116V102.433H42.9444V86.9045H41.3931Z" fill="#C7004E"/>
<path d="M35.967 91.5586C37.2486 91.5586 38.2904 90.5168 38.2904 89.2278C38.2904 87.9387 37.2486 86.897 35.967 86.897C34.6855 86.897 33.6362 87.9387 33.6362 89.2278C33.6362 90.5168 34.6855 91.5586 35.967 91.5586Z" fill="#C7004E"/>
<path d="M42.9447 79.1703C42.7423 79.1703 42.3601 79.1553 42.1652 79.1553C33.2017 79.1628 25.8945 86.4625 25.8945 95.426C25.8945 99.7803 27.5883 103.865 30.6686 106.938C33.7338 110.01 37.8184 111.697 42.1652 111.697C46.5121 111.697 50.5966 110.01 53.6694 106.938C56.7422 103.857 58.4359 99.7803 58.4359 95.426V94.6915H46.8194V96.1979H56.8921C56.8921 96.1979 56.8921 96.3928 56.8921 96.4228C56.3749 104.09 49.9746 110.183 42.1727 110.183C38.2381 110.183 34.5358 108.646 31.7478 105.866C28.9598 103.07 27.4234 99.3756 27.4234 95.426C27.4234 91.4763 28.9523 87.7815 31.7478 85.001C34.5358 82.2131 38.2381 80.6767 42.1727 80.6767C42.3526 80.6767 42.7648 80.6767 42.9522 80.6842V79.1703H42.9447Z" fill="#C7004E"/>
<path d="M71.3193 107.088H88.1746V102.006H78.0045H77.5024V101.504V83.772H71.3193V107.088Z" fill="white"/>
<path d="M108.537 85.4131C106.611 83.9142 104.115 83.1572 101.147 83.1572C97.6249 83.1572 94.6795 84.2364 92.626 86.2825C90.4976 88.4184 89.3584 91.5661 89.3584 95.3959C89.3584 99.4804 90.55 102.92 92.7235 105.094C94.4322 106.795 96.7031 107.702 99.3037 107.702C105.015 107.702 106.334 104.277 106.334 104.277V107.08H111.482V93.9119H101.222V98.0339H105.936C105.936 98.0339 105.981 103.22 101.11 103.22C99.8733 103.22 98.7716 102.771 97.9247 101.916C96.6056 100.605 95.9086 98.3712 95.9086 95.4858C95.9086 90.7118 97.8048 87.8488 100.997 87.8488C102.976 87.8488 104.475 89.0704 104.857 90.9216H111.422C111.085 88.2385 110.351 86.8296 108.544 85.4056L108.537 85.4131Z" fill="white"/>
<path d="M157.829 98.4238C155.521 97.3296 152.485 93.8446 152.485 89.835V87.0321H157.304V83.7195H142.975V87.0321H147.794V89.835C147.794 93.8446 144.766 97.3296 142.458 98.4238L142.375 98.4613L142.173 98.5587V101.984L142.645 101.856L142.825 101.811C145.253 101.144 148.206 99.1358 150.147 96.5052C152.073 99.1283 155.034 101.144 157.454 101.811L157.642 101.856L158.114 101.984V98.5587L157.911 98.4613L157.829 98.4238Z" fill="white"/>
<path d="M167.849 89.3253H167.707H164.252V83.6894V83.547V83.1873H163.869H163.727H160.444H160.302H159.927V83.547V83.6894V107.117V107.26V107.62H160.302H160.444H163.727H163.869H164.252V107.26V107.117V92.6454H167.707H167.849H168.224V92.2782V92.1433V89.8199V89.685V89.3253H167.849Z" fill="white"/>
<path d="M130.489 83.7119V87.0245H125.67V87.0695C125.67 90.9667 128.637 93.2075 130.886 93.6647L130.998 93.6872L131.291 93.7396V96.9848L130.886 96.9548L130.736 96.9398C128.315 96.7749 125.4 95.5234 123.316 93.1251C121.233 95.5234 118.31 96.7749 115.889 96.9398L115.747 96.9548L115.35 96.9848V93.7396L115.634 93.6872L115.747 93.6647C117.988 93.2075 120.963 90.9966 120.963 87.0695V87.0245H116.152V83.7119H130.481H130.489Z" fill="white"/>
<path d="M130.856 88.3285H130.714H130.339V88.6883V88.8307V91.1465V91.2814V91.6486H130.714H130.856H134.318V98.7235V98.8584V99.2256H134.693H134.836H138.118H138.253H138.635V98.8584V98.7235V83.6894V83.547V83.1873H138.253H138.118H134.836H134.693H134.318V83.547V83.6894V88.3285H130.856Z" fill="white"/>
<path d="M138.268 104.299H123.878V98.2139H119.569V104.862C119.569 105.701 119.824 106.398 120.326 106.885C120.828 107.365 121.54 107.62 122.417 107.62H138.65V104.299H138.268Z" fill="white"/>
</g>
<defs>
<linearGradient id="paint0_linear_21_45" x1="177.5" y1="173.5" x2="23.5" y2="19" gradientUnits="userSpaceOnUse">
<stop stop-color="white"/>
<stop offset="1" stop-color="white" stop-opacity="0"/>
</linearGradient>
<clipPath id="clip0_21_45">
<rect width="145" height="39" fill="white" transform="translate(23 76)"/>
</clipPath>
</defs>
</svg>
