<svg width="17" height="17" viewBox="0 0 17 17" fill="none" xmlns="http://www.w3.org/2000/svg">
<path d="M10.6914 3.03805C10.6 3.00022 10.4995 2.99033 10.4025 3.00961C10.3055 3.0289 10.2164 3.07651 10.1465 3.14642L5.14646 8.14642C5.10003 8.19285 5.06319 8.24798 5.03806 8.30864C5.01293 8.36931 5 8.43433 5 8.5C5 8.56566 5.01293 8.63069 5.03806 8.69135C5.06319 8.75202 5.10003 8.80714 5.14646 8.85358L10.1465 13.8536C10.2164 13.9235 10.3055 13.9711 10.4025 13.9904C10.4995 14.0097 10.6 13.9998 10.6914 13.9619C10.7827 13.9241 10.8608 13.86 10.9157 13.7778C10.9707 13.6956 11 13.5989 11 13.5V3.5C11 3.40111 10.9707 3.30444 10.9157 3.22222C10.8608 3.13999 10.7827 3.0759 10.6914 3.03805V3.03805Z" fill="#454849"/>
</svg>
