<svg width="26" height="26" viewBox="0 0 26 26" fill="none" xmlns="http://www.w3.org/2000/svg">
<path d="M23.5562 21.5299C22.0401 18.9187 19.6122 16.9602 16.7393 16.031C18.1156 15.2121 19.185 13.964 19.7832 12.4785C20.3815 10.9929 20.4755 9.35202 20.0509 7.80784C19.6262 6.26366 18.7064 4.90159 17.4326 3.93084C16.1588 2.96008 14.6016 2.43433 13.0001 2.43433C11.3986 2.43433 9.84138 2.96008 8.56763 3.93084C7.29387 4.90159 6.37402 6.26366 5.94936 7.80784C5.52471 9.35202 5.61873 10.9929 6.21698 12.4785C6.81523 13.964 7.88464 15.2121 9.26094 16.031C6.38815 16.9602 3.96028 18.9186 2.4442 21.5297C2.37274 21.6532 2.33506 21.7934 2.33496 21.936C2.33486 22.0787 2.37234 22.2189 2.44362 22.3425C2.51491 22.4661 2.61749 22.5688 2.74104 22.6402C2.86459 22.7115 3.00477 22.7491 3.14745 22.7491L22.8529 22.7493C22.9956 22.7493 23.1358 22.7117 23.2593 22.6404C23.3829 22.569 23.4855 22.4663 23.5568 22.3427C23.6281 22.2191 23.6655 22.0789 23.6654 21.9362C23.6653 21.7936 23.6276 21.6534 23.5562 21.5299L23.5562 21.5299Z" fill="#6BD382"/>
</svg>
