<svg width="28" height="26" viewBox="0 0 28 26" fill="none" xmlns="http://www.w3.org/2000/svg">
<path d="M27.2212 21.0956C25.7051 18.4844 23.2772 16.5259 20.4043 15.5967C21.7806 14.7778 22.85 13.5297 23.4483 12.0441C24.0465 10.5586 24.1406 8.91769 23.7159 7.37351C23.2912 5.82933 22.3714 4.46726 21.0976 3.49651C19.8239 2.52575 18.2667 2 16.6652 2C15.0636 2 13.5064 2.52575 12.2327 3.49651C10.9589 4.46726 10.0391 5.82933 9.6144 7.37351C9.18975 8.91769 9.28376 10.5586 9.88202 12.0441C10.4803 13.5297 11.5497 14.7778 12.926 15.5967C10.0532 16.5259 7.62532 18.4843 6.10924 21.0954C6.03778 21.2189 6.0001 21.359 6 21.5017C5.9999 21.6444 6.03737 21.7846 6.10866 21.9082C6.17995 22.0318 6.28253 22.1345 6.40608 22.2058C6.52963 22.2772 6.66981 22.3148 6.81249 22.3148L26.518 22.315C26.6606 22.315 26.8008 22.2774 26.9244 22.206C27.0479 22.1347 27.1505 22.032 27.2218 21.9084C27.2931 21.7848 27.3306 21.6446 27.3305 21.5019C27.3304 21.3592 27.2927 21.2191 27.2212 21.0956L27.2212 21.0956Z" fill="#6BD382"/>
<g filter="url(#filter0_b_1632_15440)">
<path d="M21.5562 24.5299C20.0401 21.9187 17.6122 19.9602 14.7393 19.031C16.1156 18.2121 17.185 16.964 17.7832 15.4785C18.3815 13.9929 18.4755 12.352 18.0509 10.8078C17.6262 9.26366 16.7064 7.90159 15.4326 6.93084C14.1588 5.96008 12.6016 5.43433 11.0001 5.43433C9.39861 5.43433 7.84138 5.96008 6.56763 6.93084C5.29387 7.90159 4.37402 9.26366 3.94936 10.8078C3.52471 12.352 3.61873 13.9929 4.21698 15.4785C4.81523 16.964 5.88464 18.2121 7.26094 19.031C4.38815 19.9602 1.96028 21.9186 0.444202 24.5297C0.37274 24.6532 0.335063 24.7934 0.334961 24.936C0.334859 25.0787 0.372336 25.2189 0.443621 25.3425C0.514906 25.4661 0.617486 25.5688 0.74104 25.6402C0.864595 25.7115 1.00477 25.7491 1.14745 25.7491L20.8529 25.7493C20.9956 25.7493 21.1358 25.7117 21.2593 25.6404C21.3829 25.569 21.4855 25.4663 21.5568 25.3427C21.6281 25.2191 21.6655 25.0789 21.6654 24.9362C21.6653 24.7936 21.6276 24.6534 21.5562 24.5299L21.5562 24.5299Z" fill="#97F6AC" fill-opacity="0.5"/>
</g>
<path d="M10 16C11.313 16 12.4289 15.1565 12.8356 13.9819C13.0163 13.46 12.5523 13 12 13H8C7.44772 13 6.98368 13.46 7.16437 13.9819C7.57105 15.1565 8.68703 16 10 16Z" fill="url(#paint0_linear_1632_15440)"/>
<defs>
<filter id="filter0_b_1632_15440" x="-5.66504" y="-0.565674" width="33.3306" height="32.3149" filterUnits="userSpaceOnUse" color-interpolation-filters="sRGB">
<feFlood flood-opacity="0" result="BackgroundImageFix"/>
<feGaussianBlur in="BackgroundImageFix" stdDeviation="3"/>
<feComposite in2="SourceAlpha" operator="in" result="effect1_backgroundBlur_1632_15440"/>
<feBlend mode="normal" in="SourceGraphic" in2="effect1_backgroundBlur_1632_15440" result="shape"/>
</filter>
<linearGradient id="paint0_linear_1632_15440" x1="12.625" y1="14.125" x2="7" y2="14.125" gradientUnits="userSpaceOnUse">
<stop offset="0.00763475" stop-color="white" stop-opacity="0.92"/>
<stop offset="1" stop-color="white" stop-opacity="0.32"/>
</linearGradient>
</defs>
</svg>
