<svg width="22" height="21" viewBox="0 0 22 21" fill="none" xmlns="http://www.w3.org/2000/svg">
<path d="M21.5562 19.5299C20.0401 16.9187 17.6122 14.9602 14.7393 14.031C16.1156 13.2121 17.185 11.964 17.7832 10.4785C18.3815 8.99291 18.4755 7.35202 18.0509 5.80784C17.6262 4.26366 16.7064 2.90159 15.4326 1.93084C14.1588 0.96008 12.6016 0.434326 11.0001 0.434326C9.39861 0.434326 7.84138 0.96008 6.56763 1.93084C5.29387 2.90159 4.37402 4.26366 3.94936 5.80784C3.52471 7.35202 3.61873 8.99291 4.21698 10.4785C4.81523 11.964 5.88464 13.2121 7.26094 14.031C4.38815 14.9602 1.96028 16.9186 0.444202 19.5297C0.37274 19.6532 0.335063 19.7934 0.334961 19.936C0.334859 20.0787 0.372336 20.2189 0.443621 20.3425C0.514906 20.4661 0.617486 20.5688 0.74104 20.6402C0.864595 20.7115 1.00477 20.7491 1.14745 20.7491L20.8529 20.7493C20.9956 20.7493 21.1358 20.7117 21.2593 20.6404C21.3829 20.569 21.4855 20.4663 21.5568 20.3427C21.6281 20.2191 21.6655 20.0789 21.6654 19.9362C21.6653 19.7936 21.6276 19.6534 21.5562 19.5299L21.5562 19.5299Z" fill="#6BD382"/>
</svg>
