<svg width="106" height="106" viewBox="0 0 106 106" fill="none" xmlns="http://www.w3.org/2000/svg">
<circle cx="53" cy="53" r="53" fill="#1774FF"/>
<mask id="mask0_1076_8824" style="mask-type:alpha" maskUnits="userSpaceOnUse" x="0" y="0" width="106" height="106">
<circle cx="53" cy="53" r="53" fill="url(#paint0_linear_1076_8824)"/>
</mask>
<g mask="url(#mask0_1076_8824)">
<path d="M6.84859 61.1096V71.6423C6.84859 72.5956 6.17567 73.4165 5.24082 73.6034L0.119719 74.6277C-1.03321 74.8582 -2.13535 74.0493 -2.26105 72.8803L-4.50074 52.0512C-4.54133 51.6737 -4.47363 51.2925 -4.30557 50.9521L14.6667 12.521C15.0037 11.8384 15.6989 11.4063 16.4601 11.4063H27.6947C28.1533 11.4063 28.598 11.2487 28.9543 10.9598L37.2357 4.24517C37.5919 3.95632 38.0367 3.79868 38.4953 3.79868H60.8629H73.4859C73.8544 3.79868 74.2158 3.90053 74.5302 4.09298L84.7926 10.3761C85.7256 10.9473 86.0265 12.1622 85.468 13.1029L81.6571 19.5212L77.3246 25.3701C76.8719 25.9813 76.805 26.7964 77.1521 27.4732L81.0789 35.1304C81.4319 35.8188 81.3562 36.6492 80.8845 37.2624L78.7581 40.0268C77.8061 41.2643 75.8666 40.9825 75.3061 39.5253L74.0495 36.258L70.9473 29.1672C70.6689 28.5308 70.0802 28.0845 69.3923 27.9882L62.2123 26.983C60.5061 26.7441 59.3164 28.6303 60.2669 30.0671L67.7103 41.3187C68.2836 42.1853 68.0978 43.3466 67.2827 43.991L57.8198 51.4733L50.1989 59.0942C49.2185 60.0746 47.5622 59.7843 46.9738 58.5289L42.4803 48.9429C41.7456 47.3756 39.5019 47.4183 38.8275 49.0125L38.3028 50.2526C37.9898 50.9925 37.2643 51.4733 36.4609 51.4733H25.4721C25.069 51.4733 24.6754 51.3515 24.3427 51.1239L16.4298 45.7098C15.7082 45.2161 14.7495 45.2483 14.0627 45.7894L7.61085 50.8727C7.12951 51.252 6.84859 51.8309 6.84859 52.4437V61.1096Z" fill="#8CFF00"/>
<path d="M65.6481 78.9002L73.7698 72.4884C73.9548 72.3423 74.1642 72.2301 74.3883 72.1569L85.198 68.6272C85.9705 68.375 86.8188 68.6152 87.3443 69.2351L95.3027 78.6219C95.9202 79.3503 95.9367 80.4136 95.342 81.1608L88.0766 90.2891C87.2644 91.3096 85.7086 91.2922 84.9194 90.2538L82.4591 87.0165C81.973 86.3769 81.1513 86.0902 80.3728 86.2887L70.3395 88.8462C69.4038 89.0847 68.4313 88.6206 68.0282 87.7432L65.0701 81.305C64.6846 80.466 64.9235 79.4723 65.6481 78.9002Z" fill="#8CFF00"/>
<path d="M89.2729 37.2401L89.4587 36.4968C89.4983 36.3382 89.5184 36.1753 89.5184 36.0118V32.2006V30.9326V30.1432C89.5184 29.0386 90.4138 28.1432 91.5184 28.1432H94.8724C95.977 28.1432 96.8724 29.0386 96.8724 30.1432V36.0031C96.8724 36.7779 96.425 37.4829 95.724 37.8128L92.0647 39.5348C90.5388 40.2529 88.8638 38.8761 89.2729 37.2401Z" fill="#8CFF00"/>
<path d="M54.0884 65.5233L58.3414 60.6837C58.8033 60.158 59.5064 59.912 60.1953 60.035L64.2989 60.7678C65.3538 60.9562 66.0728 61.9426 65.9293 63.0045L65.196 68.4307C65.0442 69.5542 63.99 70.3269 62.873 70.1336L55.2497 68.8142C53.7098 68.5477 53.0568 66.6972 54.0884 65.5233Z" fill="#8CFF00"/>
</g>
<defs>
<linearGradient id="paint0_linear_1076_8824" x1="55.9444" y1="-9.93295e-08" x2="53" y2="106" gradientUnits="userSpaceOnUse">
<stop stop-color="#496EFF"/>
<stop offset="1" stop-color="#486CFF"/>
</linearGradient>
</defs>
</svg>
