<svg width="16" height="16" viewBox="0 0 16 16" fill="none" xmlns="http://www.w3.org/2000/svg">
<path d="M10.1914 2.53805C10.1 2.50022 9.99946 2.49032 9.90247 2.50961C9.80549 2.52889 9.7164 2.5765 9.64646 2.64641L4.64646 7.64641C4.60003 7.69285 4.56319 7.74797 4.53806 7.80864C4.51293 7.8693 4.5 7.93433 4.5 7.99999C4.5 8.06566 4.51293 8.13068 4.53806 8.19135C4.56319 8.25201 4.60003 8.30714 4.64646 8.35357L9.64646 13.3536C9.71639 13.4235 9.80548 13.4711 9.90247 13.4904C9.99946 13.5097 10.1 13.4998 10.1914 13.4619C10.2827 13.4241 10.3608 13.36 10.4157 13.2778C10.4707 13.1955 10.5 13.0989 10.5 13V2.99999C10.5 2.9011 10.4707 2.80443 10.4157 2.72221C10.3608 2.63998 10.2827 2.5759 10.1914 2.53805Z" fill="#454849"/>
</svg>
