<svg width="192" height="192" viewBox="0 0 192 192" fill="none" xmlns="http://www.w3.org/2000/svg">
<circle cx="96" cy="96" r="95.5" fill="#0064FF" stroke="url(#paint0_linear_21_287)"/>
<g clip-path="url(#clip0_21_287)">
<path d="M84.1472 101.387V92.9424H79.7509V88.5075H84.1472V83.1473L89.5265 81.7012V88.4881H96.2363V92.9229H89.5265V101.291C89.5265 103.508 90.722 104.819 92.7849 104.819C93.9609 104.819 94.8287 104.588 95.7351 103.913L97.6634 107.924C96.2367 109.023 94.3664 109.543 92.3226 109.543C87.0974 109.563 84.1472 106.613 84.1472 101.387Z" fill="white"/>
<path d="M97.9333 98.7459C97.9333 92.5953 102.696 88.0063 109.116 88.0063C115.537 88.0063 120.3 92.6148 120.3 98.7459C120.3 104.877 115.537 109.505 109.116 109.505C102.696 109.505 97.9333 104.897 97.9333 98.7459ZM109.136 104.704C112.414 104.704 114.882 102.159 114.882 98.7654C114.882 95.3719 112.414 92.8074 109.136 92.8074C105.858 92.8074 103.39 95.3525 103.39 98.7459C103.39 102.139 105.839 104.704 109.136 104.704Z" fill="white"/>
<path d="M121.746 104.145L127.086 102.698C127.434 104.357 128.976 105.302 131.463 105.302C133.507 105.302 134.992 104.376 134.992 103.161C134.992 102.255 133.95 101.619 132.35 101.271L128.359 100.423C124.58 99.6132 122.247 97.6078 122.247 94.7156C122.247 90.6859 125.737 87.9863 130.847 87.9863C135.416 87.9863 138.887 90.0687 139.812 93.4236L134.818 94.8117C134.491 93.2115 132.909 92.1511 130.711 92.1511C128.861 92.1511 127.627 93.0189 127.627 94.2335C127.627 95.1783 128.475 95.6796 129.844 95.9882L134.51 97.0486C138.077 97.8585 140.236 99.8443 140.236 102.737C140.236 106.959 136.708 109.504 130.982 109.504C125.968 109.504 122.479 107.48 121.746 104.144V104.145Z" fill="white"/>
<path d="M141.548 104.145L146.888 102.698C147.235 104.357 148.778 105.302 151.265 105.302C153.309 105.302 154.794 104.376 154.794 103.161C154.794 102.255 153.752 101.619 152.152 101.271L148.161 100.423C144.382 99.6132 142.049 97.6078 142.049 94.7156C142.049 90.6859 145.539 87.9863 150.648 87.9863C155.218 87.9863 158.689 90.0687 159.614 93.4236L154.582 94.7927C154.254 93.1925 152.673 92.132 150.475 92.132C148.624 92.132 147.39 92.9999 147.39 94.2144C147.39 95.1593 148.238 95.6605 149.607 95.9691L154.273 97.0296C157.84 97.8394 160 99.8253 160 102.717C160 106.94 156.471 109.485 150.745 109.485C145.77 109.505 142.28 107.48 141.548 104.145Z" fill="white"/>
<path d="M55.8422 85.7498L57.5584 77.6904C57.6355 77.2857 57.2883 76.9191 56.8836 77.0156C54.3961 77.4593 51.8125 78.2301 49.2484 79.3295C37.7176 84.2076 30.7377 93.7711 33.6685 100.693C35.8859 105.88 43.0394 108.097 51.3494 106.805L49.6332 114.865C49.5562 115.269 49.9033 115.636 50.308 115.539C52.7955 115.096 55.3791 114.325 57.9432 113.225C69.4736 108.347 76.434 98.7838 73.5033 91.8424C71.3053 86.6752 64.1518 84.4578 55.8414 85.7494L55.8422 85.7498Z" fill="white"/>
</g>
<defs>
<linearGradient id="paint0_linear_21_287" x1="177.5" y1="173.5" x2="23.5" y2="19" gradientUnits="userSpaceOnUse">
<stop stop-color="white"/>
<stop offset="1" stop-color="white" stop-opacity="0"/>
</linearGradient>
<clipPath id="clip0_21_287">
<rect width="127" height="38.5555" fill="white" transform="translate(33 77)"/>
</clipPath>
</defs>
</svg>
