<svg width="57" height="56" viewBox="0 0 57 56" fill="none" xmlns="http://www.w3.org/2000/svg">
<g id="Frame 2134370">
<g id="Group 2134341">
<rect id="Rectangle 2845" x="19.5" y="11" width="18" height="34" rx="9" stroke="#A5A8A9" stroke-width="6"/>
<path id="Subtract" fill-rule="evenodd" clip-rule="evenodd" d="M14.5 20C11.1863 20 8.5 22.6863 8.5 26V42C8.5 45.3137 11.1863 48 14.5 48H42.5C45.8137 48 48.5 45.3137 48.5 42V26C48.5 22.6863 45.8137 20 42.5 20H14.5ZM32.5 32C32.5 33.5485 31.6201 34.8914 30.3331 35.5562L31.9641 40.5H25.0359L26.6669 35.5562C25.3799 34.8914 24.5 33.5485 24.5 32C24.5 29.7909 26.2909 28 28.5 28C30.7091 28 32.5 29.7909 32.5 32Z" fill="#A5A8A9"/>
</g>
</g>
</svg>
