<svg width="100" height="100" viewBox="0 0 100 100" fill="none" xmlns="http://www.w3.org/2000/svg">
<circle opacity="0.3" cx="50" cy="50" r="50" fill="white"/>
<path opacity="0.3" d="M34.3735 44.7031C34.2889 44.2926 34.1217 43.9414 33.8721 43.6494C33.6224 43.3532 33.3177 43.1289 32.958 42.9766C32.6025 42.8242 32.2196 42.748 31.8091 42.748C31.2463 42.748 30.7406 42.8898 30.292 43.1733C29.8477 43.4569 29.4964 43.8737 29.2383 44.4238C28.9801 44.974 28.8511 45.6341 28.8511 46.4043C28.8511 47.1702 28.9801 47.8283 29.2383 48.3784C29.4964 48.9285 29.8477 49.3454 30.292 49.6289C30.7406 49.9124 31.2463 50.0563 31.8091 50.0605C32.2196 50.0563 32.6025 49.9801 32.958 49.832C33.3135 49.6797 33.616 49.4575 33.8657 49.1655C34.1154 48.8735 34.2847 48.5244 34.3735 48.1182H35.5161C35.4061 48.7318 35.1776 49.2671 34.8306 49.7241C34.4836 50.1769 34.0477 50.5239 33.5229 50.7651C33.0024 51.0063 32.4312 51.127 31.8091 51.127C31.022 51.127 30.3195 50.9344 29.7017 50.5493C29.0881 50.1642 28.6077 49.6162 28.2607 48.9053C27.918 48.1901 27.7466 47.3564 27.7466 46.4043C27.7466 45.4521 27.918 44.6206 28.2607 43.9097C28.6077 43.1945 29.0881 42.6444 29.7017 42.2593C30.3195 41.8742 31.022 41.6816 31.8091 41.6816C32.4312 41.6816 33.0024 41.8022 33.5229 42.0435C34.0435 42.2804 34.4772 42.6274 34.8242 43.0845C35.1755 43.5373 35.4061 44.0768 35.5161 44.7031H34.3735ZM39.7944 51.1396C39.1724 51.1396 38.6222 50.9937 38.144 50.7017C37.6701 50.4054 37.3019 49.9886 37.0396 49.4512C36.7772 48.9137 36.646 48.2917 36.646 47.585C36.646 46.874 36.7772 46.2498 37.0396 45.7124C37.3019 45.175 37.6701 44.7581 38.144 44.4619C38.6222 44.1657 39.1724 44.0176 39.7944 44.0176C40.4123 44.0176 40.9582 44.1657 41.4321 44.4619C41.9061 44.7581 42.2721 45.175 42.5303 45.7124C42.7884 46.2498 42.9175 46.874 42.9175 47.585C42.9175 48.2917 42.7884 48.9137 42.5303 49.4512C42.2721 49.9886 41.9061 50.4054 41.4321 50.7017C40.9582 50.9937 40.4123 51.1396 39.7944 51.1396ZM37.7378 47.585C37.742 48.0589 37.8182 48.4927 37.9663 48.8862C38.1187 49.2798 38.3493 49.5929 38.6582 49.8257C38.9671 50.0584 39.3459 50.1748 39.7944 50.1748C40.2388 50.1748 40.6133 50.0584 40.918 49.8257C41.2227 49.5929 41.4491 49.2798 41.5972 48.8862C41.7495 48.4927 41.8257 48.0589 41.8257 47.585C41.8257 47.111 41.7495 46.6772 41.5972 46.2837C41.4491 45.8901 41.2227 45.5749 40.918 45.3379C40.6133 45.1009 40.2388 44.9824 39.7944 44.9824C39.3459 44.9824 38.9671 45.1009 38.6582 45.3379C38.3493 45.5749 38.1187 45.8901 37.9663 46.2837C37.8182 46.6772 37.742 47.111 37.7378 47.585ZM44.3521 44.1064H45.4058V45.1855H45.4946C45.6385 44.8174 45.8713 44.5317 46.1929 44.3286C46.5145 44.1213 46.8996 44.0176 47.3481 44.0176C47.7925 44.0176 48.1691 44.1191 48.478 44.3223C48.7869 44.5212 49.0239 44.8089 49.189 45.1855H49.2651C49.4429 44.8216 49.7095 44.536 50.0649 44.3286C50.4246 44.1213 50.8478 44.0176 51.3345 44.0176C51.7534 44.0176 52.1195 44.1043 52.4326 44.2778C52.75 44.4513 52.9976 44.7158 53.1753 45.0713C53.353 45.4268 53.4419 45.8669 53.4419 46.3916V51H52.3501V46.4043C52.3459 45.9261 52.2147 45.5728 51.9565 45.3442C51.6984 45.1115 51.3641 44.9951 50.9536 44.9951C50.6405 44.9951 50.3696 45.0607 50.1411 45.1919C49.9168 45.3231 49.7454 45.5029 49.627 45.7314C49.5085 45.96 49.4471 46.2223 49.4429 46.5186V51H48.3384V46.29C48.3384 46.0361 48.2812 45.8118 48.167 45.6172C48.057 45.4183 47.8983 45.266 47.6909 45.1602C47.4878 45.0501 47.255 44.9951 46.9927 44.9951C46.7176 44.9951 46.4616 45.0692 46.2246 45.2173C45.9876 45.3612 45.7972 45.5622 45.6533 45.8203C45.5137 46.0785 45.4438 46.3704 45.4438 46.6963V51H44.3521V44.1064ZM55.1938 44.1064H56.2856V51H55.1938V44.1064ZM55.7397 42.9639C55.5324 42.9639 55.3525 42.894 55.2002 42.7544C55.0521 42.6147 54.978 42.4476 54.978 42.2529C54.978 42.0498 55.05 41.8763 55.1938 41.7324C55.342 41.5885 55.5197 41.5166 55.7271 41.5166C55.9429 41.5166 56.127 41.5864 56.2793 41.7261C56.4316 41.8657 56.5099 42.0371 56.5142 42.2402C56.5099 42.4391 56.4316 42.6105 56.2793 42.7544C56.1312 42.894 55.9513 42.9639 55.7397 42.9639ZM59.1167 51H58.0249V44.1064H59.0786V45.1855H59.1675C59.3368 44.8174 59.5885 44.5317 59.9229 44.3286C60.2614 44.1213 60.6825 44.0176 61.186 44.0176C61.66 44.0176 62.0705 44.1149 62.4175 44.3096C62.7645 44.5 63.0332 44.7899 63.2236 45.1792C63.4141 45.5685 63.5093 46.0488 63.5093 46.6201V51H62.4175V46.6963C62.4175 46.1631 62.2799 45.7463 62.0049 45.4458C61.7298 45.1453 61.3468 44.9951 60.856 44.9951C60.5174 44.9951 60.217 45.0692 59.9546 45.2173C59.6922 45.3612 59.487 45.5749 59.3389 45.8584C59.1908 46.1377 59.1167 46.472 59.1167 46.8613V51ZM68.0542 53.7295C67.4998 53.7295 67.009 53.6512 66.5815 53.4946C66.1584 53.3381 65.8198 53.1074 65.5659 52.8027C65.3162 52.5023 65.1724 52.1426 65.1343 51.7236H66.2769C66.3488 52.0706 66.5392 52.333 66.8481 52.5107C67.1571 52.6885 67.5591 52.7773 68.0542 52.7773C68.6593 52.7773 69.127 52.6398 69.457 52.3647C69.7913 52.0939 69.9585 51.6813 69.9585 51.127V49.7305H69.8696C69.7384 49.9421 69.6073 50.124 69.4761 50.2764C69.3449 50.4287 69.1439 50.5705 68.873 50.7017C68.6064 50.8328 68.27 50.8984 67.8638 50.8984C67.3009 50.8942 66.7974 50.7567 66.353 50.4858C65.9087 50.2108 65.5596 49.8151 65.3057 49.2988C65.056 48.7783 64.9312 48.1647 64.9312 47.458C64.9312 46.764 65.0539 46.1567 65.2993 45.6362C65.549 45.1157 65.896 44.7158 66.3403 44.4365C66.7889 44.1572 67.3009 44.0176 67.8765 44.0176C68.2827 44.0176 68.6191 44.0832 68.8857 44.2144C69.1566 44.3455 69.3512 44.4831 69.4697 44.627C69.5924 44.7666 69.7342 44.957 69.895 45.1982H69.9839V44.1064H71.0503V51.1904C71.0503 51.7617 70.9191 52.2378 70.6567 52.6187C70.3986 52.9995 70.0452 53.2788 69.5967 53.4565C69.1481 53.6385 68.634 53.7295 68.0542 53.7295ZM66.0356 47.4961C66.0356 47.9785 66.1097 48.4017 66.2578 48.7656C66.4102 49.1296 66.6344 49.4131 66.9307 49.6162C67.2269 49.8193 67.5887 49.9209 68.0161 49.9209C68.6424 49.9209 69.1248 49.7093 69.4634 49.2861C69.8062 48.8587 69.9797 48.262 69.9839 47.4961C69.9797 46.9967 69.9014 46.5609 69.749 46.1885C69.6009 45.8118 69.3787 45.5199 69.0825 45.3125C68.7905 45.1009 68.4351 44.9951 68.0161 44.9951C67.5887 44.9951 67.2248 45.1051 66.9243 45.3252C66.6281 45.541 66.4059 45.8394 66.2578 46.2202C66.1097 46.5968 66.0356 47.0221 66.0356 47.4961ZM38.3218 61.8965C38.2414 61.6003 38.0848 61.3696 37.8521 61.2046C37.6235 61.0353 37.3146 60.9486 36.9253 60.9443C36.646 60.9443 36.3963 60.9909 36.1763 61.084C35.9562 61.1771 35.7827 61.304 35.6558 61.4648C35.5288 61.6214 35.4653 61.7949 35.4653 61.9854C35.4696 62.2139 35.5669 62.4085 35.7573 62.5693C35.9478 62.7259 36.244 62.8529 36.646 62.9502L37.6743 63.2041C38.2879 63.348 38.7471 63.5765 39.0518 63.8896C39.3564 64.1986 39.5109 64.5921 39.5151 65.0703C39.5109 65.4723 39.403 65.8299 39.1914 66.1431C38.9798 66.4562 38.6709 66.7017 38.2646 66.8794C37.8584 67.0529 37.3739 67.1396 36.811 67.1396C36.0409 67.1439 35.4294 66.9788 34.9766 66.6445C34.5238 66.3102 34.2508 65.8278 34.1577 65.1973H35.3003C35.4272 65.8574 35.9139 66.1875 36.7603 66.1875C37.2638 66.1875 37.6595 66.0944 37.9473 65.9082C38.2393 65.7178 38.3853 65.4596 38.3853 65.1338C38.3853 64.8883 38.2943 64.6852 38.1123 64.5244C37.9303 64.3636 37.6447 64.2367 37.2554 64.1436L36.2144 63.9023C35.6177 63.7627 35.1606 63.5342 34.8433 63.2168C34.5301 62.8994 34.3735 62.5101 34.3735 62.0488C34.3735 61.6595 34.4793 61.3104 34.6909 61.0015C34.9067 60.6925 35.2072 60.4513 35.5923 60.2778C35.9816 60.1043 36.4259 60.0176 36.9253 60.0176C37.3908 60.0176 37.8013 60.0959 38.1567 60.2524C38.5122 60.409 38.7936 60.6291 39.001 60.9126C39.2126 61.1961 39.3416 61.5241 39.3882 61.8965H38.3218ZM43.7554 67.1396C43.1333 67.1396 42.5832 66.9937 42.105 66.7017C41.631 66.4054 41.2629 65.9886 41.0005 65.4512C40.7381 64.9137 40.6069 64.2917 40.6069 63.585C40.6069 62.874 40.7381 62.2498 41.0005 61.7124C41.2629 61.175 41.631 60.7581 42.105 60.4619C42.5832 60.1657 43.1333 60.0176 43.7554 60.0176C44.3732 60.0176 44.9191 60.1657 45.3931 60.4619C45.867 60.7581 46.2331 61.175 46.4912 61.7124C46.7493 62.2498 46.8784 62.874 46.8784 63.585C46.8784 64.2917 46.7493 64.9137 46.4912 65.4512C46.2331 65.9886 45.867 66.4054 45.3931 66.7017C44.9191 66.9937 44.3732 67.1396 43.7554 67.1396ZM41.6987 63.585C41.703 64.0589 41.7791 64.4927 41.9272 64.8862C42.0796 65.2798 42.3102 65.5929 42.6191 65.8257C42.9281 66.0584 43.3068 66.1748 43.7554 66.1748C44.1997 66.1748 44.5742 66.0584 44.8789 65.8257C45.1836 65.5929 45.41 65.2798 45.5581 64.8862C45.7104 64.4927 45.7866 64.0589 45.7866 63.585C45.7866 63.111 45.7104 62.6772 45.5581 62.2837C45.41 61.8901 45.1836 61.5749 44.8789 61.3379C44.5742 61.1009 44.1997 60.9824 43.7554 60.9824C43.3068 60.9824 42.9281 61.1009 42.6191 61.3379C42.3102 61.5749 42.0796 61.8901 41.9272 62.2837C41.7791 62.6772 41.703 63.111 41.6987 63.585ZM51.1313 67.1396C50.5093 67.1396 49.9591 66.9937 49.481 66.7017C49.007 66.4054 48.6388 65.9886 48.3765 65.4512C48.1141 64.9137 47.9829 64.2917 47.9829 63.585C47.9829 62.874 48.1141 62.2498 48.3765 61.7124C48.6388 61.175 49.007 60.7581 49.481 60.4619C49.9591 60.1657 50.5093 60.0176 51.1313 60.0176C51.7492 60.0176 52.2951 60.1657 52.769 60.4619C53.243 60.7581 53.609 61.175 53.8672 61.7124C54.1253 62.2498 54.2544 62.874 54.2544 63.585C54.2544 64.2917 54.1253 64.9137 53.8672 65.4512C53.609 65.9886 53.243 66.4054 52.769 66.7017C52.2951 66.9937 51.7492 67.1396 51.1313 67.1396ZM49.0747 63.585C49.0789 64.0589 49.1551 64.4927 49.3032 64.8862C49.4556 65.2798 49.6862 65.5929 49.9951 65.8257C50.304 66.0584 50.6828 66.1748 51.1313 66.1748C51.5757 66.1748 51.9502 66.0584 52.2549 65.8257C52.5596 65.5929 52.786 65.2798 52.9341 64.8862C53.0864 64.4927 53.1626 64.0589 53.1626 63.585C53.1626 63.111 53.0864 62.6772 52.9341 62.2837C52.786 61.8901 52.5596 61.5749 52.2549 61.3379C51.9502 61.1009 51.5757 60.9824 51.1313 60.9824C50.6828 60.9824 50.304 61.1009 49.9951 61.3379C49.6862 61.5749 49.4556 61.8901 49.3032 62.2837C49.1551 62.6772 49.0789 63.111 49.0747 63.585ZM56.7808 67H55.689V60.1064H56.7427V61.1855H56.8315C57.0008 60.8174 57.2526 60.5317 57.5869 60.3286C57.9255 60.1213 58.3465 60.0176 58.8501 60.0176C59.3241 60.0176 59.7345 60.1149 60.0815 60.3096C60.4285 60.5 60.6973 60.7899 60.8877 61.1792C61.0781 61.5685 61.1733 62.0488 61.1733 62.6201V67H60.0815V62.6963C60.0815 62.1631 59.944 61.7463 59.6689 61.4458C59.3939 61.1453 59.0109 60.9951 58.52 60.9951C58.1815 60.9951 57.881 61.0692 57.6187 61.2173C57.3563 61.3612 57.151 61.5749 57.0029 61.8584C56.8548 62.1377 56.7808 62.472 56.7808 62.8613V67ZM64.2456 64.4102H63.1792L63.0903 57.8086H64.3345L64.2456 64.4102ZM62.8999 66.251C62.8957 66.1071 62.9295 65.9738 63.0015 65.8511C63.0776 65.7241 63.1771 65.6247 63.2998 65.5527C63.4268 65.4766 63.5643 65.4385 63.7124 65.4385C63.8563 65.4385 63.9896 65.4744 64.1123 65.5464C64.2393 65.6183 64.3387 65.7157 64.4106 65.8384C64.4868 65.9611 64.5249 66.0944 64.5249 66.2383C64.5249 66.4668 64.4466 66.6636 64.29 66.8286C64.1335 66.9894 63.9409 67.0719 63.7124 67.0762C63.5643 67.0762 63.4268 67.0381 63.2998 66.9619C63.1771 66.8857 63.0776 66.7863 63.0015 66.6636C62.9295 66.5366 62.8957 66.3991 62.8999 66.251Z" fill="black"/>
<path d="M49.3248 24.3184C49.4008 24.1803 49.5992 24.1803 49.6752 24.3184L51.4244 27.4969C51.4426 27.5301 51.4699 27.5574 51.5031 27.5756L54.6816 29.3248C54.8197 29.4008 54.8197 29.5992 54.6816 29.6752L51.5031 31.4244C51.4699 31.4426 51.4426 31.4699 51.4244 31.5031L49.6752 34.6816C49.5992 34.8197 49.4008 34.8197 49.3248 34.6816L47.5756 31.5031C47.5574 31.4699 47.5301 31.4426 47.4969 31.4244L44.3184 29.6752C44.1803 29.5992 44.1803 29.4008 44.3184 29.3248L47.4969 27.5756C47.5301 27.5574 47.5574 27.5301 47.5756 27.4969L49.3248 24.3184Z" fill="#C5C8C9"/>
</svg>
