<svg width="192" height="192" viewBox="0 0 192 192" fill="none" xmlns="http://www.w3.org/2000/svg">
<circle cx="96" cy="96" r="95.5" fill="url(#paint0_linear_21_69)" stroke="url(#paint1_linear_21_69)"/>
<g clip-path="url(#clip0_21_69)">
<path d="M77.8093 88.127V94.1305H71.0018V88.127H67.2526V103.883H71.0018V97.5525H77.8093V103.883H81.5666V88.127H81.3727H77.8093Z" fill="white"/>
<path d="M95.3193 88.127L91.3923 94.3689L87.4734 88.127H83.0414L89.5258 98.4292V103.883H93.271V98.4292L99.7473 88.127H99.3998H95.3193Z" fill="white"/>
<path d="M111.815 88.127V99.6816C111.815 100.118 111.484 100.469 111.019 100.469H105.003V88.127H101.25V103.883H112.34C113.322 103.883 114.118 103.592 114.695 103.023C115.269 102.445 115.56 101.649 115.56 100.667V88.127H111.815Z" fill="white"/>
<path d="M130.129 88.127H119.035V103.883H122.784V91.5368H128.8C129.285 91.5368 129.596 91.9166 129.596 92.3246V103.883H133.341V91.355C133.341 90.3652 133.054 89.5733 132.48 88.9956C131.899 88.4219 131.107 88.127 130.125 88.127H130.129Z" fill="white"/>
<path d="M147.909 88.127H136.819V103.883H147.909C148.895 103.883 149.683 103.592 150.265 103.023C150.838 102.445 151.129 101.653 151.129 100.667V91.355C151.129 90.3652 150.838 89.5733 150.261 88.9956C149.679 88.4219 148.891 88.127 147.909 88.127ZM147.384 92.3529V99.6574C147.384 100.086 147.069 100.469 146.58 100.469H140.568V91.5368H146.56C147.045 91.5368 147.384 91.8842 147.384 92.3529Z" fill="white"/>
<path d="M157.662 88.127C156.677 88.127 155.889 88.4219 155.311 88.9956C154.733 89.5733 154.447 90.3652 154.447 91.355V103.887H158.184V99.015H164.999V103.887H168.744V88.127H157.658H157.662ZM164.999 91.5368V95.5971H158.184V92.3367C158.184 91.9529 158.491 91.5368 158.988 91.5368H164.999Z" fill="white"/>
<path d="M176.15 88.127H172.401V103.883H176.15V88.127Z" fill="white"/>
<path d="M37.6388 107.128C49.5934 107.128 59.2816 102.174 59.2816 96.0658C59.2816 89.9572 49.5934 85 37.6388 85C25.6841 85 16 89.9532 16 96.0658C16 102.179 25.6922 107.128 37.6388 107.128ZM41.7112 101.706C41.3597 102.534 40.7294 104.32 39.3073 105.035C38.8791 105.245 38.3417 105.35 37.8569 105.358C37.7519 105.366 37.6792 105.358 37.6428 105.358C33.728 105.358 30.0676 104.829 26.9931 103.92C26.7669 103.855 26.2659 103.73 26.2659 103.423C26.2659 103.285 26.3386 103.176 26.4437 103.075C26.4881 103.031 26.5527 102.978 26.6376 102.906C27.3527 102.304 29.5263 100.736 33.5987 99.1848C35.0289 98.6394 36.8146 97.9566 38.6852 97.5647C39.7921 97.3304 43.8646 96.7163 41.7072 101.71M52.6437 90.5592C52.7205 90.4178 52.8255 90.3087 53.0073 90.3006C53.1083 90.2844 53.2416 90.3168 53.4517 90.442C55.997 92.0096 57.5039 93.9529 57.5039 96.0658C57.5039 99.8837 52.5952 103.16 45.5654 104.599C45.113 104.687 44.818 104.687 44.713 104.566C44.6483 104.493 44.6281 104.372 44.713 104.227C44.7574 104.142 44.8059 104.077 44.8988 103.972C48.7248 99.4636 51.6418 92.8257 52.4659 90.8985C52.5225 90.7733 52.5912 90.644 52.6437 90.5632M33.631 90.4137C33.9865 89.5855 34.6127 87.7957 36.0389 87.0847C36.4671 86.8706 37.0085 86.7736 37.4812 86.7574H37.7034C41.6263 86.7574 45.2786 87.2907 48.3612 88.2159C48.5834 88.2846 49.0763 88.3735 49.0763 88.6927C49.0763 88.8341 48.9955 88.9472 48.8945 89.0441C48.85 89.0926 48.7894 89.1492 48.6965 89.2179C47.9814 89.8198 45.8159 91.3834 41.7435 92.9348C40.3133 93.4923 38.5155 94.1629 36.653 94.5629C35.55 94.7932 31.4776 95.4113 33.631 90.4178M29.7161 87.5493C30.1727 87.4564 30.5161 87.4564 30.6211 87.5776C30.6858 87.6463 30.71 87.7675 30.6211 87.917C30.5686 87.9978 30.5242 88.0664 30.4353 88.1755C26.6053 92.6802 23.6964 99.3222 22.8682 101.237C22.8035 101.375 22.7429 101.508 22.6944 101.593C22.6056 101.73 22.5086 101.831 22.3228 101.847C22.2298 101.847 22.0884 101.827 21.8743 101.698C19.3412 100.138 17.7696 98.1869 17.7696 96.078C17.7696 92.2641 22.6904 88.9755 29.7121 87.5493" fill="white"/>
<mask id="mask0_21_69" style="mask-type:luminance" maskUnits="userSpaceOnUse" x="16" y="85" width="44" height="23">
<path d="M37.6388 107.128C49.5934 107.128 59.2816 102.174 59.2816 96.0658C59.2816 89.9572 49.5934 85 37.6388 85C25.6841 85 16 89.9532 16 96.0658C16 102.179 25.6922 107.128 37.6388 107.128ZM41.7112 101.706C41.3597 102.534 40.7294 104.32 39.3073 105.035C38.8791 105.245 38.3417 105.35 37.8569 105.358C37.7519 105.366 37.6792 105.358 37.6428 105.358C33.728 105.358 30.0676 104.829 26.9931 103.92C26.7669 103.855 26.2659 103.73 26.2659 103.423C26.2659 103.285 26.3386 103.176 26.4437 103.075C26.4881 103.031 26.5527 102.978 26.6376 102.906C27.3527 102.304 29.5263 100.736 33.5987 99.1848C35.0289 98.6394 36.8146 97.9566 38.6852 97.5647C39.7921 97.3304 43.8646 96.7163 41.7072 101.71M52.6437 90.5592C52.7205 90.4178 52.8255 90.3087 53.0073 90.3006C53.1083 90.2844 53.2416 90.3168 53.4517 90.442C55.997 92.0096 57.5039 93.9529 57.5039 96.0658C57.5039 99.8837 52.5952 103.16 45.5654 104.599C45.113 104.687 44.818 104.687 44.713 104.566C44.6483 104.493 44.6281 104.372 44.713 104.227C44.7574 104.142 44.8059 104.077 44.8988 103.972C48.7248 99.4636 51.6418 92.8257 52.4659 90.8985C52.5225 90.7733 52.5912 90.644 52.6437 90.5632M33.631 90.4137C33.9865 89.5855 34.6127 87.7957 36.0389 87.0847C36.4671 86.8706 37.0085 86.7736 37.4812 86.7574H37.7034C41.6263 86.7574 45.2786 87.2907 48.3612 88.2159C48.5834 88.2846 49.0763 88.3735 49.0763 88.6927C49.0763 88.8341 48.9955 88.9472 48.8945 89.0441C48.85 89.0926 48.7894 89.1492 48.6965 89.2179C47.9814 89.8198 45.8159 91.3834 41.7435 92.9348C40.3133 93.4923 38.5155 94.1629 36.653 94.5629C35.55 94.7932 31.4776 95.4113 33.631 90.4178M29.7161 87.5493C30.1727 87.4564 30.5161 87.4564 30.6211 87.5776C30.6858 87.6463 30.71 87.7675 30.6211 87.917C30.5686 87.9978 30.5242 88.0664 30.4353 88.1755C26.6053 92.6802 23.6964 99.3222 22.8682 101.237C22.8035 101.375 22.7429 101.508 22.6944 101.593C22.6056 101.73 22.5086 101.831 22.3228 101.847C22.2298 101.847 22.0884 101.827 21.8743 101.698C19.3412 100.138 17.7696 98.1869 17.7696 96.078C17.7696 92.2641 22.6904 88.9755 29.7121 87.5493" fill="white"/>
</mask>
<g mask="url(#mask0_21_69)">
<path d="M37.6391 106.906C25.8259 106.906 16.2185 102.045 16.2185 96.0659C16.2185 90.0866 25.8259 85.2183 37.6391 85.2183C49.4524 85.2183 59.0597 90.0825 59.0597 96.0619C59.0597 102.041 49.4524 106.901 37.6391 106.901M40.0632 97.181C39.6309 97.181 39.1461 97.2335 38.6451 97.3386C36.7745 97.7304 34.9928 98.4132 33.5586 98.9546L33.5223 98.9667C29.167 100.627 27.0419 102.263 26.4965 102.728L26.4036 102.809C26.3592 102.849 26.3188 102.882 26.2905 102.914C26.1895 103.011 26.0481 103.177 26.0481 103.415C26.0481 103.867 26.5935 104.025 26.8844 104.11L26.9369 104.122C30.1326 105.071 33.8374 105.568 37.6472 105.568C37.6916 105.568 37.728 105.568 37.7644 105.568C37.7967 105.568 37.833 105.568 37.8775 105.568C38.4067 105.556 38.9683 105.435 39.4046 105.221C40.7783 104.538 41.4287 102.962 41.8125 102.021L41.9095 101.783C42.6327 100.11 42.7418 98.8617 42.2287 98.0819C41.8368 97.4759 41.1055 97.177 40.0591 97.177M53.0561 90.0583H52.9794C52.7572 90.0745 52.5754 90.1997 52.4461 90.4421C52.3855 90.535 52.3087 90.7007 52.2643 90.7855C50.9391 93.9045 48.1919 99.7343 44.7295 103.811C44.6366 103.92 44.576 104.001 44.5194 104.106C44.374 104.352 44.4426 104.578 44.5517 104.704C44.6487 104.809 44.8103 104.865 45.0406 104.865C45.1901 104.865 45.3759 104.845 45.6102 104.801C52.9713 103.298 57.7265 99.8636 57.7265 96.0538C57.7265 93.9247 56.2882 91.9167 53.5692 90.2401C53.3713 90.1189 53.2097 90.0623 53.0561 90.0623M30.274 87.2424C30.1043 87.2424 29.9064 87.2666 29.6761 87.3151C22.315 88.814 17.5598 92.248 17.5598 96.0659C17.5598 98.1708 19.0143 100.179 21.7736 101.876C21.9797 102.001 22.1655 102.061 22.3312 102.061C22.6382 102.037 22.7877 101.859 22.8887 101.706C22.9332 101.625 22.9857 101.52 23.0382 101.407L23.0746 101.326C25.4582 95.8074 28.06 91.3107 30.6093 88.313C30.7144 88.1837 30.7669 88.111 30.8194 88.0261C30.977 87.7676 30.9083 87.5413 30.7911 87.4201C30.6982 87.3151 30.5285 87.2585 30.2781 87.2585M37.4775 86.5353C36.9079 86.5555 36.3624 86.6808 35.9463 86.8868C34.5808 87.5656 33.9343 89.1291 33.5465 90.0623L33.4374 90.329C32.7142 92.0016 32.6051 93.2459 33.1182 94.0297C33.5142 94.6317 34.2454 94.9347 35.2918 94.9347C35.7241 94.9347 36.213 94.8781 36.7099 94.7771C38.4956 94.3974 40.2288 93.7671 41.8368 93.1409C46.1718 91.4885 48.3009 89.8482 48.8504 89.3876C48.9554 89.3109 49.0241 89.2462 49.0726 89.1937C49.1776 89.0927 49.3069 88.9352 49.3069 88.6968C49.3069 88.2483 48.7938 88.1069 48.5151 88.0342L48.4302 88.01C45.2264 87.0525 41.5176 86.5434 37.7078 86.5434H37.4775" fill="white"/>
<mask id="mask1_21_69" style="mask-type:luminance" maskUnits="userSpaceOnUse" x="16" y="85" width="44" height="22">
<path d="M37.6391 106.906C25.8259 106.906 16.2185 102.045 16.2185 96.0659C16.2185 90.0866 25.8259 85.2183 37.6391 85.2183C49.4524 85.2183 59.0597 90.0825 59.0597 96.0619C59.0597 102.041 49.4524 106.901 37.6391 106.901M40.0632 97.181C39.6309 97.181 39.1461 97.2335 38.6451 97.3386C36.7745 97.7304 34.9928 98.4132 33.5586 98.9546L33.5223 98.9667C29.167 100.627 27.0419 102.263 26.4965 102.728L26.4036 102.809C26.3592 102.849 26.3188 102.882 26.2905 102.914C26.1895 103.011 26.0481 103.177 26.0481 103.415C26.0481 103.867 26.5935 104.025 26.8844 104.11L26.9369 104.122C30.1326 105.071 33.8374 105.568 37.6472 105.568C37.6916 105.568 37.728 105.568 37.7644 105.568C37.7967 105.568 37.833 105.568 37.8775 105.568C38.4067 105.556 38.9683 105.435 39.4046 105.221C40.7783 104.538 41.4287 102.962 41.8125 102.021L41.9095 101.783C42.6327 100.11 42.7418 98.8617 42.2287 98.0819C41.8368 97.4759 41.1055 97.177 40.0591 97.177M53.0561 90.0583H52.9794C52.7572 90.0745 52.5754 90.1997 52.4461 90.4421C52.3855 90.535 52.3087 90.7007 52.2643 90.7855C50.9391 93.9045 48.1919 99.7343 44.7295 103.811C44.6366 103.92 44.576 104.001 44.5194 104.106C44.374 104.352 44.4426 104.578 44.5517 104.704C44.6487 104.809 44.8103 104.865 45.0406 104.865C45.1901 104.865 45.3759 104.845 45.6102 104.801C52.9713 103.298 57.7265 99.8636 57.7265 96.0538C57.7265 93.9247 56.2882 91.9167 53.5692 90.2401C53.3713 90.1189 53.2097 90.0623 53.0561 90.0623M30.274 87.2424C30.1043 87.2424 29.9064 87.2666 29.6761 87.3151C22.315 88.814 17.5598 92.248 17.5598 96.0659C17.5598 98.1708 19.0143 100.179 21.7736 101.876C21.9797 102.001 22.1655 102.061 22.3312 102.061C22.6382 102.037 22.7877 101.859 22.8887 101.706C22.9332 101.625 22.9857 101.52 23.0382 101.407L23.0746 101.326C25.4582 95.8074 28.06 91.3107 30.6093 88.313C30.7144 88.1837 30.7669 88.111 30.8194 88.0261C30.977 87.7676 30.9083 87.5413 30.7911 87.4201C30.6982 87.3151 30.5285 87.2585 30.2781 87.2585M37.4775 86.5353C36.9079 86.5555 36.3624 86.6808 35.9463 86.8868C34.5808 87.5656 33.9343 89.1291 33.5465 90.0623L33.4374 90.329C32.7142 92.0016 32.6051 93.2459 33.1182 94.0297C33.5142 94.6317 34.2454 94.9347 35.2918 94.9347C35.7241 94.9347 36.213 94.8781 36.7099 94.7771C38.4956 94.3974 40.2288 93.7671 41.8368 93.1409C46.1718 91.4885 48.3009 89.8482 48.8504 89.3876C48.9554 89.3109 49.0241 89.2462 49.0726 89.1937C49.1776 89.0927 49.3069 88.9352 49.3069 88.6968C49.3069 88.2483 48.7938 88.1069 48.5151 88.0342L48.4302 88.01C45.2264 87.0525 41.5176 86.5434 37.7078 86.5434H37.4775" fill="white"/>
</mask>
<g mask="url(#mask1_21_69)">
<path d="M37.639 106.894C25.8419 106.894 16.2466 102.033 16.2466 96.0661C16.2466 90.0989 25.8419 85.2346 37.639 85.2346C49.4361 85.2346 59.0353 90.0908 59.0353 96.0621C59.0353 102.033 49.4401 106.89 37.639 106.89M40.059 97.1772C39.6307 97.1772 39.1378 97.2337 38.645 97.3388C36.7744 97.7306 34.9967 98.4094 33.5706 98.9508L33.5342 98.9669C29.183 100.627 27.066 102.256 26.5206 102.72L26.4237 102.805C26.3792 102.845 26.3429 102.874 26.3105 102.906C26.2095 103.007 26.0722 103.169 26.0722 103.411C26.0722 103.859 26.6135 104.017 26.9085 104.102L26.9569 104.118C30.1527 105.063 33.8494 105.564 37.6551 105.564C37.7036 105.564 37.7359 105.564 37.7723 105.564C37.8046 105.564 37.841 105.564 37.8854 105.56C38.4147 105.552 38.9803 105.423 39.4085 105.213C40.7781 104.526 41.4286 102.954 41.8164 102.013L41.9174 101.775C42.6366 100.102 42.7457 98.8578 42.2366 98.0781C41.8407 97.4802 41.1135 97.1731 40.0671 97.1731M53.0479 90.0666H52.9711C52.7489 90.0827 52.5671 90.208 52.4419 90.4504C52.3773 90.5473 52.3005 90.709 52.2601 90.7938C50.9309 93.9087 48.1877 99.7305 44.7334 103.799C44.6405 103.908 44.5799 103.989 44.5233 104.094C44.3779 104.344 44.4425 104.566 44.5556 104.692C44.6526 104.801 44.8142 104.853 45.0404 104.853C45.1899 104.853 45.3758 104.833 45.6101 104.785C52.9631 103.282 57.7102 99.8557 57.7102 96.05C57.7102 93.9249 56.28 91.9169 53.561 90.2443C53.3671 90.1231 53.2014 90.0666 53.0479 90.0666ZM30.2941 87.2506C30.1284 87.2506 29.9305 87.2749 29.6961 87.3234C22.331 88.8222 17.5839 92.2523 17.5839 96.0661C17.5839 98.171 19.0384 100.175 21.7897 101.872C21.9997 101.993 22.1815 102.05 22.3553 102.05C22.6583 102.029 22.8078 101.848 22.9047 101.694C22.9532 101.609 23.0017 101.504 23.0542 101.395L23.0906 101.318C25.4702 95.8035 28.068 91.3109 30.6173 88.3172C30.7183 88.192 30.7708 88.1152 30.8233 88.0304C30.9809 87.7758 30.9082 87.5496 30.791 87.4244C30.7021 87.3193 30.5324 87.2627 30.2819 87.2627M37.4693 86.5436C36.8996 86.5638 36.3542 86.6891 35.9421 86.8951C34.5806 87.5738 33.9302 89.1333 33.5423 90.0666L33.4332 90.3292C32.71 92.0018 32.605 93.2461 33.1141 94.0259C33.51 94.6238 34.2372 94.9309 35.2836 94.9309C35.7118 94.9309 36.2007 94.8743 36.6976 94.7733C38.4833 94.3935 40.2125 93.7633 41.8164 93.1371C46.1434 91.4847 48.2725 89.8484 48.822 89.3878C48.923 89.307 48.9916 89.2505 49.0401 89.1899C49.1452 89.0929 49.2785 88.9354 49.2785 88.6929C49.2785 88.2445 48.7654 88.1031 48.4907 88.0304L48.4058 88.0061C45.202 87.0486 41.5053 86.5436 37.6955 86.5436H37.4652" fill="white"/>
<mask id="mask2_21_69" style="mask-type:luminance" maskUnits="userSpaceOnUse" x="16" y="85" width="44" height="22">
<path d="M37.639 106.894C25.8419 106.894 16.2466 102.033 16.2466 96.0661C16.2466 90.0989 25.8419 85.2346 37.639 85.2346C49.4361 85.2346 59.0353 90.0908 59.0353 96.0621C59.0353 102.033 49.4401 106.89 37.639 106.89M40.059 97.1772C39.6307 97.1772 39.1378 97.2337 38.645 97.3388C36.7744 97.7306 34.9967 98.4094 33.5706 98.9508L33.5342 98.9669C29.183 100.627 27.066 102.256 26.5206 102.72L26.4237 102.805C26.3792 102.845 26.3429 102.874 26.3105 102.906C26.2095 103.007 26.0722 103.169 26.0722 103.411C26.0722 103.859 26.6135 104.017 26.9085 104.102L26.9569 104.118C30.1527 105.063 33.8494 105.564 37.6551 105.564C37.7036 105.564 37.7359 105.564 37.7723 105.564C37.8046 105.564 37.841 105.564 37.8854 105.56C38.4147 105.552 38.9803 105.423 39.4085 105.213C40.7781 104.526 41.4286 102.954 41.8164 102.013L41.9174 101.775C42.6366 100.102 42.7457 98.8578 42.2366 98.0781C41.8407 97.4802 41.1135 97.1731 40.0671 97.1731M53.0479 90.0666H52.9711C52.7489 90.0827 52.5671 90.208 52.4419 90.4504C52.3773 90.5473 52.3005 90.709 52.2601 90.7938C50.9309 93.9087 48.1877 99.7305 44.7334 103.799C44.6405 103.908 44.5799 103.989 44.5233 104.094C44.3779 104.344 44.4425 104.566 44.5556 104.692C44.6526 104.801 44.8142 104.853 45.0404 104.853C45.1899 104.853 45.3758 104.833 45.6101 104.785C52.9631 103.282 57.7102 99.8557 57.7102 96.05C57.7102 93.9249 56.28 91.9169 53.561 90.2443C53.3671 90.1231 53.2014 90.0666 53.0479 90.0666ZM30.2941 87.2506C30.1284 87.2506 29.9305 87.2749 29.6961 87.3234C22.331 88.8222 17.5839 92.2523 17.5839 96.0661C17.5839 98.171 19.0384 100.175 21.7897 101.872C21.9997 101.993 22.1815 102.05 22.3553 102.05C22.6583 102.029 22.8078 101.848 22.9047 101.694C22.9532 101.609 23.0017 101.504 23.0542 101.395L23.0906 101.318C25.4702 95.8035 28.068 91.3109 30.6173 88.3172C30.7183 88.192 30.7708 88.1152 30.8233 88.0304C30.9809 87.7758 30.9082 87.5496 30.791 87.4244C30.7021 87.3193 30.5324 87.2627 30.2819 87.2627M37.4693 86.5436C36.8996 86.5638 36.3542 86.6891 35.9421 86.8951C34.5806 87.5738 33.9302 89.1333 33.5423 90.0666L33.4332 90.3292C32.71 92.0018 32.605 93.2461 33.1141 94.0259C33.51 94.6238 34.2372 94.9309 35.2836 94.9309C35.7118 94.9309 36.2007 94.8743 36.6976 94.7733C38.4833 94.3935 40.2125 93.7633 41.8164 93.1371C46.1434 91.4847 48.2725 89.8484 48.822 89.3878C48.923 89.307 48.9916 89.2505 49.0401 89.1899C49.1452 89.0929 49.2785 88.9354 49.2785 88.6929C49.2785 88.2445 48.7654 88.1031 48.4907 88.0304L48.4058 88.0061C45.202 87.0486 41.5053 86.5436 37.6955 86.5436H37.4652" fill="white"/>
</mask>
<g mask="url(#mask2_21_69)">
<path d="M37.6393 107.112C49.5778 107.112 59.2538 102.167 59.2538 96.0621C59.2538 89.9575 49.5778 85.0125 37.6393 85.0125C25.7008 85.0125 16.0248 89.9616 16.0248 96.0662C16.0248 102.171 25.7089 107.116 37.6393 107.116M41.7077 101.702C41.3562 102.53 40.73 104.316 39.3079 105.023C38.8796 105.233 38.3423 105.338 37.8615 105.35C37.7565 105.358 37.6838 105.35 37.6474 105.35C33.6639 105.35 29.9389 104.801 26.8361 103.864L26.7432 103.819C26.4361 103.722 26.2866 103.585 26.2866 103.419C26.2866 103.282 26.3594 103.173 26.4644 103.072C26.5088 103.027 26.5735 102.975 26.6583 102.902C27.3734 102.296 29.543 100.737 33.6113 99.1851C35.0375 98.6397 36.8232 97.961 38.6938 97.565C39.8008 97.3348 43.8651 96.7166 41.7117 101.706M52.6362 90.5676C52.7089 90.4302 52.8139 90.3171 52.9957 90.309C53.1008 90.2929 53.2301 90.3211 53.4442 90.4504C55.9814 92.0139 57.4843 93.9532 57.4843 96.0662C57.4843 99.88 52.5796 103.152 45.5619 104.583C45.1095 104.676 44.8145 104.676 44.7135 104.554C44.6448 104.482 44.6246 104.36 44.7135 104.211C44.758 104.13 44.8064 104.066 44.8953 103.956C48.7173 99.4558 51.6342 92.826 52.4544 90.9029C52.515 90.7777 52.5796 90.6484 52.6362 90.5635M33.6437 90.4141C34.0032 89.5899 34.6214 87.8001 36.0475 87.0891C36.4798 86.8749 37.0131 86.778 37.4898 86.7578H37.712C41.6996 86.7578 45.4044 87.3113 48.5153 88.2607L48.6365 88.2971C48.9233 88.394 49.0647 88.5233 49.0768 88.6849C49.0768 88.8303 49.0001 88.9354 48.895 89.0364C48.8506 89.0849 48.79 89.1374 48.6971 89.2061C47.9779 89.8121 45.8205 91.3716 41.7521 92.9189C40.3219 93.4765 38.5281 94.1512 36.6656 94.543C35.5587 94.7774 31.4943 95.3915 33.6477 90.4019M29.7369 87.5375C30.1934 87.4446 30.5368 87.4446 30.6419 87.5698C30.7065 87.6385 30.7307 87.7597 30.6419 87.9092C30.5934 87.986 30.5449 88.0587 30.4601 88.1678C26.6341 92.6644 23.7292 99.3023 22.901 101.213C22.8404 101.351 22.7717 101.484 22.7273 101.565C22.6425 101.702 22.5455 101.807 22.3597 101.819C22.2627 101.819 22.1253 101.795 21.9112 101.67C19.3781 100.11 17.8065 98.1589 17.8065 96.054C17.8065 92.2442 22.7233 88.9596 29.7328 87.5335" fill="white"/>
<path d="M37.6393 107.112C49.5778 107.112 59.2538 102.167 59.2538 96.0621C59.2538 89.9575 49.5778 85.0125 37.6393 85.0125C25.7008 85.0125 16.0248 89.9616 16.0248 96.0662C16.0248 102.171 25.7089 107.116 37.6393 107.116M41.7077 101.702C41.3562 102.53 40.73 104.316 39.3079 105.023C38.8796 105.233 38.3423 105.338 37.8615 105.35C37.7565 105.358 37.6838 105.35 37.6474 105.35C33.6639 105.35 29.9389 104.801 26.8361 103.864L26.7432 103.819C26.4361 103.722 26.2866 103.585 26.2866 103.419C26.2866 103.282 26.3594 103.173 26.4644 103.072C26.5088 103.027 26.5735 102.975 26.6583 102.902C27.3734 102.296 29.543 100.737 33.6113 99.1851C35.0375 98.6397 36.8232 97.961 38.6938 97.565C39.8008 97.3348 43.8651 96.7166 41.7117 101.706M52.6362 90.5676C52.7089 90.4302 52.8139 90.3171 52.9957 90.309C53.1008 90.2929 53.2301 90.3211 53.4442 90.4504C55.9814 92.0139 57.4843 93.9532 57.4843 96.0662C57.4843 99.88 52.5796 103.152 45.5619 104.583C45.1095 104.676 44.8145 104.676 44.7135 104.554C44.6448 104.482 44.6246 104.36 44.7135 104.211C44.758 104.13 44.8064 104.066 44.8953 103.956C48.7173 99.4558 51.6342 92.826 52.4544 90.9029C52.515 90.7777 52.5796 90.6484 52.6362 90.5635M33.6437 90.4141C34.0032 89.5899 34.6214 87.8001 36.0475 87.0891C36.4798 86.8749 37.0131 86.778 37.4898 86.7578H37.712C41.6996 86.7578 45.4044 87.3113 48.5153 88.2607L48.6365 88.2971C48.9233 88.394 49.0647 88.5233 49.0768 88.6849C49.0768 88.8303 49.0001 88.9354 48.895 89.0364C48.8506 89.0849 48.79 89.1374 48.6971 89.2061C47.9779 89.8121 45.8205 91.3716 41.7521 92.9189C40.3219 93.4765 38.5281 94.1512 36.6656 94.543C35.5587 94.7774 31.4943 95.3915 33.6477 90.4019M29.7369 87.5375C30.1934 87.4446 30.5368 87.4446 30.6419 87.5698C30.7065 87.6385 30.7307 87.7597 30.6419 87.9092C30.5934 87.986 30.5449 88.0587 30.4601 88.1678C26.6341 92.6644 23.7292 99.3023 22.901 101.213C22.8404 101.351 22.7717 101.484 22.7273 101.565C22.6425 101.702 22.5455 101.807 22.3597 101.819C22.2627 101.819 22.1253 101.795 21.9112 101.67C19.3781 100.11 17.8065 98.1589 17.8065 96.054C17.8065 92.2442 22.7233 88.9596 29.7328 87.5335" fill="white"/>
<path d="M37.6393 107.112C49.5778 107.112 59.2538 102.167 59.2538 96.0621C59.2538 89.9575 49.5778 85.0125 37.6393 85.0125C25.7008 85.0125 16.0248 89.9616 16.0248 96.0662C16.0248 102.171 25.7089 107.116 37.6393 107.116M41.7077 101.702C41.3562 102.53 40.73 104.316 39.3079 105.023C38.8796 105.233 38.3423 105.338 37.8615 105.35C37.7565 105.358 37.6838 105.35 37.6474 105.35C33.7366 105.35 30.0843 104.821 27.0098 103.912C26.7836 103.847 26.2826 103.722 26.2826 103.419C26.2826 103.282 26.3553 103.173 26.4604 103.072C26.5048 103.027 26.5694 102.975 26.6543 102.902C27.3694 102.296 29.5389 100.737 33.6073 99.1851C35.0334 98.6397 36.8192 97.961 38.6897 97.565C39.7967 97.3348 43.8611 96.7166 41.7077 101.706M52.6321 90.5676C52.7048 90.4302 52.8099 90.3171 52.9917 90.309C53.0967 90.2929 53.226 90.3211 53.4401 90.4504C55.9814 92.0139 57.4843 93.9532 57.4843 96.0662C57.4843 99.88 52.5796 103.152 45.5619 104.583C45.1095 104.676 44.8145 104.676 44.7135 104.554C44.6448 104.482 44.6246 104.36 44.7135 104.211C44.758 104.13 44.8064 104.066 44.8953 103.956C48.7173 99.4558 51.6342 92.826 52.4544 90.9029C52.515 90.7777 52.5796 90.6484 52.6362 90.5676M33.6437 90.4181C34.0032 89.5899 34.6214 87.8042 36.0475 87.0931C36.4798 86.879 37.0131 86.782 37.4898 86.7618H37.708C41.6309 86.7618 45.2791 87.2951 48.3537 88.2203C48.5799 88.2849 49.0728 88.3779 49.0728 88.693C49.0728 88.8384 48.996 88.9435 48.891 89.0445C48.8466 89.093 48.7859 89.1455 48.693 89.2142C47.9779 89.8202 45.8165 91.3796 41.7481 92.927C40.3179 93.4845 38.5241 94.1592 36.6616 94.5511C35.5546 94.7855 31.4903 95.3995 33.6437 90.41M29.7328 87.5456C30.1894 87.4527 30.5328 87.4527 30.6378 87.5779C30.7025 87.6466 30.7267 87.7678 30.6378 87.9173C30.5893 87.994 30.5409 88.0668 30.452 88.1758C26.63 92.6725 23.7212 99.3104 22.897 101.221C22.8364 101.359 22.7677 101.492 22.7233 101.573C22.6384 101.71 22.5415 101.815 22.3556 101.827C22.2587 101.827 22.1172 101.803 21.9072 101.678C19.374 100.118 17.8024 98.167 17.8024 96.0621C17.8024 92.2523 22.7192 88.9677 29.7288 87.5416" fill="white"/>
</g>
</g>
<mask id="mask3_21_69" style="mask-type:luminance" maskUnits="userSpaceOnUse" x="36" y="96" width="13" height="11">
<path d="M36.233 96.3245H48.7856V106.756H36.233V96.3245Z" fill="white"/>
</mask>
<g mask="url(#mask3_21_69)">
<mask id="mask4_21_69" style="mask-type:luminance" maskUnits="userSpaceOnUse" x="36" y="96" width="12" height="11">
<path d="M47.5658 96.7365L44.6529 97.7182C44.6529 97.7465 44.6529 97.7707 44.6529 97.799C44.6529 97.9404 44.6448 98.0818 44.6327 98.2273C44.5398 99.1969 44.164 100.219 43.8974 100.906C43.5742 101.75 43.1823 102.566 42.746 103.358C42.7339 103.378 42.7258 103.399 42.7137 103.419C42.2369 104.275 41.7198 105.124 41.1178 105.895C41.0613 105.96 40.9885 106.021 40.8996 106.069C40.6896 106.178 40.3825 106.243 39.9664 106.267C39.2028 106.307 38.4352 106.332 37.6554 106.332H37.615C37.2312 106.332 36.8515 106.328 36.4677 106.316L36.4232 106.388C36.8313 106.4 37.2434 106.404 37.6595 106.404C40.9966 106.404 44.2085 106.017 47.1012 105.277L47.1376 105.196C45.5296 105.604 43.8206 105.907 42.047 106.097C41.9622 106.105 41.8774 106.114 41.7965 106.122H41.7844C41.7077 106.122 41.6511 106.105 41.6147 106.077C41.6147 106.077 41.5865 106.033 41.5865 106.004C41.5865 105.972 41.6026 105.932 41.6309 105.887C41.8006 105.625 41.9784 105.362 42.1561 105.099C42.5924 104.461 43.049 103.835 43.4934 103.201C43.6227 103.019 43.7479 102.837 43.8732 102.651C45.2024 100.696 46.4184 98.7323 47.5618 96.7324" fill="white"/>
</mask>
<g mask="url(#mask4_21_69)">
<path d="M47.5659 96.7366H36.4233V106.405H47.5659V96.7366Z" fill="white"/>
</g>
</g>
<path d="M37.0452 94.462C36.9159 94.4943 36.7826 94.5226 36.6573 94.5509C36.0675 94.6761 34.6211 94.9105 33.7404 94.3327C32.9768 93.8317 32.6334 92.7207 33.6353 90.4057C33.9707 89.63 34.5363 88.0019 35.7887 87.2221L34.411 86.0586C34.3221 86.1111 34.2454 86.1636 34.1888 86.2323C33.5909 87.004 33.0697 87.8524 32.593 88.7089C32.1445 89.521 31.7405 90.3573 31.4092 91.2218C31.1426 91.9046 30.7669 92.9348 30.6739 93.9004C30.5689 94.9913 30.8234 96.0094 32.0153 96.3689C32.092 96.3932 32.189 96.4214 32.294 96.4497C32.9889 96.6194 34.3141 96.7527 37.3078 95.9488L37.0411 94.466" fill="white"/>
<path d="M51.2176 88.4341L49.0804 88.6603V88.6765C49.0804 88.8179 49.0036 88.931 48.9026 89.032C48.8582 89.0765 48.7976 89.133 48.7047 89.2017C47.9896 89.8037 45.8241 91.3672 41.7516 92.9226C40.7699 93.3064 39.6064 93.7428 38.3701 94.1104C37.9378 94.2397 37.4974 94.3609 37.049 94.4619C36.9197 94.4942 36.7864 94.5225 36.6611 94.5508C36.1036 94.668 34.8108 94.878 33.926 94.4336L32.0594 96.3769C32.1322 96.4012 32.213 96.4214 32.3059 96.4456C33.0008 96.6153 34.3259 96.7486 37.3197 95.9446C38.6771 95.577 40.378 95.0154 42.5193 94.1751C46.1796 92.7408 50.4661 90.2844 51.2095 88.5674C51.2297 88.5189 51.2338 88.4785 51.2257 88.4381" fill="white"/>
<path d="M22.3308 101.835C22.2379 101.835 22.1005 101.811 21.8824 101.686C19.3492 100.126 17.7776 98.1747 17.7776 96.0657C17.7776 92.2519 22.6985 88.9632 29.7202 87.5371C30.1767 87.4442 30.5201 87.4442 30.6252 87.5654L30.6575 87.6179L33.7078 86.0786C33.6876 86.0261 33.6148 85.9978 33.5098 85.9978C29.4333 86.4059 25.6962 87.4118 22.7025 88.935C18.8846 90.8823 16.7757 93.4114 16.7757 96.0617C16.7757 98.712 18.8846 101.249 22.7106 103.192C22.8803 103.277 23.054 103.362 23.2237 103.443C23.3328 103.491 23.4378 103.495 23.5227 103.463L22.4803 101.799C22.4399 101.819 22.3955 101.831 22.3389 101.835" fill="white"/>
<path d="M43.2869 95.7588C42.4466 95.5043 40.374 94.971 32.7948 97.9566C29.1345 99.3868 24.8439 101.847 24.1045 103.564C24.0803 103.629 24.0803 103.681 24.1045 103.734L26.2781 103.483L26.27 103.427C26.27 103.29 26.3428 103.18 26.4478 103.079C26.4922 103.035 26.5569 102.983 26.6417 102.91C27.3568 102.308 29.5304 100.74 33.6028 99.1888C35.029 98.6434 36.8187 97.9607 38.6933 97.5688C39.7963 97.3344 43.8687 96.7203 41.7113 101.714C41.3638 102.534 40.7457 104.279 39.364 105.007L40.8952 106.073C40.9841 106.025 41.0568 105.968 41.1134 105.899C41.7153 105.128 42.2325 104.275 42.7092 103.423C43.1577 102.611 43.5617 101.775 43.893 100.91C44.1596 100.223 44.5353 99.201 44.6282 98.2313C44.7373 97.1405 44.4788 96.1224 43.2829 95.7628" fill="white"/>
<path d="M39.3072 105.035C38.879 105.245 38.3416 105.35 37.8568 105.358C37.7558 105.366 37.6791 105.358 37.6427 105.358C33.6511 105.358 29.9261 104.809 26.8193 103.867L26.7263 103.827C26.4516 103.738 26.3021 103.625 26.2739 103.483L24.1003 103.734C24.1447 103.827 24.2619 103.904 24.4073 103.968C28.1404 105.499 32.7663 106.332 37.6508 106.332C38.4265 106.332 39.1941 106.307 39.9617 106.267C40.3819 106.243 40.6849 106.178 40.895 106.069L39.3638 105.002L39.3072 105.035Z" fill="white"/>
<path d="M44.7173 104.219C44.7618 104.134 44.8103 104.069 44.9032 103.964C48.7291 99.4555 51.6461 92.8136 52.4703 90.8905C52.5268 90.7653 52.5955 90.636 52.648 90.5552C52.7086 90.4461 52.7814 90.3532 52.9066 90.3128L51.7915 88.6604C51.7269 88.6887 51.6744 88.7331 51.6501 88.7937C49.3594 93.7105 46.903 98.195 43.877 102.655C43.1417 103.738 42.3458 104.793 41.6307 105.891C41.5741 105.976 41.5741 106.041 41.6145 106.081L44.6971 104.534C44.6486 104.461 44.6406 104.352 44.7173 104.219Z" fill="white"/>
<path d="M36.0431 87.0766C36.4713 86.8625 37.0127 86.7655 37.4854 86.7494H37.7076C41.6992 86.7494 45.408 87.2988 48.527 88.2563L48.6482 88.2927C48.927 88.3856 49.0684 88.5108 49.0845 88.6644L51.2217 88.4381C51.1975 88.325 51.0682 88.2361 50.9026 88.1594C47.1695 86.6322 42.5436 85.7959 37.6551 85.7959C36.8794 85.7959 36.1118 85.8201 35.3522 85.8605C34.932 85.8848 34.625 85.9494 34.4149 86.0625L35.7926 87.2261C35.8734 87.1736 35.9582 87.1251 36.0431 87.0807" fill="white"/>
<path d="M58.5306 96.0619C58.5306 93.4075 56.4216 90.8784 52.5997 88.9311C52.4341 88.8463 52.2603 88.7614 52.0866 88.6766C51.9775 88.6281 51.8765 88.6241 51.7917 88.6564L52.9068 90.3088C52.9391 90.2967 52.9754 90.2886 53.0158 90.2886C53.1168 90.2724 53.2502 90.3047 53.4603 90.43C56.0055 91.9975 57.5125 93.9408 57.5125 96.0538C57.5125 96.1265 57.5125 96.2033 57.5084 96.276H58.5306C58.5306 96.2033 58.5346 96.1265 58.5346 96.0538" fill="white"/>
<path d="M57.5042 96.268C57.3184 99.9889 52.4622 103.185 45.5698 104.595C45.1173 104.683 44.8223 104.683 44.7173 104.562L44.6971 104.534L41.6145 106.081C41.6549 106.114 41.7115 106.13 41.7963 106.126C45.8687 105.718 49.6099 104.712 52.5995 103.189C56.3205 101.298 58.4132 98.8334 58.5264 96.2639H57.5042" fill="white"/>
<mask id="mask5_21_69" style="mask-type:luminance" maskUnits="userSpaceOnUse" x="48" y="87" width="4" height="3">
<path d="M48.4184 87.5776H51.2222V89.6906H48.4184V87.5776Z" fill="white"/>
</mask>
<g mask="url(#mask5_21_69)">
<path d="M51.2177 88.4342L49.0805 88.6605C49.0805 88.6605 49.0805 88.6726 49.0805 88.6766V88.6847C49.0805 88.8221 48.9997 88.9311 48.8987 89.0281C48.8865 89.0402 48.8785 89.0483 48.8623 89.0604C48.8219 89.1008 48.7694 89.1453 48.7007 89.1978C48.7007 89.1978 48.6684 89.2261 48.6482 89.2422C48.6078 89.2786 48.5593 89.315 48.5068 89.3554L50.3369 89.6826C50.745 89.2867 51.044 88.9069 51.1975 88.5595C51.2096 88.5271 51.2177 88.4989 51.2177 88.4706C51.2177 88.4585 51.2177 88.4423 51.2136 88.4302" fill="white"/>
<path d="M49.3393 87.5776L48.4222 88.22C48.4222 88.22 48.4262 88.22 48.4303 88.22C48.6686 88.2847 49.0686 88.3816 49.0848 88.6604L51.222 88.4341C51.1977 88.321 51.0684 88.2321 50.9028 88.1554C50.3978 87.9534 49.8766 87.7594 49.3393 87.5776Z" fill="white"/>
</g>
<path d="M24.0842 103.645C24.0842 103.677 24.0883 103.706 24.1005 103.73C24.0923 103.706 24.0842 103.682 24.0842 103.653V103.645Z" fill="white"/>
<mask id="mask6_21_69" style="mask-type:luminance" maskUnits="userSpaceOnUse" x="24" y="102" width="3" height="3">
<path d="M24.0842 102.3H26.981V104.51H24.0842V102.3Z" fill="white"/>
</mask>
<g mask="url(#mask6_21_69)">
<path d="M24.4078 103.964C24.8724 104.158 25.3572 104.34 25.8542 104.505C25.3572 104.336 24.8765 104.154 24.4078 103.964ZM24.1048 103.556C24.0927 103.588 24.0846 103.617 24.0846 103.641C24.0846 103.613 24.0927 103.588 24.1048 103.556Z" fill="white"/>
<path d="M25.1065 102.3C24.9409 102.453 24.7914 102.603 24.658 102.748C24.4035 103.031 24.2177 103.302 24.1046 103.556C24.0924 103.589 24.0844 103.617 24.0844 103.641V103.649C24.0844 103.674 24.0924 103.702 24.1005 103.726L26.2741 103.476C26.2741 103.476 26.27 103.439 26.27 103.419C26.27 103.282 26.3428 103.173 26.4478 103.072C26.4922 103.027 26.5569 102.975 26.6417 102.902C26.6417 102.902 26.6741 102.874 26.6943 102.857C26.7468 102.813 26.8074 102.765 26.872 102.712L25.1065 102.296" fill="white"/>
<path d="M26.2742 103.479L24.1006 103.73C24.1451 103.823 24.2623 103.9 24.4077 103.964C24.8763 104.158 25.3612 104.336 25.8541 104.506L26.9772 103.912C26.8398 103.871 26.6217 103.815 26.4641 103.714C26.3954 103.673 26.3389 103.621 26.3025 103.556C26.2904 103.532 26.2783 103.508 26.2742 103.479Z" fill="white"/>
</g>
<mask id="mask7_21_69" style="mask-type:luminance" maskUnits="userSpaceOnUse" x="51" y="88" width="3" height="4">
<path d="M51.0922 88.6401H53.8031V91.0763H51.0922V88.6401Z" fill="white"/>
</mask>
<g mask="url(#mask7_21_69)">
<path d="M51.9083 88.6401C51.8679 88.6401 51.8275 88.6482 51.7912 88.6603C51.7265 88.6886 51.674 88.7331 51.6498 88.7937C51.4639 89.1896 51.2781 89.5855 51.0922 89.9734C51.2781 89.5815 51.4639 89.1896 51.6498 88.7937C51.674 88.7331 51.7265 88.6886 51.7912 88.6603C51.8275 88.6442 51.8679 88.6401 51.9083 88.6401C51.9649 88.6401 52.0255 88.6523 52.0861 88.6805C52.2598 88.7613 52.4335 88.8462 52.5992 88.9351C52.4335 88.8502 52.2598 88.7654 52.0861 88.6805C52.0255 88.6523 51.9649 88.6401 51.9083 88.6401Z" fill="white"/>
<path d="M51.7911 88.6604C51.7265 88.6887 51.6739 88.7331 51.6497 88.7937C51.4639 89.1897 51.278 89.5815 51.0922 89.9734L52.389 91.0764C52.389 91.0764 52.4012 91.0481 52.4092 91.036C52.4294 90.9875 52.4496 90.939 52.4698 90.8946C52.5264 90.7693 52.5951 90.64 52.6476 90.5592C52.6678 90.5188 52.692 90.4825 52.7203 90.4461C52.7405 90.4178 52.7648 90.3936 52.793 90.3734C52.8254 90.3492 52.8617 90.329 52.9062 90.3128L52.7769 90.1229L51.7911 88.6604Z" fill="white"/>
<path d="M51.9088 88.6401C51.8684 88.6401 51.828 88.6482 51.7916 88.6603L52.7774 90.1229L52.9067 90.3127C52.9067 90.3127 52.9229 90.3087 52.9309 90.3047C52.9552 90.2966 52.9835 90.2925 53.0158 90.2925C53.0158 90.2925 53.0481 90.2925 53.0643 90.2925C53.1612 90.2925 53.2824 90.3289 53.4561 90.438C53.5369 90.4905 53.6218 90.539 53.6986 90.5915L53.8036 89.6017C53.6582 89.5128 53.5046 89.4239 53.3511 89.3391C53.1087 89.2017 52.8582 89.0684 52.5996 88.9351C52.434 88.8502 52.2603 88.7654 52.0866 88.6805C52.026 88.6523 51.9654 88.6401 51.9088 88.6401Z" fill="white"/>
</g>
<mask id="mask8_21_69" style="mask-type:luminance" maskUnits="userSpaceOnUse" x="33" y="85" width="4" height="4">
<path d="M33.4573 85.8H36.9398V88.1958H33.4573V85.8Z" fill="white"/>
</mask>
<g mask="url(#mask8_21_69)">
<path d="M34.411 86.0586C34.3221 86.1111 34.2453 86.1636 34.1888 86.2323C33.9343 86.5636 33.6878 86.9111 33.4575 87.2666L34.7665 88.1918C34.8756 88.0423 34.9928 87.9009 35.122 87.7676C35.32 87.5615 35.5382 87.3716 35.7846 87.2181L34.411 86.0586Z" fill="white"/>
<path d="M36.9402 85.8C36.4069 85.8081 35.8736 85.8283 35.3525 85.8566C34.9323 85.8809 34.6252 85.9455 34.4152 86.0586L35.7888 87.2181C35.8696 87.1656 35.9544 87.1171 36.0433 87.0727C36.314 86.9394 36.6291 86.8505 36.9402 86.798V85.8Z" fill="white"/>
</g>
<mask id="mask9_21_69" style="mask-type:luminance" maskUnits="userSpaceOnUse" x="35" y="102" width="8" height="5">
<path d="M35.2717 102.364H42.8347V106.332H35.2717V102.364Z" fill="white"/>
</mask>
<g mask="url(#mask9_21_69)">
<path d="M41.4372 102.364C41.2676 102.76 41.0494 103.217 40.7625 103.649C40.4111 104.182 39.9626 104.683 39.3687 104.998L40.8959 106.065C40.9848 106.017 41.0575 105.96 41.114 105.891C41.716 105.12 42.2331 104.267 42.7099 103.415C42.7099 103.415 42.7301 103.374 42.7422 103.354C42.7705 103.298 42.7988 103.241 42.8311 103.184L41.4332 102.364" fill="white"/>
<path d="M39.3685 105.002C39.3685 105.002 39.3281 105.023 39.3079 105.035C38.8797 105.245 38.3423 105.35 37.8575 105.358C37.8212 105.358 37.7929 105.358 37.7646 105.358C37.708 105.358 37.6676 105.358 37.6474 105.358C36.9081 105.358 36.1768 105.338 35.4537 105.301L35.2719 106.259C36.0435 106.303 36.8232 106.327 37.6111 106.327H37.6515C38.4272 106.327 39.1948 106.303 39.9624 106.263C40.3826 106.239 40.6856 106.174 40.8957 106.065L39.3685 104.998" fill="white"/>
</g>
<path d="M30.662 87.618C30.6984 87.6867 30.6984 87.7917 30.6297 87.9049C30.5772 87.9857 30.5327 88.0544 30.4438 88.1634C26.6179 92.6681 23.7049 99.3101 22.8767 101.225C22.8121 101.362 22.7515 101.496 22.703 101.581C22.6424 101.674 22.5737 101.758 22.4727 101.799L23.5151 103.463C23.5797 103.439 23.6282 103.395 23.6565 103.326C25.9472 98.4172 28.3995 93.9246 31.4256 89.4684C32.1649 88.3856 32.9608 87.3312 33.6719 86.2323C33.7123 86.1676 33.7244 86.1151 33.7082 86.0747L30.658 87.614" fill="white"/>
<mask id="mask10_21_69" style="mask-type:luminance" maskUnits="userSpaceOnUse" x="21" y="100" width="4" height="4">
<path d="M21.2928 100.684H24.4886V103.487H21.2928V100.684Z" fill="white"/>
</mask>
<g mask="url(#mask10_21_69)">
<path d="M22.9975 100.95C22.9975 100.95 22.9934 100.958 22.9894 100.966C22.949 101.059 22.9126 101.148 22.8763 101.225C22.9126 101.144 22.953 101.051 22.9934 100.95" fill="white"/>
<path d="M21.9471 102.789C22.1895 102.926 22.444 103.063 22.7066 103.197C22.444 103.063 22.1935 102.93 21.9471 102.789Z" fill="white"/>
<path d="M21.2927 101.302L21.3776 102.449C21.5634 102.562 21.7493 102.675 21.9472 102.784C22.1937 102.922 22.4442 103.059 22.7068 103.192C22.8764 103.277 23.0502 103.362 23.2199 103.443C23.2805 103.471 23.3411 103.483 23.3976 103.483C23.4421 103.483 23.4825 103.475 23.5188 103.459L22.4765 101.795C22.4563 101.803 22.432 101.811 22.4078 101.819C22.3836 101.823 22.3593 101.827 22.331 101.831C22.2381 101.831 22.0967 101.811 21.8826 101.681C21.7695 101.613 21.6604 101.544 21.5513 101.471C21.4624 101.415 21.3776 101.358 21.2927 101.298" fill="white"/>
<path d="M23.1104 100.684C23.07 100.777 23.0296 100.865 22.9972 100.946C22.9528 101.047 22.9164 101.136 22.8801 101.221C22.8801 101.221 22.8801 101.221 22.8801 101.225C22.8154 101.362 22.7548 101.496 22.7063 101.58C22.6457 101.677 22.5771 101.758 22.4801 101.799L23.5224 103.463C23.5871 103.439 23.6356 103.395 23.6639 103.326C23.9386 102.74 24.2133 102.158 24.4921 101.585L23.1144 100.684" fill="white"/>
</g>
<path d="M33.7203 86.115V86.1231C33.7203 86.1556 33.7041 86.1921 33.6757 86.2367C33.7041 86.1921 33.7203 86.1515 33.7203 86.119" fill="white"/>
<mask id="mask11_21_69" style="mask-type:luminance" maskUnits="userSpaceOnUse" x="29" y="85" width="5" height="4">
<path d="M29.3287 85.9978H33.7203V88.2481H29.3287V85.9978Z" fill="white"/>
</mask>
<g mask="url(#mask11_21_69)">
<path d="M33.5225 85.9976H33.5144C32.3387 86.1148 31.1954 86.2845 30.0884 86.4986L29.3289 87.6177C29.4581 87.5894 29.5874 87.5611 29.7207 87.5369C29.9349 87.4924 30.1207 87.4722 30.2742 87.4722C30.3995 87.4722 30.4964 87.4884 30.5611 87.5207C30.5611 87.5207 30.5813 87.5328 30.5894 87.5409C30.5894 87.5409 30.5894 87.5409 30.5934 87.545C30.5934 87.545 30.6176 87.5773 30.6298 87.5975L33.68 86.0622C33.6598 86.0097 33.5912 85.9814 33.4902 85.9814" fill="white"/>
<path d="M32.6865 87.6864C32.5531 87.8722 32.4239 88.0581 32.2905 88.2439C32.4198 88.0581 32.5531 87.8722 32.6865 87.6864Z" fill="white"/>
<path d="M33.7123 86.0784L30.662 87.6136C30.6782 87.6419 30.6863 87.6783 30.6863 87.7146C30.6863 87.7712 30.6701 87.8318 30.6257 87.9005C30.5731 87.9813 30.5287 88.05 30.4398 88.159L30.3752 88.2398H32.2902C32.4235 88.054 32.5568 87.8682 32.6861 87.6823C32.775 87.5571 32.8639 87.4318 32.9487 87.3066C33.1992 86.9511 33.4416 86.5915 33.68 86.2279C33.7083 86.1834 33.7204 86.1471 33.7244 86.1148V86.1067C33.7244 86.1067 33.7244 86.0824 33.7163 86.0703" fill="white"/>
</g>
<path d="M37.6388 85C25.6882 85 16 89.9532 16 96.0618C16 102.17 25.6882 107.128 37.6388 107.128C49.5894 107.128 59.2816 102.174 59.2816 96.0618C59.2816 89.9491 49.5934 85 37.6388 85ZM52.6195 103.241C48.6359 105.281 43.3191 106.404 37.6549 106.404C31.9907 106.404 26.6739 105.281 22.6864 103.241C18.8644 101.286 16.7515 98.7363 16.7515 96.0658C16.7515 93.3953 18.8644 90.8501 22.6904 88.8906C26.678 86.8544 31.9907 85.7313 37.659 85.7313C43.3272 85.7313 48.64 86.8544 52.6235 88.8906C56.4535 90.8501 58.5624 93.3953 58.5624 96.0658C58.5624 98.7363 56.4495 101.286 52.6235 103.241" fill="white"/>
<path d="M38.3016 95.6577C37.9542 95.7628 37.6229 95.8597 37.3158 95.9446C35.5382 96.4253 34.3464 96.5708 33.5262 96.5748H33.4535C32.9364 96.5748 32.5727 96.5102 32.3021 96.4455C32.5768 96.5142 32.9525 96.5748 33.4899 96.5748C34.31 96.5748 35.5099 96.4334 37.3158 95.9446C37.6269 95.8597 37.9582 95.7628 38.3016 95.6577Z" fill="white"/>
<mask id="mask12_21_69" style="mask-type:luminance" maskUnits="userSpaceOnUse" x="30" y="92" width="9" height="5">
<path d="M30.6536 92.26H38.3702V96.5748H30.6536V92.26Z" fill="white"/>
</mask>
<g mask="url(#mask12_21_69)">
<path d="M33.0615 92.2599C33.009 92.6033 33.0049 92.8982 33.0413 93.1528C33.0251 93.0437 33.0211 92.9306 33.0211 92.8053C33.0211 92.6356 33.0332 92.4538 33.0656 92.2559" fill="white"/>
<path d="M33.0619 92.2597L30.8197 93.0677C30.755 93.3424 30.7066 93.6252 30.6783 93.8959C30.6662 94.0413 30.6581 94.1827 30.6581 94.3241C30.6581 95.2453 30.9894 96.0533 32.0236 96.3644C32.1004 96.3886 32.1974 96.4169 32.3024 96.4452C32.2095 96.421 32.1287 96.3967 32.056 96.3765L33.9225 94.4332C33.87 94.409 33.8215 94.3807 33.773 94.3484C33.773 94.3484 33.7528 94.3363 33.7407 94.3282C33.5468 94.2029 33.3811 94.0373 33.2599 93.8232C33.1508 93.6373 33.0741 93.4151 33.0377 93.1485C33.0054 92.894 33.0094 92.595 33.0579 92.2556" fill="white"/>
<path d="M38.3705 94.1104C37.9624 94.2316 37.5463 94.3447 37.1221 94.4457C37.0817 94.4538 37.0453 94.4659 37.0049 94.474C36.8918 94.5022 36.7746 94.5265 36.6575 94.5507C36.3585 94.6154 35.8414 94.7042 35.2879 94.7042C34.8192 94.7042 34.3263 94.6396 33.9183 94.4336L32.0518 96.3768C32.1245 96.4011 32.2053 96.4213 32.2982 96.4455C32.5649 96.5102 32.9285 96.5708 33.4496 96.5748H33.5224C34.3425 96.5708 35.5303 96.4253 37.312 95.9446C37.6231 95.8597 37.9543 95.7628 38.2978 95.6577L38.3664 94.1104" fill="white"/>
</g>
<mask id="mask13_21_69" style="mask-type:luminance" maskUnits="userSpaceOnUse" x="35" y="95" width="10" height="6">
<path d="M35.3645 95.5486H44.6527V100.898H35.3645V95.5486Z" fill="white"/>
</mask>
<g mask="url(#mask13_21_69)">
<path d="M36.2813 98.215C36.0268 98.2958 35.7723 98.3847 35.5258 98.4695C35.7723 98.3847 36.0227 98.2998 36.2813 98.215ZM40.0669 97.407C40.5557 97.407 41.0688 97.4797 41.485 97.7019C41.0688 97.4757 40.5557 97.407 40.0669 97.407Z" fill="white"/>
<path d="M42.2323 98.6069C42.2969 98.8049 42.3293 99.0392 42.3293 99.3018C42.3293 99.7341 42.2363 100.259 42.0222 100.898C42.3697 99.8674 42.3979 99.1281 42.2323 98.6069Z" fill="white"/>
<path d="M43.0281 95.686C43.1251 95.7103 43.2099 95.7345 43.2867 95.7588C43.214 95.7345 43.1291 95.7103 43.0281 95.686Z" fill="white"/>
<path d="M41.8246 95.5486C40.657 95.5486 38.7218 95.8395 35.3645 96.999L35.5261 98.4696C35.7726 98.3847 36.023 98.2999 36.2816 98.215C37.0533 97.9646 37.8653 97.7343 38.6935 97.5606C38.9925 97.4959 39.5137 97.407 40.0672 97.407C40.556 97.407 41.0691 97.4798 41.4853 97.702L43.8043 95.989C44.1679 96.2152 44.3941 96.5303 44.5194 96.902L42.2327 98.6069C42.3983 99.1322 42.37 99.8674 42.0226 100.898L44.0507 100.486C44.2891 99.8351 44.5517 99.0109 44.6284 98.2231C44.6446 98.0777 44.6487 97.9363 44.6487 97.7949C44.6487 97.7666 44.6487 97.7424 44.6487 97.7141C44.6285 96.8293 44.2891 96.0576 43.2831 95.7546C43.2063 95.7304 43.1255 95.7061 43.0245 95.6819C42.7498 95.6132 42.37 95.5486 41.8165 95.5486" fill="white"/>
</g>
<path d="M41.6145 106.081C41.6509 106.114 41.7074 106.126 41.7842 106.126H41.7963H41.7761C41.7034 106.126 41.6549 106.11 41.6185 106.081" fill="white"/>
<mask id="mask14_21_69" style="mask-type:luminance" maskUnits="userSpaceOnUse" x="41" y="103" width="5" height="4">
<path d="M41.586 103.205H45.9493V106.126H41.586V103.205Z" fill="white"/>
</mask>
<g mask="url(#mask14_21_69)">
<path d="M43.4976 103.205C43.0532 103.839 42.5966 104.465 42.1603 105.103C41.9825 105.362 41.8048 105.625 41.6351 105.891C41.6028 105.936 41.5906 105.976 41.5906 106.008C41.5906 106.037 41.5987 106.061 41.6189 106.081L44.7015 104.534C44.7015 104.534 44.6934 104.522 44.6934 104.518C44.6773 104.485 44.6652 104.449 44.6652 104.409C44.6652 104.352 44.6813 104.291 44.7217 104.223C44.7217 104.223 44.7217 104.223 44.7217 104.219C44.7662 104.134 44.8146 104.073 44.9035 103.968C44.9601 103.904 45.0166 103.835 45.0732 103.766C45.158 103.661 45.2469 103.556 45.3318 103.447L43.4935 103.209" fill="white"/>
<path d="M45.9498 104.514C45.8246 104.542 45.6993 104.566 45.5701 104.594C45.36 104.635 45.1863 104.655 45.0449 104.655C44.8832 104.655 44.7742 104.627 44.7176 104.562C44.7095 104.554 44.7014 104.546 44.6974 104.534L41.6148 106.081C41.6512 106.109 41.6996 106.126 41.7724 106.126H41.7926C41.8774 106.117 41.9623 106.109 42.0431 106.101C43.3884 105.956 44.6934 105.742 45.9458 105.471V104.51" fill="white"/>
</g>
<path d="M29.7207 87.5372C22.703 88.9634 17.7822 92.252 17.7822 96.0659C17.7822 98.1748 19.3538 100.126 21.8869 101.686C22.1051 101.811 22.2384 101.835 22.3354 101.835C22.5212 101.823 22.6182 101.718 22.707 101.581C22.7515 101.496 22.8161 101.362 22.8808 101.225C23.709 99.3101 26.6219 92.6641 30.4479 88.1634C30.5368 88.0503 30.5852 87.9816 30.6337 87.9049C30.7226 87.7554 30.6984 87.6382 30.6337 87.5655C30.5287 87.4443 30.1812 87.4443 29.7287 87.5372H29.7207Z" fill="white"/>
<path d="M48.6445 88.2887L48.5233 88.2523C45.4043 87.2989 41.6996 86.7454 37.7039 86.7454H37.4817C37.005 86.7656 36.4676 86.8625 36.0394 87.0726C34.6132 87.7877 33.991 89.5734 33.6315 90.4017C31.4781 95.3952 35.5505 94.7771 36.6535 94.5468C38.52 94.1509 40.3138 93.4762 41.744 92.9227C45.8164 91.3713 47.9819 89.8078 48.697 89.2017C48.7859 89.1331 48.8505 89.0765 48.895 89.0321C49 88.9311 49.0768 88.822 49.0768 88.6765C49.0687 88.5149 48.9273 88.3856 48.6364 88.2846L48.6445 88.2887Z" fill="white"/>
<path d="M33.486 96.6396C32.6901 96.6396 32.2457 96.5063 31.9992 96.4295C30.9488 96.1104 30.4802 95.2579 30.6135 93.8923C30.7024 92.9833 31.0377 92.0177 31.3528 91.1976C31.672 90.3734 32.0598 89.5492 32.5447 88.6766C33.1143 87.6585 33.6193 86.8666 34.1445 86.1919C34.3425 85.9535 34.7142 85.8323 35.3485 85.7919C36.1242 85.7515 36.8999 85.7273 37.6554 85.7273C42.5601 85.7273 47.1456 86.5474 50.9271 88.0948C51.0402 88.1473 51.3877 88.3008 51.2624 88.5836C50.5069 90.3249 46.2042 92.7934 42.5358 94.2277C38.4755 95.8235 35.4333 96.6315 33.486 96.6315V96.6396ZM37.6513 85.8566C36.8999 85.8566 36.1242 85.8768 35.3525 85.9172C34.7586 85.9535 34.4112 86.0626 34.2375 86.2727C33.7203 86.9393 33.2153 87.7231 32.6537 88.7372C32.173 89.6018 31.7851 90.4219 31.47 91.242C31.2639 91.7753 30.8357 92.8864 30.7347 93.9045C30.6094 95.2013 31.0458 96.0053 32.0316 96.3083C32.2699 96.381 32.7063 96.5103 33.482 96.5103C35.4091 96.5103 38.4392 95.7023 42.4833 94.1145C46.1275 92.6884 50.4019 90.2522 51.1412 88.5432C51.1776 88.4624 51.1735 88.3574 50.8705 88.22C47.1092 86.6767 42.5399 85.8606 37.6513 85.8606V85.8566Z" fill="white"/>
<path d="M32.3223 88.0867C32.0072 88.5271 31.688 88.9796 31.377 89.4361C28.6378 93.4681 26.2501 97.686 23.9028 102.663L24.0159 102.716C26.3632 97.7466 28.7509 93.5328 31.482 89.5048C31.789 89.0523 32.1123 88.5998 32.4233 88.1554C32.7304 87.7231 33.0455 87.2828 33.3526 86.8303L33.2152 86.8101C32.9203 87.2383 32.6173 87.6666 32.3183 88.0827L32.3223 88.0867Z" fill="white"/>
<path d="M42.9799 104.053C43.2951 103.613 43.6183 103.156 43.9253 102.704C46.6443 98.7081 49.0078 94.5266 51.3429 89.6058L51.2096 89.5896C48.8825 94.4822 46.5271 98.6515 43.8203 102.631C43.5132 103.084 43.19 103.54 42.8749 103.976C42.5961 104.372 42.3093 104.776 42.0305 105.184H42.184C42.4466 104.801 42.7133 104.421 42.9759 104.053H42.9799Z" fill="white"/>
<path d="M37.6513 106.409C32.7507 106.409 28.1652 105.588 24.3796 104.037C24.2665 103.988 23.9231 103.827 24.0443 103.548C24.7998 101.803 29.1025 99.3383 32.7709 97.9081C36.8272 96.3123 39.8774 95.5002 41.8167 95.5002C42.6085 95.5002 43.061 95.6376 43.3034 95.7063C44.3579 96.0255 44.8225 96.8779 44.6932 98.2475C44.6043 99.1565 44.2731 100.118 43.9579 100.942C43.6388 101.758 43.2428 102.607 42.7661 103.463C42.2005 104.485 41.6914 105.273 41.1662 105.948C40.9642 106.186 40.5925 106.312 39.9623 106.344C39.1987 106.384 38.419 106.413 37.6513 106.413V106.409ZM41.8207 95.6255C39.8936 95.6255 36.8635 96.4295 32.8194 98.0253C29.1712 99.4474 24.9008 101.888 24.1614 103.597C24.1291 103.677 24.1332 103.782 24.4321 103.924C28.1935 105.467 32.7669 106.279 37.6513 106.279C38.419 106.279 39.1906 106.255 39.9501 106.215C40.5481 106.178 40.8915 106.073 41.0652 105.863C41.5823 105.201 42.0874 104.417 42.653 103.399C43.1257 102.55 43.5256 101.706 43.8367 100.894C44.1478 100.082 44.4791 99.1323 44.568 98.2314C44.6932 96.9345 44.2529 96.1305 43.2671 95.8275C43.0327 95.7588 42.5924 95.6214 41.8167 95.6214L41.8207 95.6255Z" fill="white"/>
<path d="M33.7645 86.0384C33.7403 85.9899 33.6756 85.9333 33.5302 85.9333H33.51C29.4012 86.3454 25.6601 87.3635 22.6825 88.8786C18.8323 90.834 16.7112 93.3873 16.7112 96.0619C16.7112 98.7364 18.8323 101.294 22.6825 103.249C22.8522 103.334 23.0219 103.419 23.1916 103.5C23.2643 103.532 23.3289 103.548 23.3976 103.548C23.5431 103.548 23.6602 103.475 23.7127 103.354C23.8137 103.136 23.9147 102.926 24.0157 102.712L23.9026 102.659C23.8016 102.869 23.7006 103.084 23.5996 103.298C23.5511 103.411 23.3936 103.451 23.2481 103.383C23.0704 103.302 22.9007 103.217 22.735 103.132C18.9333 101.201 16.8365 98.6839 16.8365 96.0578C16.8365 93.4318 18.9293 90.9188 22.735 88.9877C25.6964 87.4807 29.4295 86.4666 33.5261 86.0586C33.6029 86.0586 33.6433 86.0788 33.6514 86.095C33.6635 86.1152 33.6514 86.1515 33.6231 86.2C33.4898 86.402 33.3565 86.604 33.215 86.8101L33.3524 86.8303C33.4777 86.6444 33.6029 86.4586 33.7281 86.2687C33.7968 86.1556 33.7847 86.0828 33.7605 86.0384H33.7645Z" fill="white"/>
<path d="M52.6274 88.8866C52.4578 88.7978 52.284 88.717 52.1143 88.6321C51.9002 88.5352 51.6659 88.6038 51.5891 88.7776C51.4598 89.0482 51.3346 89.3189 51.2094 89.5856L51.3427 89.6017C51.4599 89.3472 51.5811 89.0886 51.7023 88.8301C51.7346 88.7574 51.8113 88.7129 51.9043 88.7129C51.9527 88.7129 52.0053 88.725 52.0497 88.7493C52.2234 88.8301 52.3972 88.9149 52.5628 88.9998C56.3645 90.935 58.4654 93.4479 58.4654 96.074C58.4654 98.7 56.3686 101.213 52.5628 103.148C49.6095 104.651 45.9007 105.661 41.8323 106.073C41.7353 106.085 41.5858 106.073 41.6747 105.936C41.8404 105.685 42.006 105.435 42.1797 105.184H42.0262C41.8727 105.411 41.7192 105.637 41.5697 105.863C41.497 105.976 41.5131 106.049 41.5333 106.097C41.5939 106.211 41.7555 106.203 41.8687 106.19C45.9451 105.774 49.662 104.76 52.6234 103.257C56.4696 101.298 58.5906 98.7485 58.5906 96.0699C58.5906 93.3914 56.4696 90.8421 52.6234 88.8826L52.6274 88.8866Z" fill="white"/>
</g>
</g>
<defs>
<linearGradient id="paint0_linear_21_69" x1="96" y1="0" x2="96" y2="192" gradientUnits="userSpaceOnUse">
<stop stop-color="#002F6C"/>
<stop offset="1" stop-color="#001E44"/>
</linearGradient>
<linearGradient id="paint1_linear_21_69" x1="177.5" y1="173.5" x2="23.5" y2="19" gradientUnits="userSpaceOnUse">
<stop stop-color="white"/>
<stop offset="1" stop-color="white" stop-opacity="0"/>
</linearGradient>
<clipPath id="clip0_21_69">
<rect width="160.15" height="22.1276" fill="white" transform="translate(16 85)"/>
</clipPath>
</defs>
</svg>
