<svg width="21" height="21" viewBox="0 0 21 21" fill="none" xmlns="http://www.w3.org/2000/svg">
<path d="M19.7182 8.53205L11.5925 1.14481C11.294 0.871516 10.904 0.719943 10.4993 0.719971C10.0946 0.719998 9.70465 0.871624 9.40622 1.14496L1.28191 8.532C1.11453 8.68442 0.980777 8.87008 0.88919 9.07711C0.797603 9.28414 0.750198 9.508 0.75 9.73438V19.1249C0.749999 19.3383 0.792037 19.5496 0.873713 19.7468C0.95539 19.944 1.0751 20.1231 1.22602 20.274C1.37694 20.4249 1.5561 20.5446 1.75328 20.6263C1.95046 20.7079 2.16179 20.7499 2.3752 20.7499L7.24951 20.7492C7.46498 20.7491 7.67162 20.6635 7.82397 20.5111C7.97632 20.3588 8.06191 20.1521 8.06191 19.9367V13.4367H12.9369V19.9367C12.9369 20.1521 13.0225 20.3588 13.1748 20.5111C13.3272 20.6635 13.5338 20.7491 13.7493 20.7492L18.6248 20.7499H18.625C18.8384 20.7499 19.0497 20.7079 19.2469 20.6262C19.444 20.5445 19.6232 20.4248 19.774 20.2739C19.9249 20.123 20.0446 19.9439 20.1263 19.7468C20.208 19.5496 20.25 19.3383 20.25 19.1249V9.73442C20.2498 9.50805 20.2024 9.28421 20.1108 9.07719C20.0192 8.87016 19.8855 8.6845 19.7182 8.53205Z" fill="#E1E0E1"/>
</svg>
