<svg width="192" height="192" viewBox="0 0 192 192" fill="none" xmlns="http://www.w3.org/2000/svg">
<circle cx="96" cy="96" r="95.5" fill="#FFCD00" stroke="url(#paint0_linear_21_237)"/>
<g clip-path="url(#clip0_21_237)">
<path d="M44.8718 112.358H41V79.8419L44.8718 79V112.358ZM55.2195 88.7603L58.2494 90.9483L50.8043 100.288L59.429 110.635L56.4432 112.951L46.2619 100.498L55.2244 88.7652L55.2195 88.7603Z" fill="white"/>
<path d="M62.8505 106.176C62.8505 103.846 63.6288 102.074 65.1854 100.855C66.7419 99.6366 69.0033 99.0248 71.9794 99.0248H76.4386V97.5514C76.4386 93.988 74.8673 92.2112 71.7249 92.2112C70.7165 92.2112 69.6592 92.3531 68.553 92.6321C67.4419 92.9111 66.4287 93.2636 65.5035 93.6845L64.3679 90.9483C65.5182 90.3022 66.7566 89.8078 68.0929 89.4554C69.4243 89.1079 70.7214 88.9316 71.9794 88.9316C77.4224 88.9316 80.1391 91.8343 80.1391 97.6395V112.363H77.2805L76.8155 109.837C75.6652 110.763 74.4366 111.477 73.1346 111.981C71.8325 112.486 70.5893 112.74 69.4096 112.74C67.3636 112.74 65.7581 112.158 64.5931 110.993C63.4281 109.828 62.8456 108.222 62.8456 106.176H62.8505ZM70.1145 109.627C70.648 109.627 71.1962 109.558 71.7689 109.416C72.3416 109.275 72.9143 109.093 73.487 108.868C74.0597 108.643 74.5981 108.369 75.1023 108.046C75.6065 107.723 76.0519 107.38 76.4435 107.013V101.629H72.4199C70.3837 101.629 68.8956 101.981 67.9607 102.681C67.0258 103.381 66.5608 104.492 66.5608 106.005C66.5608 108.418 67.7454 109.622 70.1194 109.622L70.1145 109.627Z" fill="white"/>
<path d="M90.8979 112.358H87.0261V79.8419L90.8979 79V112.358ZM101.246 88.7603L104.275 90.9483L96.8304 100.288L105.45 110.635L102.464 112.951L92.2831 100.498L101.241 88.7652L101.246 88.7603Z" fill="white"/>
<path d="M108.876 106.176C108.876 103.846 109.655 102.074 111.211 100.855C112.768 99.6366 115.029 99.0248 118.005 99.0248H122.464V97.5514C122.464 93.988 120.893 92.2112 117.756 92.2112C116.747 92.2112 115.69 92.3531 114.579 92.6321C113.468 92.9111 112.454 93.2636 111.529 93.6845L110.394 90.9483C111.544 90.3022 112.782 89.8078 114.114 89.4554C115.445 89.1079 116.742 88.9316 118.005 88.9316C123.443 88.9316 126.165 91.8343 126.165 97.6395V112.363H123.301L122.836 109.837C121.686 110.763 120.462 111.477 119.155 111.981C117.853 112.486 116.61 112.74 115.435 112.74C113.389 112.74 111.784 112.158 110.619 110.993C109.454 109.828 108.876 108.222 108.876 106.176ZM116.14 109.627C116.669 109.627 117.222 109.558 117.795 109.416C118.367 109.275 118.94 109.093 119.513 108.868C120.085 108.643 120.624 108.369 121.128 108.046C121.627 107.723 122.078 107.38 122.469 107.013V101.629H118.451C116.409 101.629 114.921 101.981 113.991 102.681C113.057 103.381 112.592 104.492 112.592 106.005C112.592 108.418 113.776 109.622 116.15 109.622L116.14 109.627Z" fill="white"/>
<path d="M141.736 88.9707C144.932 88.9707 147.443 90.0084 149.264 92.0838C151.09 94.1592 152 97.1304 152 101.002C152 104.874 151.094 107.747 149.288 109.793C147.482 111.839 144.961 112.862 141.736 112.862C138.51 112.862 136.028 111.839 134.207 109.793C132.382 107.747 131.471 104.815 131.471 101.002C131.471 97.1891 132.386 94.1592 134.227 92.0838C136.062 90.0084 138.569 88.9707 141.736 88.9707ZM141.736 92.0838C139.719 92.0838 138.167 92.8425 137.09 94.355C136.009 95.8675 135.47 98.0849 135.47 101.002C135.47 103.92 136.009 106.073 137.09 107.542C138.167 109.015 139.719 109.749 141.736 109.749C143.752 109.749 145.343 109.015 146.425 107.542C147.502 106.068 148.045 103.89 148.045 101.002C148.045 98.1142 147.507 95.8724 146.425 94.355C145.343 92.8425 143.782 92.0838 141.736 92.0838Z" fill="white"/>
</g>
<defs>
<linearGradient id="paint0_linear_21_237" x1="177.5" y1="173.5" x2="23.5" y2="19" gradientUnits="userSpaceOnUse">
<stop stop-color="white"/>
<stop offset="1" stop-color="white" stop-opacity="0"/>
</linearGradient>
<clipPath id="clip0_21_237">
<rect width="111" height="33.9456" fill="white" transform="translate(41 79)"/>
</clipPath>
</defs>
</svg>
