<svg width="32" height="32" viewBox="0 0 32 32" fill="none" xmlns="http://www.w3.org/2000/svg">
<rect width="32" height="32" rx="16" fill="#134FA8"/>
<g clip-path="url(#clip0_3057_27009)">
<path d="M19.3333 10C19.5083 9.82494 19.7162 9.68605 19.945 9.59129C20.1738 9.49653 20.419 9.44775 20.6666 9.44775C20.9142 9.44775 21.1594 9.49653 21.3882 9.59129C21.617 9.68605 21.8248 9.82494 21.9999 10C22.175 10.1751 22.3139 10.383 22.4087 10.6118C22.5034 10.8406 22.5522 11.0857 22.5522 11.3334C22.5522 11.581 22.5034 11.8262 22.4087 12.055C22.3139 12.2837 22.175 12.4916 21.9999 12.6667L12.9999 21.6667L9.33325 22.6667L10.3333 19L19.3333 10Z" stroke="white" stroke-width="1.5" stroke-linecap="round" stroke-linejoin="round"/>
</g>
<defs>
<clipPath id="clip0_3057_27009">
<rect width="16" height="16" fill="white" transform="translate(8 8)"/>
</clipPath>
</defs>
</svg>
