<svg width="26" height="26" viewBox="0 0 26 26" fill="none" xmlns="http://www.w3.org/2000/svg">
<g clip-path="url(#clip0_1477_10728)">
<path d="M3.7115 15.424L6.52297 6.4446C6.76446 5.67331 7.34929 5.05718 8.10696 4.77584L16.5398 1.64458C17.6821 1.22043 18.9659 1.64211 19.6342 2.66096L24.3597 9.86515C24.7889 10.5196 24.9022 11.3321 24.6684 12.079L21.8435 21.1011C21.5561 22.0192 20.5788 22.5305 19.6607 22.243L4.85337 17.6068C3.93528 17.3194 3.42405 16.3421 3.7115 15.424Z" fill="#3586FF"/>
<g filter="url(#filter0_b_1477_10728)">
<path d="M1 22.0977V13.9465C1 13.1383 1.37402 12.3756 2.01301 11.8807L9.125 6.37274C10.0884 5.62667 11.4395 5.64549 12.3817 6.4181L19.0439 11.8812C19.6491 12.3775 20 13.119 20 13.9017V22.0977C20 23.7545 18.6569 25.0977 17 25.0977H4C2.34315 25.0977 1 23.7545 1 22.0977Z" fill="#96C0FF" fill-opacity="0.52"/>
</g>
<rect x="5" y="19" width="11" height="3" rx="1.5" fill="url(#paint0_linear_1477_10728)"/>
</g>
<defs>
<filter id="filter0_b_1477_10728" x="-3" y="1.82568" width="27" height="27.272" filterUnits="userSpaceOnUse" color-interpolation-filters="sRGB">
<feFlood flood-opacity="0" result="BackgroundImageFix"/>
<feGaussianBlur in="BackgroundImageFix" stdDeviation="2"/>
<feComposite in2="SourceAlpha" operator="in" result="effect1_backgroundBlur_1477_10728"/>
<feBlend mode="normal" in="SourceGraphic" in2="effect1_backgroundBlur_1477_10728" result="shape"/>
</filter>
<linearGradient id="paint0_linear_1477_10728" x1="5" y1="20.5" x2="16.5" y2="20.5" gradientUnits="userSpaceOnUse">
<stop stop-color="white" stop-opacity="0.95"/>
<stop offset="1" stop-color="white" stop-opacity="0.4"/>
</linearGradient>
<clipPath id="clip0_1477_10728">
<rect width="26" height="26" fill="white"/>
</clipPath>
</defs>
</svg>
