<svg width="20" height="21" viewBox="0 0 20 21" fill="none" xmlns="http://www.w3.org/2000/svg">
<path d="M19.2182 8.53205L11.0925 1.14481C10.794 0.871516 10.404 0.719943 9.99933 0.719971C9.59464 0.719998 9.20465 0.871624 8.90622 1.14496L0.781913 8.532C0.614532 8.68442 0.480777 8.87008 0.38919 9.07711C0.297603 9.28414 0.250198 9.508 0.25 9.73438V19.1249C0.249999 19.3383 0.292037 19.5496 0.373713 19.7468C0.45539 19.944 0.575105 20.1231 0.726022 20.274C0.876938 20.4249 1.0561 20.5446 1.25328 20.6263C1.45046 20.7079 1.66179 20.7499 1.8752 20.7499L6.74951 20.7492C6.96498 20.7491 7.17162 20.6635 7.32397 20.5111C7.47632 20.3588 7.56191 20.1521 7.56191 19.9367V13.4367H12.4369V19.9367C12.4369 20.1521 12.5225 20.3588 12.6748 20.5111C12.8272 20.6635 13.0338 20.7491 13.2493 20.7492L18.1248 20.7499H18.125C18.3384 20.7499 18.5497 20.7079 18.7469 20.6262C18.944 20.5445 19.1232 20.4248 19.274 20.2739C19.4249 20.123 19.5446 19.9439 19.6263 19.7468C19.708 19.5496 19.75 19.3383 19.75 19.1249V9.73442C19.7498 9.50805 19.7024 9.28421 19.6108 9.07719C19.5192 8.87016 19.3855 8.6845 19.2182 8.53205Z" fill="#2378F7"/>
</svg>
