<svg width="192" height="192" viewBox="0 0 192 192" fill="none" xmlns="http://www.w3.org/2000/svg">
<circle cx="96" cy="96" r="95.5" fill="url(#paint0_linear_21_256)" stroke="url(#paint1_linear_21_256)"/>
<g clip-path="url(#clip0_21_256)">
<path d="M168 105.885H149.134V107.892H168V105.885Z" fill="white"/>
<path d="M38.4729 95.8589C36.4955 94.9362 34.8623 94.1818 34.8623 92.6731C34.8623 91.516 35.7924 90.6738 37.6087 90.6738C38.2898 90.6738 38.8318 90.747 39.403 90.8569C39.7033 90.9081 40.0182 90.9521 40.2745 90.9521C41.8711 90.9521 42.7719 90 43.3725 88.191L43.6215 87.4587C43.3651 87.3561 40.7579 86.2063 37.3597 86.2063C31.9548 86.2063 29.0986 89.6777 29.0986 93.2737C29.0986 95.09 29.6698 96.4082 30.5633 97.4409C31.7131 98.7811 33.3463 99.6453 34.8696 100.392C37.096 101.491 39.1101 102.296 39.1101 103.915C39.1101 105.35 37.6234 106.171 35.6386 106.171C32.9142 106.171 30.534 104.611 30.2337 104.428L28 108.617C28.3882 108.837 31.2737 110.667 36.0121 110.667C41.0582 110.667 44.8811 107.767 44.8811 103.322C44.8811 98.8763 41.3438 97.2505 38.4729 95.8589Z" fill="white"/>
<path d="M58.2177 97.9243L67.3724 86.7043H60.8396L53.5452 96.3863H53.4354V86.7043H48.0598V110.484H48.3747C50.7036 110.484 53.4647 109.408 53.4647 105.526V100.07H53.5745L61.0227 110.191H67.8631L58.2104 97.9316L58.2177 97.9243Z" fill="white"/>
<path d="M67.6725 61.2251C65.7829 61.584 62.978 63.305 62.9853 66.3444C62.9926 69.1054 65.2483 70.7752 65.2556 74.3931C65.2703 77.1102 63.7616 78.9411 62.1504 79.9591C62.8022 79.9006 63.5199 79.8639 64.3109 79.8639C65.966 79.8639 66.9694 80.0177 67.028 80.0251L75.5235 69.6034C73.1579 66.0734 70.4115 63.3343 67.6798 61.2251" fill="white"/>
<path d="M74.8131 89.3702C75.8823 87.7077 76.0215 85.0565 76.1094 82.3541C76.2119 79.8347 76.7392 77.9379 80.1155 77.9306C80.8552 77.9306 81.5729 78.0331 82.8618 78.0185C87.798 77.9965 91.0278 76.2974 93.0272 75.1769C88.9259 72.5696 82.9497 69.9038 75.5235 69.6035C75.0401 70.9657 71.2831 81.424 70.9974 82.2662C71.0414 82.3175 71.7005 83.0572 72.5281 84.4926C73.7438 86.47 74.3883 88.1471 74.8204 89.3702" fill="white"/>
<path d="M56.8704 80.8307C56.4456 80.8307 56.2332 80.5451 56.1673 80.0544C56.1234 79.5637 53.9848 60.1266 53.6772 57.1898C53.626 56.765 53.5234 55.9814 53.5234 55.6958C53.5234 55.2417 53.8164 55.0073 54.1679 55.0073C55.1786 55.0073 60.6567 56.289 66.4791 60.3683C64.8019 60.837 61.7699 62.5874 61.7773 66.1979C61.7992 69.3911 64.0842 71.1561 64.0989 74.3639C64.1135 79.5784 58.1154 80.838 56.8704 80.8454" fill="white"/>
<path d="M75.3037 90.7617C75.3916 91.0033 75.4795 91.2084 75.56 91.3476C75.6919 91.5746 75.8676 91.6844 76.0874 91.6844C76.2192 91.6844 76.3876 91.6332 76.5707 91.5526C77.0248 91.3476 94.7555 83.0937 97.436 81.856C97.8241 81.6656 98.5565 81.336 98.7982 81.1969C99.0472 81.0577 99.1717 80.8454 99.1717 80.633C99.1717 80.5158 99.1277 80.3986 99.0691 80.2814C98.7323 79.7468 97.0112 77.9232 94.1476 75.9312C91.8773 77.1908 88.3106 79.1243 83.0229 79.1463C81.7266 79.1463 81.4337 79.0584 80.5475 79.0657C77.9622 79.073 77.3251 80.1789 77.2225 82.4419C77.2079 82.874 77.2006 83.4526 77.1786 84.0751C77.098 86.0965 76.8637 88.8868 75.3184 90.7617" fill="white"/>
<path d="M114.171 91.0474C110.582 91.0474 108.304 94.3357 108.304 98.4004C108.304 102.465 110.582 105.753 114.171 105.753C117.759 105.753 120.03 102.458 120.03 98.4004C120.03 94.343 117.752 91.0474 114.171 91.0474ZM114.171 103.681C112.069 103.681 111.329 101.315 111.329 98.4004C111.329 95.4855 112.069 93.1126 114.171 93.1126C116.273 93.1126 117.005 95.4709 117.005 98.4004C117.005 101.33 116.273 103.681 114.171 103.681Z" fill="white"/>
<path d="M125.185 91.3989V108.075C125.185 109.239 124.241 110.184 123.076 110.184H122.315V91.3989H125.193H125.185Z" fill="white"/>
<path d="M158.589 93.8963L163.276 100.385C163.664 100.912 164.265 101.205 164.873 101.213H167.194L160.098 91.3989H158.025C157.417 91.3989 156.817 91.6919 156.436 92.2265L149.94 101.205H153.301L158.589 93.8963Z" fill="white"/>
<path d="M131.967 98.5688V91.3989H129.096V98.4736C129.096 99.6381 130.041 100.576 131.206 100.576H141.906V98.5688H131.967Z" fill="white"/>
<path d="M145.912 91.3989H143.041V101.513H145.912V91.3989Z" fill="white"/>
<path d="M131.315 102.443V104.45H143.033V110.799H143.802C144.967 110.799 145.912 109.855 145.912 108.69V102.443H131.315Z" fill="white"/>
<path d="M105.551 96.3498H103.295V91.3989H100.417V110.184H101.178C102.343 110.184 103.295 109.239 103.295 108.075V98.3638H105.551V96.3498Z" fill="white"/>
<path d="M97.8976 92.351H93.5693V90.7764H90.4934V92.351H86.1724V94.365H88.9334C87.1904 95.6393 86.1724 98.0049 86.1724 100.707C86.1724 104.765 88.45 108.06 92.0387 108.06C95.6273 108.06 97.8976 104.772 97.8976 100.707C97.8976 97.9975 96.8796 95.632 95.1366 94.365H97.8976V92.351ZM92.0387 105.988C89.9368 105.988 89.1971 103.629 89.1971 100.707C89.1971 97.7852 89.9368 95.4196 92.0387 95.4196C94.1406 95.4196 94.8729 97.7852 94.8729 100.707C94.8729 103.629 94.1332 105.988 92.0387 105.988Z" fill="white"/>
</g>
<defs>
<linearGradient id="paint0_linear_21_256" x1="96" y1="0" x2="96" y2="192" gradientUnits="userSpaceOnUse">
<stop stop-color="#F36600"/>
<stop offset="1" stop-color="#E1002A"/>
</linearGradient>
<linearGradient id="paint1_linear_21_256" x1="177.5" y1="173.5" x2="23.5" y2="19" gradientUnits="userSpaceOnUse">
<stop stop-color="white"/>
<stop offset="1" stop-color="white" stop-opacity="0"/>
</linearGradient>
<clipPath id="clip0_21_256">
<rect width="139" height="56" fill="white" transform="translate(28 55)"/>
</clipPath>
</defs>
</svg>
