<svg width="27" height="27" viewBox="0 0 27 27" fill="none" xmlns="http://www.w3.org/2000/svg">
<path d="M15.625 10.3529C17.8944 6.67919 15.625 1.29412 14.4583 0C14.4583 3.93153 12.3898 6.13541 10.9583 7.76471C9.528 9.39529 8.625 11.9576 8.625 14.2353C8.625 16.2946 9.3625 18.2696 10.6753 19.7258C11.988 21.1819 13.7685 22 15.625 22C17.4815 22 19.262 21.1819 20.5747 19.7258C21.8875 18.2696 22.625 16.2946 22.625 14.2353C22.625 12.2527 21.393 9.13647 20.2917 7.76471C18.3479 11.3476 17.441 11.3476 15.625 10.3529Z" fill="#EE6767"/>
<g filter="url(#filter0_b_1632_16026)">
<path d="M10.2188 13.7132C12.7917 9.61059 10.2188 4.01103 8.93229 2.625C8.93229 6.83576 6.6514 9.19617 5.07292 10.9412C3.49572 12.6876 2.5 15.4319 2.5 17.8713C2.5 20.0769 3.31322 22.1922 4.76077 23.7517C6.20832 25.3113 8.17161 26.1875 10.2188 26.1875C12.2659 26.1875 14.2292 25.3113 15.6767 23.7517C17.1243 22.1922 17.9375 20.0769 17.9375 17.8713C17.9375 15.7479 16.579 12.4104 15.3646 10.9412C13.625 14.5 12.125 14.5 10.2188 13.7132Z" fill="#FFA3A3" fill-opacity="0.7"/>
</g>
<g filter="url(#filter1_b_1632_16026)">
<path d="M8.125 17.1765C9.29167 15.2612 8.125 12.6471 7.54167 12C7.54167 13.9658 6.50742 15.0677 5.79167 15.8824C5.0765 16.6976 4.625 17.9788 4.625 19.1176C4.625 20.1473 4.99375 21.1348 5.65013 21.8629C6.3065 22.591 7.19674 23 8.125 23C9.05326 23 9.9435 22.591 10.5999 21.8629C11.2563 21.1348 11.625 20.1473 11.625 19.1176C11.625 18.1264 11.009 16.5682 10.4583 15.8824C9.4375 17.1765 8.82539 17.1765 8.125 17.1765Z" fill="url(#paint0_linear_1632_16026)" fill-opacity="0.6"/>
</g>
<defs>
<filter id="filter0_b_1632_16026" x="0.5" y="0.625" width="19.4375" height="27.5625" filterUnits="userSpaceOnUse" color-interpolation-filters="sRGB">
<feFlood flood-opacity="0" result="BackgroundImageFix"/>
<feGaussianBlur in="BackgroundImageFix" stdDeviation="1"/>
<feComposite in2="SourceAlpha" operator="in" result="effect1_backgroundBlur_1632_16026"/>
<feBlend mode="normal" in="SourceGraphic" in2="effect1_backgroundBlur_1632_16026" result="shape"/>
</filter>
<filter id="filter1_b_1632_16026" x="2.625" y="10" width="11" height="15" filterUnits="userSpaceOnUse" color-interpolation-filters="sRGB">
<feFlood flood-opacity="0" result="BackgroundImageFix"/>
<feGaussianBlur in="BackgroundImageFix" stdDeviation="1"/>
<feComposite in2="SourceAlpha" operator="in" result="effect1_backgroundBlur_1632_16026"/>
<feBlend mode="normal" in="SourceGraphic" in2="effect1_backgroundBlur_1632_16026" result="shape"/>
</filter>
<linearGradient id="paint0_linear_1632_16026" x1="9.4375" y1="23.4583" x2="7.52191" y2="12.4872" gradientUnits="userSpaceOnUse">
<stop offset="0.0867179" stop-color="white"/>
<stop offset="1" stop-color="white" stop-opacity="0.22"/>
</linearGradient>
</defs>
</svg>
