<svg width="192" height="192" viewBox="0 0 192 192" fill="none" xmlns="http://www.w3.org/2000/svg">
<circle cx="96" cy="96" r="95.5" fill="#39BFBF" stroke="url(#paint0_linear_21_303)"/>
<g clip-path="url(#clip0_21_303)">
<path d="M45.7575 84.7529V104.647H33V84.7529H37.0185V89.8984H41.6282V84.7529H45.7575ZM41.6282 100.48V94.4065H37.0185V100.48H41.6282ZM55.7483 91.4226H52.7275V82H48.5335V110.508H52.7968L52.7229 95.8337H55.7436V110.508H59.6236V82H55.7436V91.4273L55.7483 91.4226Z" fill="white"/>
<path d="M66.9631 87.7275V93.1871H77.5451V96.7067H62.7137V83.8153H76.8384V87.7275H66.9585H66.9631ZM64.6213 102.961H80.1501V101.423H64.6213V98.7067H84.806V105.986H68.8707V107.501H84.806V110.596H64.6582L64.6213 102.961ZM88.0116 92.3141H84.9076V97.5705H80.6582V82.1201H84.9076V88.037H88.0116V92.3141Z" fill="white"/>
<path d="M106.52 91.395V110.125H102.986V106.028C99.2818 109.478 89.522 109.192 89.522 109.192V105.931C95.5589 106.397 101.568 104.448 102.94 103.912V91.395H106.524H106.52Z" fill="white"/>
<path d="M96.8476 92.4758H93.6744C91.7391 92.4758 90.3118 93.9539 90.3118 95.783V99.3119C90.3118 101.132 91.9377 102.37 93.6744 102.37H96.5751C98.7737 102.37 100.132 101.086 100.132 99.0763V95.783C100.132 93.9539 98.8476 92.4758 96.8476 92.4758ZM97.2033 98.425C97.2033 99.2195 96.5982 99.8199 95.7991 99.8199H94.7645C93.97 99.8199 93.2402 99.2195 93.2402 98.425V96.4204C93.2402 95.6444 93.97 95.044 94.7645 95.044H95.7991C96.5982 95.044 97.2033 95.649 97.2033 96.4204V98.425Z" fill="white"/>
<path d="M124.072 83.8846V97.7876H109.753V83.8846H124.072ZM112.275 110.591V101.039H116.492V106.554H132.446V110.591H112.275ZM113.831 87.8153V93.9169H119.993V87.8153H113.831ZM127.73 82.1294V100.453H132.109V82.1294H127.73Z" fill="white"/>
<path d="M159 95.053V98.9005H134.534V95.053H144.474V92.1338H149.129V95.053H159Z" fill="white"/>
<path d="M157.559 100.762V104.73C157.559 108.12 156.155 110.614 156.155 110.614H151.952C153.559 107.57 153.388 104.697 153.388 104.697H135.975V100.767H157.559V100.762Z" fill="white"/>
<path d="M136.118 82.8359H157.416V86.2955H150.303C152.053 88.859 154.746 90.0507 157.263 90.7389V93.3671C152.409 92.8544 149.199 90.9745 146.788 88.3694C144.303 91.2424 139.407 93.0946 136.266 93.8059V90.9098C139.628 89.9168 142.649 87.6027 143.014 86.3001H136.118V82.8359Z" fill="white"/>
</g>
<defs>
<linearGradient id="paint0_linear_21_303" x1="177.5" y1="173.5" x2="23.5" y2="19" gradientUnits="userSpaceOnUse">
<stop stop-color="white"/>
<stop offset="1" stop-color="white" stop-opacity="0"/>
</linearGradient>
<clipPath id="clip0_21_303">
<rect width="126" height="28.6143" fill="white" transform="translate(33 82)"/>
</clipPath>
</defs>
</svg>
