<svg width="16" height="16" viewBox="0 0 16 16" fill="none" xmlns="http://www.w3.org/2000/svg">
<path d="M11.3535 7.64643L6.35355 2.64643C6.28362 2.57651 6.19452 2.52889 6.09753 2.5096C6.00054 2.49032 5.90001 2.50022 5.80865 2.53807C5.71729 2.57591 5.6392 2.64 5.58426 2.72222C5.52932 2.80445 5.5 2.90112 5.5 3.00001V13C5.5 13.0989 5.52933 13.1956 5.58427 13.2778C5.63921 13.36 5.71729 13.4241 5.80865 13.4619C5.90001 13.4998 6.00054 13.5097 6.09753 13.4904C6.19452 13.4711 6.28362 13.4235 6.35355 13.3536L11.3535 8.35358C11.4 8.30715 11.4368 8.25203 11.4619 8.19136C11.4871 8.1307 11.5 8.06567 11.5 8.00001C11.5 7.93434 11.4871 7.86932 11.4619 7.80865C11.4368 7.74799 11.4 7.69286 11.3535 7.64643Z" fill="#C5C8C9"/>
</svg>
