<svg width="18" height="34" viewBox="0 0 18 34" fill="none" xmlns="http://www.w3.org/2000/svg">
<g id="Frame 2134354">
<g id="Group 2134326">
<path id="Union" fill-rule="evenodd" clip-rule="evenodd" d="M15.2537 5.80585L15.6269 6.02973L15.56 6.22068C15.7787 6.32219 15.9427 6.54138 15.9188 6.8455L15.0105 18.3862C14.9789 18.7876 14.6526 19.1021 14.2504 19.1191L7.86557 19.3879L4.51963 26.6375C4.26024 27.1995 3.60827 27.2126 3.24799 26.8873L3.12618 27.1617L2.04468 25.8808L3.16408 24.9106L3.21058 24.9746L4.8497 15.0978C4.91118 14.7273 5.22325 14.4502 5.59842 14.433L10.9483 14.187C11.2536 14.173 11.5239 13.9853 11.6439 13.7042L14.6982 6.54563C14.783 6.34674 14.9318 6.22942 15.097 6.18201L15.2537 5.80585Z" fill="url(#paint0_linear_2868_19426)"/>
<path id="Vector 699" d="M3.0325 27.0743L2.40981 26.3218C2.19168 26.0583 2.16637 25.6848 2.34693 25.3942L6.8208 18.1941L7.86557 19.3881L4.36741 26.9027C4.12058 27.4329 3.40538 27.5248 3.0325 27.0743Z" fill="url(#paint1_linear_2868_19426)"/>
<path id="Vector 702" d="M7.86561 19.388L7.26859 18.7164L4.80591 26.0298L7.86561 19.388Z" fill="url(#paint2_linear_2868_19426)"/>
<path id="Vector 703" d="M3.37011 25.6561L2.67603 26.2125L3.71194 27.4102C4.18525 27.4102 4.35827 27.0241 4.4329 26.85L3.37011 25.6561Z" fill="url(#paint3_linear_2868_19426)"/>
<path id="Vector 698" d="M13.842 6.13862L10.6123 12.5543C10.483 12.8112 10.2252 12.9783 9.93788 12.9915L4.55374 13.2391C4.17857 13.2563 3.8665 13.5334 3.80502 13.9039L1.96692 24.9797C1.815 25.8951 3.08611 26.2861 3.47495 25.4436L6.8209 18.194L13.2388 17.9238C13.6266 17.9075 13.9462 17.6137 13.995 17.2286L15.3427 6.59665C15.4552 5.70918 14.2442 5.33958 13.842 6.13862Z" fill="url(#paint4_linear_2868_19426)"/>
<g id="Vector 705" opacity="0.7" filter="url(#filter0_f_2868_19426)">
<path d="M15.3792 6.30939L13.9898 17.2703C13.944 17.6314 13.6444 17.9068 13.2808 17.9221L6.82094 18.1941L3.32031 25.7788C2.95577 26.5686 1.76411 26.202 1.90653 25.3439" stroke="url(#paint5_linear_2868_19426)" stroke-width="0.159204"/>
</g>
<path id="Vector 704" d="M14.582 14.3135L15.3283 14.3881L15.9666 6.65794C15.9869 6.41139 15.8627 6.17537 15.6479 6.05263L15.4776 5.95531L14.582 14.3135Z" fill="url(#paint6_linear_2868_19426)"/>
<path id="Intersect" opacity="0.5" fill-rule="evenodd" clip-rule="evenodd" d="M15.036 18.0608L15.0104 18.3865C14.9788 18.7878 14.6526 19.1024 14.2503 19.1193L14.2388 19.1198L14.0596 18.9406L13.1724 17.9233C13.922 17.8977 13.9801 17.3876 14.0214 17.025C14.0249 16.9945 14.0283 16.9651 14.0319 16.9371L15.0297 18.0451L15.036 18.0608Z" fill="url(#paint7_linear_2868_19426)"/>
<g id="Vector 706" filter="url(#filter1_f_2868_19426)">
<path d="M13.0148 18.4177L7.71631 18.7162L8.16407 19.0147L13.0148 18.4177Z" fill="#3BF3FF"/>
</g>
</g>
</g>
<defs>
<filter id="filter0_f_2868_19426" x="1.65574" y="6.14017" width="13.9617" height="20.3136" filterUnits="userSpaceOnUse" color-interpolation-filters="sRGB">
<feFlood flood-opacity="0" result="BackgroundImageFix"/>
<feBlend mode="normal" in="SourceGraphic" in2="BackgroundImageFix" result="shape"/>
<feGaussianBlur stdDeviation="0.079602" result="effect1_foregroundBlur_2868_19426"/>
</filter>
<filter id="filter1_f_2868_19426" x="7.07949" y="17.7809" width="6.57222" height="1.87065" filterUnits="userSpaceOnUse" color-interpolation-filters="sRGB">
<feFlood flood-opacity="0" result="BackgroundImageFix"/>
<feBlend mode="normal" in="SourceGraphic" in2="BackgroundImageFix" result="shape"/>
<feGaussianBlur stdDeviation="0.318408" result="effect1_foregroundBlur_2868_19426"/>
</filter>
<linearGradient id="paint0_linear_2868_19426" x1="14.5649" y1="7.20755" x2="9.0896" y2="27.1909" gradientUnits="userSpaceOnUse">
<stop stop-color="#44FEFF"/>
<stop offset="0.42708" stop-color="#2C5FFF"/>
<stop offset="1" stop-color="#6F2CFF"/>
</linearGradient>
<linearGradient id="paint1_linear_2868_19426" x1="6.97005" y1="18.3433" x2="3.53721" y2="27.0747" gradientUnits="userSpaceOnUse">
<stop stop-color="#5D9CFF"/>
<stop offset="1" stop-color="#3C7EFF" stop-opacity="0.39"/>
</linearGradient>
<linearGradient id="paint2_linear_2868_19426" x1="6.33576" y1="18.7164" x2="6.33576" y2="26.0298" gradientUnits="userSpaceOnUse">
<stop stop-color="#37FDFF"/>
<stop offset="1" stop-color="#37FDFF" stop-opacity="0"/>
</linearGradient>
<linearGradient id="paint3_linear_2868_19426" x1="3.08953" y1="26.6271" x2="3.76118" y2="26.0301" gradientUnits="userSpaceOnUse">
<stop stop-color="#0908D7"/>
<stop offset="1" stop-color="#0908D7" stop-opacity="0"/>
</linearGradient>
<linearGradient id="paint4_linear_2868_19426" x1="14.8806" y1="6.10448" x2="3.38806" y2="25.7313" gradientUnits="userSpaceOnUse">
<stop stop-color="#5CFAFF" stop-opacity="0.79"/>
<stop offset="0.661465" stop-color="#61B3FF" stop-opacity="0.93"/>
<stop offset="1" stop-color="#4F97F7"/>
</linearGradient>
<linearGradient id="paint5_linear_2868_19426" x1="3.68662" y1="25.5821" x2="13.4627" y2="7.44774" gradientUnits="userSpaceOnUse">
<stop stop-color="white" stop-opacity="0"/>
<stop offset="0.442706" stop-color="white"/>
<stop offset="1" stop-color="white" stop-opacity="0"/>
</linearGradient>
<linearGradient id="paint6_linear_2868_19426" x1="15.7761" y1="7.5971" x2="15.291" y2="14.3881" gradientUnits="userSpaceOnUse">
<stop stop-color="#58FBFF"/>
<stop offset="1" stop-color="#58FBFF" stop-opacity="0"/>
</linearGradient>
<linearGradient id="paint7_linear_2868_19426" x1="14.5819" y1="17.5971" x2="13.6863" y2="18.5672" gradientUnits="userSpaceOnUse">
<stop offset="0.380203" stop-color="#C0C8FF"/>
<stop offset="1" stop-color="#C0C8FF" stop-opacity="0.02"/>
</linearGradient>
</defs>
</svg>
