<svg width="192" height="192" viewBox="0 0 192 192" fill="none" xmlns="http://www.w3.org/2000/svg">
<circle cx="96" cy="96" r="95.5" fill="url(#paint0_linear_21_59)" stroke="url(#paint1_linear_21_59)"/>
<g clip-path="url(#clip0_21_59)">
<path d="M162.392 106.143C162.392 106.143 155.672 106.682 155.505 101.261V90.7731C155.505 90.7731 154.67 85.0001 162.206 85.0001C162.206 85.0001 167.107 84.833 168.406 87.7474C168.406 87.7474 169.037 88.527 168.87 91.7384H163.636V90.0863C163.636 90.0863 163.636 88.7498 162.281 88.7498C162.281 88.7498 160.87 88.8055 160.87 89.9192V100.76C160.87 100.76 160.814 102.226 162.41 102.226C162.41 102.226 163.71 102.189 163.71 100.667V97.53H162.281V94.6157H169V100.779C169 100.779 169 102.078 168.443 102.839C168.443 102.839 167.905 103.674 167.682 103.823C167.682 103.823 165.882 106.143 162.392 106.143Z" fill="white"/>
<path d="M148.562 85.7795H143.346L143.717 97.7898H143.494L138.185 85.7795H131.837V105.586H137.016L136.7 93.4832H136.923L142.418 105.586H148.562V85.7795Z" fill="white"/>
<path d="M116.207 85.7053H110.545V100.556C110.545 100.556 109.969 106.18 117.896 106.18C117.896 106.18 124.783 106.255 124.783 100.816V85.7053H119.251V100.63C119.251 100.63 119.325 102.263 117.822 102.263C117.822 102.263 116.225 102.338 116.225 100.667V85.7053H116.207Z" fill="white"/>
<path d="M104.029 91.8311V89.3436C104.029 89.3436 104.419 85.2784 97.8851 85.0927C97.8851 85.0927 92.7432 84.7586 91.2767 87.5245C91.2767 87.5245 90.7012 88.1371 90.7012 90.2904V91.8496C90.7012 91.8496 90.6455 93.6503 91.5551 94.8012C91.5551 94.8012 92.0749 95.5622 93.3557 96.3976C93.3557 96.3976 95.9545 97.7898 97.4953 98.588C97.4953 98.588 99.0731 99.479 98.8504 100.908C98.8504 100.908 98.7204 102.375 97.2168 102.319C97.2168 102.319 95.8246 102.263 95.8246 100.834V99.1449H90.2743V101.595C90.2743 101.595 90.1258 106.273 97.254 106.273C97.254 106.273 104.067 106.422 104.382 101.465V99.479C104.382 99.479 104.623 96.4533 101.969 94.8568C101.969 94.8568 100.558 93.9844 99.6857 93.6503C99.6857 93.6503 96.9755 92.388 96.4372 91.794C96.4372 91.794 95.3791 90.7916 95.9917 89.6407C95.9917 89.6407 96.2516 88.8796 97.3653 88.8796C97.3653 88.8796 98.8132 88.9538 98.8132 90.1604V91.8496H104.029V91.8311Z" fill="white"/>
<path d="M62.7834 85.7795L62.3564 105.586H67.4984L67.5541 90.6616H67.9625L70.6912 105.568H76.1302L78.8218 90.6616H79.1745L79.3044 105.586H84.4835L83.9266 85.7795H75.3134L73.5685 96.6203H73.1601L71.4894 85.7795H62.7834Z" fill="white"/>
<path d="M56.8242 105.568L53.3901 85.761H44.6283L41.2128 105.568H46.7445L48.7865 90.2161H49.232L51.2739 105.568H56.8242Z" fill="white"/>
<path d="M35.7739 91.8311V89.3436C35.7739 89.3436 36.1452 85.2784 29.611 85.0927C29.611 85.0927 24.4691 84.7586 23.0026 87.5245C23.0026 87.5245 22.4272 88.1371 22.4272 90.2904V91.8496C22.4272 91.8496 22.3715 93.6503 23.2811 94.8012C23.2811 94.8012 23.8008 95.5622 25.0817 96.3976C25.0817 96.3976 27.6805 97.7898 29.2212 98.588C29.2212 98.588 30.7991 99.479 30.5763 100.908C30.5763 100.908 30.4464 102.375 28.9428 102.319C28.9428 102.319 27.5506 102.263 27.5506 100.834V99.1449H22.0002V101.595C22.0002 101.595 21.8517 106.273 28.9799 106.273C28.9799 106.273 35.7925 106.422 36.1081 101.465V99.479C36.1081 99.479 36.3494 96.4533 33.6949 94.8568C33.6949 94.8568 32.2841 93.9844 31.4117 93.6503C31.4117 93.6503 28.7015 92.388 28.1631 91.794C28.1631 91.794 27.105 90.7916 27.7176 89.6407C27.7176 89.6407 27.9775 88.8796 29.0913 88.8796C29.0913 88.8796 30.5392 88.9538 30.5392 90.1604V91.8496H35.7554L35.7739 91.8311Z" fill="white"/>
</g>
<defs>
<linearGradient id="paint0_linear_21_59" x1="96" y1="0" x2="96" y2="192" gradientUnits="userSpaceOnUse">
<stop stop-color="#3146C2"/>
<stop offset="1" stop-color="#1428A0"/>
</linearGradient>
<linearGradient id="paint1_linear_21_59" x1="177.5" y1="173.5" x2="23.5" y2="19" gradientUnits="userSpaceOnUse">
<stop stop-color="white"/>
<stop offset="1" stop-color="white" stop-opacity="0"/>
</linearGradient>
<clipPath id="clip0_21_59">
<rect width="147" height="21.2546" fill="white" transform="translate(22 85)"/>
</clipPath>
</defs>
</svg>
