<svg width="192" height="192" viewBox="0 0 192 192" fill="none" xmlns="http://www.w3.org/2000/svg">
<circle cx="96" cy="96" r="95.5" fill="#FF8A3D" stroke="url(#paint0_linear_21_274)"/>
<g clip-path="url(#clip0_21_274)">
<path d="M40.8714 83.2683C32.663 83.2683 26 89.9313 26 98.1397C26 101.571 27.2104 104.732 29.1611 107.294C29.2963 107.494 29.496 107.699 29.6312 107.835C29.8309 108.105 30.1012 108.375 30.3715 108.64C33.1977 111.666 36.8348 113.957 40.8714 115.167C44.908 113.957 48.545 111.666 51.3712 108.64C51.6415 108.369 51.8413 108.099 52.1116 107.835C52.2467 107.635 52.4465 107.429 52.5816 107.294C54.5323 104.803 55.7427 101.642 55.7427 98.1397C55.7427 89.9313 49.0797 83.2683 40.8714 83.2683ZM40.8714 103.792C37.7102 103.792 35.1484 101.236 35.1484 98.0692C35.1484 94.9022 37.7044 92.3462 40.8714 92.3462C44.0384 92.3462 46.5238 94.9022 46.5238 98.0692C46.5238 101.236 44.0325 103.792 40.8714 103.792Z" fill="white"/>
<path d="M45.7187 82.9333C46.7293 82.7336 47.4696 81.8581 47.4696 80.777C47.4696 79.5666 46.459 78.6206 45.3191 78.6206C44.9842 78.6206 44.6434 78.6852 44.379 78.8203C43.9736 77.2045 42.5634 75.9941 40.8771 75.9941C39.1908 75.9941 37.7806 77.2045 37.4457 78.8203C37.1754 78.6852 36.8405 78.6206 36.5056 78.6206C35.2952 78.6206 34.3492 79.6312 34.3492 80.777C34.3492 81.8522 35.0895 82.7277 36.1002 82.9333C37.6455 82.3928 39.2613 82.1284 40.9476 82.1284C42.6339 82.1284 44.1792 82.3986 45.7245 82.9333H45.7187Z" fill="white"/>
<path d="M66.3779 98.3453H75.4617C76.6075 98.3453 77.4829 97.6696 77.4829 96.2594C77.4829 94.8492 76.6075 94.1735 75.4617 94.1735H67.5178C67.1123 94.1735 66.8421 93.9032 66.8421 93.5683V90.0018C66.8421 89.5964 67.1123 89.3966 67.5178 89.3966H75.4617C76.6075 89.3966 77.4829 88.7209 77.4829 87.3107C77.4829 85.9006 76.6075 85.2249 75.4617 85.2249H66.3779C63.2814 85.2249 61.8007 86.5704 61.8007 89.1968V94.4438C61.8007 96.9997 63.2814 98.3453 66.3779 98.3453Z" fill="white"/>
<path d="M77.7532 100.026H68.8045C64.7679 100.026 62.1415 102.247 62.1415 105.478C62.1415 108.71 64.7679 110.86 68.8045 110.86H77.7532C81.7898 110.86 84.4809 108.639 84.4809 105.478C84.4809 102.317 81.7898 100.026 77.7532 100.026ZM77.7532 106.689H68.8045C67.7939 106.689 67.2592 106.148 67.2592 105.478C67.2592 104.738 67.7998 104.197 68.8045 104.197H77.7532C78.7638 104.197 79.2985 104.738 79.2985 105.478C79.2985 106.154 78.758 106.689 77.7532 106.689Z" fill="white"/>
<path d="M85.3565 89.4612H83.9405V86.6996C83.9405 85.4892 82.9299 84.6138 81.3846 84.6138C79.8393 84.6138 78.8286 85.4892 78.8286 86.6996V97.2641C78.8286 98.4745 79.9039 99.35 81.3846 99.35C82.8652 99.35 83.9405 98.4745 83.9405 97.2641V94.3674H85.3565C86.5023 94.3674 87.4424 93.3568 87.4424 91.8761C87.4424 90.5306 86.5023 89.4553 85.3565 89.4553V89.4612Z" fill="white"/>
<path d="M110.728 100.696H89.9339C88.7235 100.696 87.7129 99.8906 87.7129 98.41C87.7129 97.0644 88.7235 96.1889 89.9339 96.1889H110.728C111.938 96.1889 112.949 97.0644 112.949 98.41C112.949 99.8906 112.009 100.696 110.728 100.696ZM106.486 93.3627V90.6717C106.486 90.2016 106.215 89.9313 105.81 89.9313H91.3441C90.0632 89.9313 89.0585 89.1264 89.0585 87.6457C89.0585 86.165 90.1337 85.2896 91.3441 85.2896H106.891C109.988 85.2896 111.533 86.9054 111.533 89.7316V93.4333C111.533 94.6436 110.522 95.5191 108.977 95.5191C107.432 95.5191 106.486 94.579 106.486 93.3627ZM94.3054 103.592V105.408C94.3054 105.743 94.5757 106.013 94.9811 106.013H109.853C111.133 106.013 112.138 106.818 112.138 108.299C112.138 109.779 111.063 110.584 109.853 110.584H93.9705C90.874 110.584 89.2582 109.303 89.2582 106.477V103.586C89.2582 102.376 90.2688 101.501 91.8142 101.501C93.2302 101.501 94.3054 102.441 94.3054 103.586V103.592Z" fill="white"/>
<path d="M115.575 105.948V88.7856C115.575 86.4294 116.785 85.219 119.206 85.219H125.869C128.29 85.219 129.5 86.4294 129.5 88.7856V105.948C129.5 108.305 128.29 109.515 125.869 109.515H119.206C116.715 109.515 115.575 108.305 115.575 105.948ZM124.659 104.333V90.4014C124.659 90.0665 124.459 89.8608 124.189 89.8608H120.892C120.622 89.8608 120.422 90.0606 120.422 90.4014V104.262C120.422 104.597 120.622 104.803 120.892 104.803H124.189C124.459 104.867 124.659 104.603 124.659 104.333ZM132.532 108.704V86.8995C132.532 85.6186 133.607 84.6785 135.088 84.6785C136.569 84.6785 137.644 85.6891 137.644 86.8995V94.0326H139.06C140.206 94.0326 141.146 95.1078 141.146 96.5239C141.146 97.9399 140.206 99.0798 139.06 99.0798H137.644V108.769C137.644 110.05 136.633 110.99 135.088 110.99C133.607 110.925 132.532 109.979 132.532 108.704Z" fill="white"/>
<path d="M154.202 90.6012H155.212V86.6997C155.212 85.5539 156.152 84.8136 157.498 84.8136C158.843 84.8136 159.784 85.5539 159.784 86.6997V98.4746C159.784 99.6203 158.908 100.361 157.498 100.361C156.088 100.361 155.212 99.5557 155.212 98.4099V94.9785H154.202C153.661 94.9785 153.126 94.7083 152.786 94.2382C151.37 97.3347 148.949 99.826 145.517 101.371C144.442 101.841 143.232 101.571 142.627 100.496C142.021 99.4206 142.427 98.1397 143.367 97.6696C144.912 96.9939 146.193 96.0538 147.204 94.908H144.712C143.772 94.908 142.897 94.3675 142.897 93.0924C142.897 91.9467 143.702 91.2769 144.712 91.2769H149.084C149.219 90.8068 149.354 90.3368 149.354 89.8608C149.419 89.4554 149.219 89.1851 148.814 89.1851H144.777C143.631 89.1851 142.826 88.5094 142.826 87.2344C142.826 85.9594 143.637 85.2132 144.777 85.2132H149.624C152.856 85.2132 154.337 86.7585 153.867 90.2604C153.867 90.3955 153.867 90.5306 153.796 90.6658C154.002 90.6012 154.067 90.6012 154.202 90.6012ZM163.285 110.455C160.189 109.779 156.487 108.099 154.067 106.148C151.846 108.369 148.884 109.985 145.723 110.59C144.648 110.79 143.437 110.32 143.032 108.974C142.697 107.694 143.302 106.618 144.448 106.283C147.879 105.408 150.706 103.387 152.122 100.766C152.592 99.9611 153.737 99.4206 155.148 99.826C156.558 100.296 157.169 101.642 156.693 102.588V102.652C158.714 104.268 161.605 105.543 164.502 106.219C165.577 106.489 166.253 107.564 165.912 108.845C165.577 110.191 164.367 110.731 163.285 110.461V110.455ZM160.929 99.2149V86.5646C160.929 85.4188 161.869 84.6785 163.285 84.6785C164.702 84.6785 165.642 85.4188 165.642 86.5646V99.2149C165.642 100.361 164.702 101.101 163.285 101.101C161.869 101.101 160.929 100.361 160.929 99.2149Z" fill="white"/>
</g>
<defs>
<linearGradient id="paint0_linear_21_274" x1="177.5" y1="173.5" x2="23.5" y2="19" gradientUnits="userSpaceOnUse">
<stop stop-color="white"/>
<stop offset="1" stop-color="white" stop-opacity="0"/>
</linearGradient>
<clipPath id="clip0_21_274">
<rect width="140" height="39.1673" fill="white" transform="translate(26 76)"/>
</clipPath>
</defs>
</svg>
